<svg width="24" height="25" viewBox="0 0 24 25" fill="none" xmlns="http://www.w3.org/2000/svg">
<rect y="0.875" width="24" height="24" rx="12" fill="#44969F"/>
<path d="M10.8936 15.4349C10.4344 15.3952 9.96954 15.375 9.5 15.375H9C7.34315 15.375 6 14.0319 6 12.375C6 10.7181 7.34315 9.375 9 9.375H9.5C9.96954 9.375 10.4344 9.35477 10.8936 9.31515M10.8936 15.4349C11.0622 16.076 11.2825 16.6962 11.5498 17.2906C11.7147 17.6575 11.5895 18.0968 11.2411 18.298L10.8035 18.5506C10.4359 18.7628 9.96373 18.6287 9.78561 18.2434C9.36786 17.3399 9.0436 16.3843 8.82524 15.389M10.8936 15.4349C10.6368 14.458 10.5 13.4325 10.5 12.375C10.5 11.3175 10.6368 10.292 10.8936 9.31515M10.8936 15.4349C13 15.6166 14.9896 16.2064 16.7831 17.1249M10.8936 9.31515C13 9.1334 14.9896 8.54355 16.7831 7.62506M16.7831 7.62506C16.7047 7.3723 16.6201 7.12222 16.5296 6.875M16.7831 7.62506C17.1398 8.77385 17.3705 9.97808 17.4591 11.2216M16.7831 17.1249C16.7047 17.3777 16.6201 17.6278 16.5296 17.875M16.7831 17.1249C17.1398 15.9762 17.3705 14.7719 17.4591 13.5284M17.4591 11.2216C17.7896 11.4968 18 11.9113 18 12.375C18 12.8387 17.7896 13.2532 17.4591 13.5284M17.4591 11.2216C17.4862 11.6025 17.5 11.9872 17.5 12.375C17.5 12.7628 17.4862 13.1475 17.4591 13.5284" stroke="white" stroke-width="1.25" stroke-linecap="round" stroke-linejoin="round"/>
</svg>
