<svg width="46" height="48" viewBox="0 0 46 48" fill="none" xmlns="http://www.w3.org/2000/svg">
<circle cx="22.25" cy="23.125" r="21.75" stroke="#083E44"/>
<path d="M22.25 20.75C28.3243 20.75 33.7988 22.1415 37.7373 24.3652C41.691 26.5976 44 29.6034 44 32.8125C44 36.0216 41.691 39.0274 37.7373 41.2598C33.7988 43.4835 28.3243 44.875 22.25 44.875C16.1757 44.875 10.7012 43.4835 6.7627 41.2598C2.80901 39.0274 0.5 36.0216 0.5 32.8125C0.5 29.6034 2.80901 26.5976 6.7627 24.3652C10.7012 22.1415 16.1757 20.75 22.25 20.75Z" stroke="#083E44"/>
<path d="M22.25 33.2646C28.3615 33.2646 33.8759 33.9675 37.8467 35.0928C39.8355 35.6564 41.4092 36.3181 42.4736 37.0312C43.556 37.7565 44 38.4555 44 39.0703C43.9998 39.685 43.5557 40.3833 42.4736 41.1084C41.4092 41.8215 39.8355 42.4833 37.8467 43.0469C33.8759 44.1721 28.3615 44.875 22.25 44.875C16.1385 44.875 10.6241 44.1721 6.65332 43.0469C4.6645 42.4833 3.09078 41.8215 2.02637 41.1084C0.944296 40.3833 0.500234 39.685 0.5 39.0703C0.5 38.4555 0.944009 37.7565 2.02637 37.0312C3.09078 36.3181 4.6645 35.6564 6.65332 35.0928C10.6241 33.9675 16.1385 33.2646 22.25 33.2646Z" stroke="#083E44"/>
<path d="M22.2505 39.1454C24.9281 39.1454 27.3312 39.5176 29.0474 40.1044C29.9078 40.3986 30.5681 40.7378 31.0034 41.0897C31.4431 41.4451 31.5913 41.7595 31.5913 42.0106C31.5911 42.2617 31.4428 42.5763 31.0034 42.9315C30.5681 43.2833 29.9075 43.6218 29.0474 43.9159C27.3312 44.5026 24.9281 44.8748 22.2505 44.8749C19.5727 44.8749 17.1689 44.5027 15.4526 43.9159C14.5925 43.6218 13.9319 43.2833 13.4966 42.9315C13.0572 42.5763 12.9089 42.2617 12.9087 42.0106C12.9087 41.7595 13.057 41.4451 13.4966 41.0897C13.9319 40.7378 14.5922 40.3986 15.4526 40.1044C17.1689 39.5176 19.5727 39.1454 22.2505 39.1454Z" stroke="#083E44"/>
<circle cx="30.715" cy="21.7132" r="1.35321" fill="#DE267E"/>
<circle cx="5.5368" cy="9.20025" r="1.35321" fill="#DE267E"/>
<circle cx="16.7292" cy="39.7149" r="1.35321" fill="#DE267E"/>
<circle cx="31.0768" cy="33.5941" r="1.35321" fill="#DE267E"/>
</svg>
