<svg width="113" height="20" viewBox="0 0 113 20" fill="none" xmlns="http://www.w3.org/2000/svg">
<g clip-path="url(#clip0_76_424770)">
<path d="M110.633 7.92908V6.27518H111.428C111.519 6.27518 111.604 6.29504 111.684 6.33759C111.767 6.3773 111.833 6.43972 111.885 6.51915C111.938 6.59858 111.963 6.69787 111.963 6.81702C111.963 6.93617 111.935 7.03546 111.883 7.12057C111.83 7.20284 111.759 7.26525 111.673 7.3078C111.588 7.35035 111.499 7.37305 111.408 7.37305H110.854V7.07518H111.314C111.372 7.07518 111.422 7.05248 111.472 7.00993C111.519 6.96738 111.543 6.90213 111.543 6.81702C111.543 6.73191 111.519 6.66383 111.472 6.62979C111.425 6.59291 111.372 6.57589 111.323 6.57589H111.033V7.92908H110.636H110.633ZM111.64 7.16028L112.018 7.92908H111.582L111.223 7.16028H111.64ZM111.256 8.91348C111.016 8.91348 110.79 8.86808 110.578 8.77447C110.368 8.68085 110.183 8.55319 110.023 8.38865C109.863 8.22411 109.739 8.03404 109.648 7.81844C109.557 7.60284 109.513 7.37021 109.513 7.12057C109.513 6.87092 109.557 6.64113 109.648 6.42269C109.739 6.20709 109.863 6.01702 110.023 5.85248C110.183 5.68794 110.368 5.56028 110.578 5.46667C110.787 5.37305 111.014 5.32766 111.256 5.32766C111.499 5.32766 111.723 5.37305 111.932 5.46667C112.142 5.56028 112.327 5.68794 112.487 5.85248C112.647 6.01702 112.771 6.20709 112.862 6.42269C112.953 6.6383 112.997 6.87092 112.997 7.12057C112.997 7.37021 112.953 7.6 112.862 7.81844C112.771 8.03404 112.647 8.22411 112.487 8.38865C112.327 8.55319 112.142 8.68085 111.932 8.77447C111.723 8.86808 111.497 8.91348 111.256 8.91348ZM111.256 8.4539C111.494 8.4539 111.712 8.39433 111.908 8.27518C112.103 8.15603 112.261 7.99433 112.377 7.79291C112.495 7.58865 112.553 7.36454 112.553 7.12057C112.553 6.8766 112.495 6.65248 112.377 6.45106C112.261 6.24681 112.103 6.08794 111.908 5.96596C111.712 5.84681 111.494 5.78723 111.256 5.78723C111.019 5.78723 110.799 5.84681 110.603 5.96596C110.407 6.08511 110.25 6.24681 110.134 6.45106C110.018 6.65248 109.96 6.8766 109.96 7.12057C109.96 7.36454 110.018 7.58865 110.134 7.79007C110.252 7.99149 110.407 8.15319 110.603 8.27518C110.799 8.39433 111.016 8.4539 111.256 8.4539Z" fill="white"/>
<path d="M55.6145 16.4596C55.0158 17.5716 54.1579 18.4369 53.035 19.061C51.9122 19.6823 50.5935 19.9943 49.0762 19.9943H43.6965V5.34184H49.0762C50.6073 5.34184 51.9315 5.64539 53.0461 6.25532C54.1606 6.86241 55.0186 7.71915 55.6145 8.82553C56.2132 9.93192 56.5111 11.2028 56.5111 12.6383C56.5111 14.0738 56.2132 15.3504 55.6145 16.4624V16.4596ZM51.9094 15.7248C52.6543 14.9929 53.0268 13.9631 53.0268 12.6383C53.0268 11.3135 52.6543 10.2837 51.9094 9.55177C51.1646 8.81986 50.119 8.4539 48.7755 8.4539H47.1423V16.8255H48.7755C50.119 16.8255 51.1646 16.4596 51.9094 15.7277V15.7248Z" fill="white"/>
<path d="M94.6817 19.983H91.2359L85.4728 10.9901V19.983H82.0271V5.3305H85.4728L91.2359 14.4057V5.3305H94.6817V19.9801V19.983Z" fill="white"/>
<path d="M80.0077 5.3305V19.9801H76.562V5.3305H80.0077Z" fill="white"/>
<path d="M74.5452 5.3844V19.983H71.0995V10.8539L68.0372 19.983H65.055L61.9706 10.834V19.983H58.5249V5.3844H62.7376L66.5861 15.5518L70.3546 5.3844H74.5452Z" fill="white"/>
<path d="M108.616 16.4482C108.018 17.5603 107.16 18.4255 106.037 19.0496C104.914 19.6709 103.595 19.983 102.078 19.983H96.6982V5.3305H102.078C103.609 5.3305 104.933 5.63404 106.048 6.24397C107.162 6.85106 108.018 7.7078 108.616 8.81418C109.215 9.92057 109.513 11.1915 109.513 12.627C109.513 14.0624 109.212 15.339 108.616 16.4511V16.4482ZM104.908 15.7135C105.653 14.9816 106.028 13.9518 106.028 12.627C106.028 11.3021 105.656 10.2723 104.908 9.54043C104.164 8.80851 103.118 8.44255 101.774 8.44255H100.141V16.8142H101.774C103.118 16.8142 104.164 16.4482 104.908 15.7163V15.7135Z" fill="white"/>
<path d="M41.6742 5.3305V19.9801H38.2285V5.3305H41.6742Z" fill="white"/>
<path d="M31.6074 17.2681H36.2008V19.983H28.1589V5.3305H31.6047V17.2681H31.6074Z" fill="white"/>
<path d="M22.9089 17.2652H17.5679L16.6796 19.9489H13.0518L18.9252 5.33901H21.5875L27.4609 19.9489H23.7917L22.9062 17.2652H22.9089ZM22.0233 14.5589L20.2494 9.82411L18.4562 14.5589H22.0233Z" fill="white"/>
<path d="M2.02219 9.35319H5.75208L5.08445 8.03121H1.35181L2.02219 9.35319Z" fill="white"/>
<path d="M6.326 10.4908H2.59888L3.34927 11.9716H7.07087L6.32324 10.4908H6.326Z" fill="white"/>
<path d="M14.2105 0L8.37847 14.5532L7.64739 13.1064H3.92578L7.32737 19.9631H9.47095L17.7197 0H14.2105Z" fill="white"/>
<path d="M4.50786 6.89362L3.7354 5.36738H0L0.77522 6.89362H4.50786Z" fill="white"/>
</g>
<defs>
<clipPath id="clip0_76_424770">
<rect width="113" height="20" fill="white"/>
</clipPath>
</defs>
</svg>
