<?xml version="1.0" encoding="UTF-8"?>
<svg width="589px" height="127px" viewBox="0 0 589 127" version="1.1" xmlns="http://www.w3.org/2000/svg" xmlns:xlink="http://www.w3.org/1999/xlink">
    <title>VM - DE267E@1x</title>
    <g id="Page-2" stroke="none" stroke-width="1" fill="none" fill-rule="evenodd">
        <g id="Desktop-Copy-61" transform="translate(-179.000000, -477.000000)" fill="#DE257E" fill-rule="nonzero">
            <path d="M287.745513,477.956914 L232.628374,604 L220.528374,604 L203.080531,570.999914 L221.494531,570.999914 L226.415967,579.752515 L270.945513,477.956914 L287.745513,477.956914 Z M292.6,526 L328.566973,604 L311.966973,604 L303.1,585.1 L271.2,585.1 L263.424053,604 L246.924053,604 L280.4,526 L292.6,526 Z M286.8,549 L277.2,570.7 L297,570.7 L286.8,549 Z M213.059531,555.999914 L219.244531,566.999914 L200.966531,566.999914 L195.150531,555.999914 L213.059531,555.999914 Z M204.624531,540.999914 L210.810531,551.999914 L193.036531,551.999914 L187.220531,540.999914 L204.624531,540.999914 Z M196.190531,526 L202.375531,536.999914 L185.105531,536.999914 L179.290531,526 L196.190531,526 Z M353.966973,589.3 L393.066973,589.3 L393.066973,604 L338.566973,604 L338.566973,526 L353.966973,526 L353.966973,589.3 Z M403.066973,526 L418.466973,526 L418.766973,604 L403.366973,604 L403.066973,526 Z M428.766973,526 L455.666973,526 C464.266973,526 471.73364,527.55 478.066973,530.65 C484.400307,533.75 489.23364,538.233333 492.566973,544.1 C495.900307,550.033333 497.566973,557 497.566973,565 C497.566973,577.533333 493.950307,587.166667 486.716973,593.9 C479.48364,600.633333 469.13364,604 455.666973,604 L428.766973,604 L428.766973,526 Z M454.766973,589.3 C464.366973,589.3 471.316973,587.383333 475.616973,583.55 C479.916973,579.716667 482.066973,573.533333 482.066973,565 C482.066973,556.733333 479.83364,550.616667 475.366973,546.65 C470.900307,542.683333 464.03364,540.7 454.766973,540.7 L444.166973,540.7 L444.166973,589.3 L454.766973,589.3 Z M515.701259,604 L507.566973,604 L507.566973,526 L515.701259,526 L543.892688,568.231429 L572.084116,526 L580.106973,526 L580.106973,604 L571.972688,604 L572.306973,538.48 L546.455545,578.148571 L541.441259,578.148571 L515.255545,538.814286 L515.701259,604 Z M603.686973,604 L595.441259,604 L595.106973,526 L603.352688,526 L603.686973,604 Z M626.709831,604 L618.686973,604 L620.024116,526 L627.155545,526 L675.069831,589.737143 L676.741259,526 L684.764116,526 L682.758402,604 L675.738402,604 L627.824116,540.04 L626.709831,604 Z M699.324116,526 L724.935958,526 C738.506134,526 748.963371,529.38 756.307669,536.14 C763.651967,542.9 767.324116,552.52 767.324116,565 C767.324116,577.777143 763.689248,587.471429 756.419511,594.082857 C749.149774,600.694286 738.655257,604 724.935958,604 L699.324116,604 L699.324116,526 Z M724.546339,597 C736.324116,597 745.064857,594.439929 750.768561,589.319788 C756.472264,584.199647 759.324116,576.259717 759.324116,565.5 C759.324116,544.5 747.731524,534 724.546339,534 L708.324116,534 L708.324116,597 L724.546339,597 Z" id="VM---DE267E"/>
        </g>
    </g>
</svg>