<?xml version="1.0" encoding="UTF-8"?>
<svg xmlns="http://www.w3.org/2000/svg" width="537" height="253" viewBox="0 0 537 253" fill="none">
  <mask id="mask0_5549_5832" style="mask-type:alpha" maskUnits="userSpaceOnUse" x="0" y="0" width="537" height="253">
    <rect width="537" height="253" fill="#083E44"></rect>
  </mask>
  <g mask="url(#mask0_5549_5832)">
    <path d="M276.467 191.301L272.529 -280.707" stroke="#989898" stroke-width="0.376522"></path>
    <path d="M80.7102 -41.623C79.6148 -172.938 165.155 -280.041 271.69 -280.93C378.226 -281.818 465.54 -176.157 466.636 -44.8424C467.731 86.4726 382.192 193.576 275.656 194.464C169.12 195.353 81.8057 89.692 80.7102 -41.623Z" stroke="#989898" stroke-width="0.376522"></path>
    <path d="M122.406 -37.0093C122.382 -38.109 122.364 -39.2105 122.35 -40.3139L122.538 -40.3163C122.531 -40.8677 122.525 -41.4195 122.521 -41.9718C122.516 -42.5242 122.512 -43.0762 122.51 -43.6278L122.322 -43.627C122.318 -44.7304 122.318 -45.8321 122.323 -46.932L122.511 -46.9311C122.517 -48.0305 122.527 -49.128 122.541 -50.2237L122.353 -50.2263C122.368 -51.3225 122.387 -52.4169 122.411 -53.5095L122.6 -53.5053C122.624 -54.6078 122.653 -55.7083 122.687 -56.8069L122.499 -56.8127C122.533 -57.9147 122.572 -59.0147 122.616 -60.1126L122.804 -60.1052C122.847 -61.2026 122.896 -62.2979 122.949 -63.3912L122.761 -63.4004C122.814 -64.4958 122.872 -65.5891 122.935 -66.6802L123.123 -66.6695C123.186 -67.7723 123.254 -68.8729 123.327 -69.9712L123.139 -69.9837C123.212 -71.0826 123.29 -72.1793 123.373 -73.2736L123.56 -73.2595C123.643 -74.3533 123.73 -75.4448 123.822 -76.5339L123.634 -76.5497C123.727 -77.6464 123.824 -78.7407 123.927 -79.8326L124.114 -79.8151C124.217 -80.9136 124.324 -82.0096 124.437 -83.1031L124.25 -83.1224C124.362 -84.2165 124.479 -85.3081 124.601 -86.397L124.788 -86.3761C124.91 -87.4645 125.037 -88.5504 125.168 -89.6335L124.981 -89.6562C125.114 -90.7533 125.252 -91.8478 125.395 -92.9395L125.582 -92.9151C125.724 -94.0075 125.872 -95.0971 126.024 -96.1839L125.838 -96.2101C125.99 -97.2975 126.147 -98.382 126.309 -99.4637L126.495 -99.4359C126.658 -100.523 126.826 -101.607 126.998 -102.688L126.812 -102.717C126.986 -103.808 127.164 -104.896 127.348 -105.981L127.533 -105.95C127.717 -107.034 127.905 -108.115 128.098 -109.193L127.912 -109.226C128.105 -110.305 128.303 -111.381 128.506 -112.453L128.691 -112.418C128.896 -113.504 129.105 -114.586 129.32 -115.665L129.135 -115.702C129.35 -116.783 129.57 -117.861 129.795 -118.936L129.979 -118.897C130.204 -119.971 130.433 -121.042 130.667 -122.109L130.483 -122.149C130.719 -123.225 130.96 -124.296 131.205 -125.364L131.389 -125.322C131.636 -126.398 131.888 -127.471 132.145 -128.539L131.962 -128.583C132.219 -129.653 132.481 -130.718 132.747 -131.78L132.93 -131.734C133.197 -132.797 133.468 -133.856 133.745 -134.911L133.563 -134.958C133.843 -136.029 134.128 -137.096 134.419 -138.159L134.6 -138.109C134.89 -139.171 135.185 -140.229 135.484 -141.283L135.303 -141.335C135.603 -142.39 135.908 -143.44 136.217 -144.486L136.398 -144.433C136.711 -145.492 137.028 -146.546 137.351 -147.597L137.171 -147.652C137.495 -148.707 137.824 -149.757 138.158 -150.803L138.337 -150.746C138.671 -151.791 139.009 -152.832 139.352 -153.869L139.173 -153.928C139.52 -154.973 139.871 -156.014 140.226 -157.051L140.404 -156.99C140.763 -158.034 141.127 -159.074 141.495 -160.109L141.318 -160.172C141.686 -161.208 142.06 -162.239 142.438 -163.265L142.614 -163.2C142.994 -164.23 143.379 -165.255 143.768 -166.276L143.592 -166.343C143.987 -167.377 144.386 -168.406 144.791 -169.429L144.966 -169.36C145.37 -170.383 145.779 -171.401 146.193 -172.413L146.018 -172.484C146.433 -173.499 146.853 -174.509 147.277 -175.513L147.451 -175.44C147.882 -176.46 148.318 -177.474 148.759 -178.483L148.586 -178.558C149.027 -179.568 149.473 -180.571 149.924 -181.569L150.096 -181.492C150.547 -182.489 151.002 -183.48 151.462 -184.466L151.291 -184.546C151.761 -185.551 152.235 -186.549 152.714 -187.542L152.883 -187.46C153.362 -188.452 153.846 -189.438 154.334 -190.418L154.165 -190.502C154.654 -191.482 155.148 -192.456 155.646 -193.424L155.814 -193.338C156.321 -194.323 156.833 -195.301 157.35 -196.272L157.184 -196.361C157.702 -197.334 158.225 -198.301 158.753 -199.261L158.917 -199.17C159.445 -200.129 159.977 -201.082 160.514 -202.027L160.35 -202.12C160.898 -203.085 161.451 -204.042 162.008 -204.992L162.171 -204.896C162.728 -205.846 163.291 -206.789 163.858 -207.725L163.697 -207.822C164.265 -208.759 164.838 -209.688 165.416 -210.61L165.576 -210.51C166.164 -211.45 166.758 -212.382 167.357 -213.306L167.199 -213.408C167.798 -214.333 168.402 -215.249 169.011 -216.158L169.168 -216.054C169.778 -216.965 170.393 -217.867 171.013 -218.762L170.859 -218.869C171.49 -219.781 172.127 -220.684 172.768 -221.578L172.921 -221.469C173.562 -222.362 174.208 -223.248 174.859 -224.124L174.708 -224.236C175.363 -225.12 176.024 -225.995 176.69 -226.86L176.839 -226.746C177.513 -227.623 178.192 -228.491 178.876 -229.35L178.729 -229.467C179.414 -230.327 180.104 -231.177 180.798 -232.018L180.943 -231.899C181.646 -232.749 182.353 -233.59 183.065 -234.421L182.922 -234.543C183.641 -235.383 184.365 -236.212 185.094 -237.032L185.234 -236.907C185.962 -237.725 186.696 -238.534 187.433 -239.333L187.295 -239.461C188.047 -240.275 188.804 -241.078 189.566 -241.871L189.701 -241.74C190.464 -242.535 191.232 -243.318 192.005 -244.091L191.872 -244.224C192.649 -245.001 193.431 -245.767 194.218 -246.522L194.348 -246.386C195.147 -247.153 195.95 -247.908 196.758 -248.651L196.631 -248.789C197.44 -249.534 198.254 -250.266 199.073 -250.988L199.197 -250.846C200.025 -251.575 200.857 -252.292 201.695 -252.997L201.573 -253.141C202.418 -253.852 203.267 -254.551 204.122 -255.237L204.24 -255.091C205.094 -255.777 205.953 -256.451 206.817 -257.112L206.702 -257.262C207.582 -257.936 208.467 -258.596 209.356 -259.244L209.467 -259.091C210.355 -259.738 211.248 -260.371 212.145 -260.991L212.038 -261.146C212.946 -261.773 213.858 -262.386 214.775 -262.986L214.878 -262.828C215.8 -263.431 216.727 -264.02 217.659 -264.595L217.56 -264.755C218.494 -265.332 219.434 -265.894 220.377 -266.443L220.472 -266.28C221.426 -266.834 222.386 -267.374 223.35 -267.899L223.26 -268.065C224.225 -268.59 225.195 -269.101 226.169 -269.597L226.255 -269.429C227.236 -269.929 228.222 -270.413 229.212 -270.881L229.131 -271.051C230.127 -271.522 231.127 -271.977 232.131 -272.417L232.206 -272.244C233.212 -272.685 234.221 -273.109 235.235 -273.517L235.165 -273.691C236.188 -274.103 237.214 -274.498 238.245 -274.876L238.31 -274.7C239.339 -275.078 240.373 -275.439 241.41 -275.784L241.35 -275.962C242.396 -276.31 243.445 -276.64 244.498 -276.954L244.551 -276.773C245.603 -277.086 246.659 -277.382 247.718 -277.66L247.67 -277.842C248.733 -278.122 249.799 -278.384 250.869 -278.629L250.911 -278.445C251.981 -278.689 253.054 -278.916 254.13 -279.125L254.094 -279.31C255.172 -279.519 256.254 -279.711 257.339 -279.885L257.369 -279.699C258.45 -279.872 259.535 -280.027 260.623 -280.164L260.599 -280.351C261.689 -280.488 262.783 -280.608 263.88 -280.709L263.897 -280.521C264.985 -280.622 266.076 -280.704 267.17 -280.768L267.159 -280.956C268.255 -281.02 269.353 -281.066 270.455 -281.094L270.46 -280.906C271.009 -280.919 271.56 -280.929 272.111 -280.933C272.662 -280.938 273.213 -280.938 273.763 -280.933L273.764 -281.121C274.866 -281.112 275.965 -281.084 277.062 -281.039L277.054 -280.85C278.149 -280.805 279.242 -280.741 280.331 -280.658L280.345 -280.846C281.444 -280.763 282.539 -280.662 283.631 -280.543L283.611 -280.356C284.701 -280.237 285.788 -280.1 286.872 -279.945L286.899 -280.131C287.986 -279.976 289.071 -279.802 290.153 -279.611L290.12 -279.425C291.2 -279.234 292.276 -279.025 293.349 -278.799L293.388 -278.983C294.462 -278.757 295.533 -278.512 296.6 -278.251L296.555 -278.068C297.619 -277.807 298.68 -277.529 299.736 -277.233L299.787 -277.415C300.845 -277.119 301.9 -276.806 302.95 -276.476L302.894 -276.297C303.937 -275.969 304.976 -275.625 306.011 -275.264L306.073 -275.442C307.11 -275.081 308.143 -274.703 309.173 -274.309L309.105 -274.133C310.126 -273.742 311.143 -273.335 312.155 -272.911L312.228 -273.085C313.239 -272.662 314.247 -272.224 315.25 -271.769L315.172 -271.598C316.17 -271.146 317.164 -270.679 318.153 -270.196L318.236 -270.365C319.218 -269.886 320.196 -269.391 321.17 -268.881L321.083 -268.715C322.056 -268.206 323.024 -267.682 323.988 -267.143L324.079 -267.308C325.032 -266.775 325.98 -266.229 326.924 -265.667L326.828 -265.506C327.769 -264.946 328.706 -264.373 329.638 -263.785L329.738 -263.945C330.665 -263.361 331.588 -262.763 332.505 -262.151L332.401 -261.994C333.309 -261.389 334.212 -260.771 335.111 -260.139L335.219 -260.293C336.119 -259.661 337.015 -259.015 337.905 -258.356L337.794 -258.205C338.668 -257.558 339.538 -256.899 340.404 -256.227L340.519 -256.375C341.385 -255.703 342.246 -255.019 343.102 -254.322L342.984 -254.176C343.833 -253.485 344.677 -252.782 345.517 -252.067L345.639 -252.21C346.47 -251.503 347.296 -250.784 348.117 -250.053L347.992 -249.912C348.812 -249.183 349.628 -248.441 350.439 -247.689L350.567 -247.827C351.366 -247.085 352.161 -246.332 352.951 -245.568L352.82 -245.432C353.606 -244.673 354.387 -243.902 355.163 -243.121L355.296 -243.253C356.071 -242.473 356.842 -241.683 357.607 -240.881L357.471 -240.751C358.222 -239.965 358.968 -239.169 359.71 -238.362L359.849 -238.49C360.591 -237.682 361.329 -236.865 362.062 -236.038L361.921 -235.913C362.647 -235.094 363.368 -234.265 364.084 -233.426L364.227 -233.549C364.935 -232.719 365.639 -231.88 366.338 -231.032L366.193 -230.912C366.891 -230.065 367.585 -229.208 368.274 -228.343L368.421 -228.46C369.101 -227.605 369.776 -226.742 370.447 -225.869L370.297 -225.755C370.963 -224.889 371.623 -224.015 372.279 -223.132L372.43 -223.244C373.086 -222.36 373.738 -221.468 374.385 -220.567L374.232 -220.457C374.867 -219.573 375.497 -218.681 376.122 -217.78L376.277 -217.887C376.901 -216.989 377.52 -216.082 378.135 -215.167L377.979 -215.063C378.593 -214.149 379.202 -213.227 379.806 -212.298L379.964 -212.4C380.557 -211.488 381.146 -210.568 381.729 -209.641L381.57 -209.541C382.153 -208.615 382.731 -207.682 383.305 -206.741L383.465 -206.839C384.039 -205.899 384.607 -204.951 385.171 -203.996L385.009 -203.9C385.561 -202.964 386.109 -202.02 386.653 -201.07L386.816 -201.163C387.36 -200.212 387.899 -199.254 388.433 -198.29L388.268 -198.199C388.801 -197.236 389.33 -196.266 389.853 -195.29L390.019 -195.379C390.534 -194.42 391.044 -193.454 391.549 -192.482L391.382 -192.395C391.886 -191.424 392.386 -190.446 392.881 -189.462L393.05 -189.547C393.545 -188.562 394.036 -187.572 394.522 -186.575L394.352 -186.492C394.829 -185.514 395.301 -184.531 395.768 -183.541L395.938 -183.621C396.406 -182.631 396.868 -181.635 397.326 -180.633L397.155 -180.555C397.613 -179.554 398.066 -178.547 398.514 -177.534L398.686 -177.61C399.127 -176.613 399.563 -175.611 399.995 -174.603L399.822 -174.529C400.253 -173.523 400.679 -172.513 401.1 -171.497L401.274 -171.569C401.695 -170.552 402.112 -169.53 402.523 -168.503L402.349 -168.433C402.755 -167.419 403.157 -166.4 403.554 -165.377L403.729 -165.445C404.124 -164.425 404.515 -163.401 404.901 -162.371L404.725 -162.305C405.11 -161.276 405.491 -160.243 405.867 -159.204L406.044 -159.268C406.417 -158.238 406.785 -157.203 407.149 -156.163L406.971 -156.101C407.332 -155.07 407.687 -154.035 408.038 -152.996L408.216 -153.056C408.568 -152.016 408.914 -150.971 409.256 -149.921L409.077 -149.863C409.417 -148.819 409.752 -147.769 410.083 -146.716L410.262 -146.772C410.589 -145.731 410.911 -144.686 411.228 -143.637L411.048 -143.582C411.365 -142.533 411.678 -141.48 411.985 -140.423L412.166 -140.476C412.474 -139.418 412.777 -138.356 413.075 -137.29L412.894 -137.239C413.188 -136.189 413.477 -135.135 413.762 -134.077L413.943 -134.126C414.228 -133.068 414.507 -132.007 414.782 -130.942L414.6 -130.895C414.875 -129.831 415.144 -128.763 415.41 -127.691L415.592 -127.737C415.856 -126.673 416.114 -125.605 416.368 -124.534L416.185 -124.491C416.437 -123.428 416.684 -122.361 416.926 -121.291L417.11 -121.333C417.352 -120.262 417.59 -119.188 417.823 -118.11L417.639 -118.07C417.872 -116.995 418.1 -115.916 418.323 -114.834L418.507 -114.872C418.727 -113.803 418.943 -112.731 419.154 -111.656L418.969 -111.62C419.18 -110.545 419.386 -109.467 419.588 -108.386L419.773 -108.42C419.974 -107.339 420.171 -106.254 420.363 -105.166L420.178 -105.133C420.368 -104.055 420.553 -102.974 420.734 -101.89L420.92 -101.921C421.1 -100.842 421.275 -99.7606 421.446 -98.6759L421.26 -98.6466C421.43 -97.5625 421.596 -96.4755 421.757 -95.3856L421.943 -95.4132C422.104 -94.324 422.26 -93.232 422.411 -92.1372L422.225 -92.1114C422.374 -91.0306 422.519 -89.947 422.659 -88.8607L422.846 -88.8848C422.986 -87.798 423.121 -86.7085 423.252 -85.6165L423.065 -85.5941C423.196 -84.5026 423.321 -83.4085 423.442 -82.3119L423.63 -82.3325C423.75 -81.2425 423.866 -80.15 423.977 -79.055L423.789 -79.036C423.899 -77.9486 424.005 -76.8587 424.106 -75.7664L424.293 -75.7837C424.394 -74.6909 424.49 -73.5956 424.581 -72.4981L424.394 -72.4825C424.485 -71.3855 424.571 -70.2862 424.653 -69.1846L424.841 -69.1986C424.922 -68.1086 424.998 -67.0164 425.069 -65.922L424.882 -65.9097C424.953 -64.8175 425.02 -63.7231 425.082 -62.6265L425.269 -62.6372C425.331 -61.5401 425.389 -60.4409 425.441 -59.3396L425.253 -59.3307C425.305 -58.2328 425.353 -57.1329 425.396 -56.031L425.584 -56.0383C425.626 -54.9463 425.664 -53.8524 425.697 -52.7565L425.509 -52.7508C425.542 -51.6555 425.57 -50.5583 425.593 -49.4592L425.782 -49.4632C425.805 -48.3636 425.824 -47.262 425.838 -46.1587L425.65 -46.1563C425.657 -45.6049 425.663 -45.053 425.667 -44.5007C425.672 -43.9483 425.675 -43.3963 425.677 -42.8448L425.866 -42.8455C425.87 -41.7421 425.87 -40.6404 425.864 -39.5405L425.676 -39.5414C425.671 -38.4421 425.661 -37.3445 425.646 -36.2488L425.835 -36.2463C425.82 -35.15 425.8 -34.0556 425.776 -32.9631L425.588 -32.9673C425.564 -31.8648 425.534 -30.7642 425.501 -29.6657L425.689 -29.6598C425.655 -28.5578 425.616 -27.4579 425.572 -26.3599L425.384 -26.3674C425.34 -25.27 425.292 -24.1746 425.239 -23.0813L425.427 -23.0722C425.374 -21.9768 425.316 -20.8835 425.253 -19.7923L425.065 -19.8031C425.002 -18.7003 424.934 -17.5997 424.861 -16.5013L425.048 -16.4889C424.975 -15.39 424.898 -14.2933 424.815 -13.1989L424.627 -13.2131C424.545 -12.1193 424.458 -11.0278 424.366 -9.93865L424.553 -9.9228C424.461 -8.8261 424.363 -7.73179 424.261 -6.63991L424.074 -6.65745C423.971 -5.55895 423.863 -4.4629 423.751 -3.3694L423.938 -3.35015C423.826 -2.25606 423.708 -1.16449 423.586 -0.0754953L423.399 -0.0964573C423.277 0.991954 423.151 2.0778 423.019 3.16101L423.206 3.18366C423.073 4.28082 422.935 5.37527 422.793 6.46697L422.606 6.44257C422.463 7.53497 422.316 8.6246 422.163 9.7114L422.35 9.73753C422.197 10.8249 422.04 11.9095 421.878 12.9912L421.692 12.9633C421.529 14.0502 421.362 15.1342 421.19 16.2153L421.376 16.2449C421.202 17.3358 421.023 18.4238 420.84 19.5086L420.654 19.4772C420.471 20.5615 420.283 21.6427 420.09 22.7207L420.275 22.7539C420.082 23.8325 419.885 24.908 419.682 25.9803L419.497 25.9454C419.292 27.0312 419.082 28.1137 418.868 29.1929L419.052 29.2296C418.837 30.3109 418.617 31.3889 418.393 32.4634L418.208 32.4249C417.984 33.4988 417.754 34.5693 417.52 35.6364L417.704 35.6767C417.468 36.752 417.228 37.8237 416.982 38.8918L416.799 38.8497C416.552 39.9257 416.3 40.9981 416.043 42.0667L416.226 42.1107C415.969 43.18 415.707 44.2456 415.44 45.3074L415.258 45.2615C414.991 46.3243 414.719 47.3832 414.443 48.4382L414.625 48.4859C414.345 49.5567 414.059 50.6235 413.769 51.6862L413.588 51.6366C413.298 52.6988 413.003 53.7569 412.703 54.8109L412.884 54.8623C412.584 55.917 412.28 56.9675 411.971 58.0139L411.79 57.9605C411.477 59.0193 411.159 60.0738 410.837 61.124L411.017 61.1793C410.693 62.2341 410.364 63.2845 410.03 64.3305L409.851 64.2733C409.517 65.3187 409.179 66.3596 408.836 67.396L409.014 67.4551C408.668 68.5008 408.317 69.5418 407.961 70.5782L407.783 70.5171C407.425 71.5617 407.061 72.6016 406.693 73.6367L406.87 73.6998C406.502 74.7355 406.128 75.7664 405.75 76.7925L405.573 76.7274C405.193 77.7576 404.809 78.7828 404.42 79.8031L404.595 79.8702C404.201 80.9042 403.801 81.933 403.397 82.9566L403.222 82.8874C402.818 83.9103 402.409 84.928 401.995 85.9404L402.169 86.0117C401.754 87.0267 401.335 88.0364 400.91 89.0406L400.737 88.9674C400.306 89.9872 399.87 91.0016 399.429 92.0102L399.601 92.0856C399.16 93.095 398.714 94.0987 398.263 95.0966L398.092 95.0191C397.641 96.0163 397.186 97.0078 396.726 97.9935L396.896 98.0732C396.427 99.078 395.953 100.077 395.474 101.069L395.304 100.988C394.826 101.98 394.342 102.966 393.854 103.945L394.022 104.029C393.533 105.009 393.04 105.984 392.541 106.951L392.374 106.865C391.867 107.85 391.355 108.828 390.838 109.8L391.004 109.888C390.486 110.862 389.963 111.828 389.435 112.788L389.27 112.698C388.743 113.657 388.211 114.609 387.674 115.555L387.837 115.648C387.29 116.612 386.737 117.569 386.179 118.519L386.017 118.424C385.459 119.374 384.897 120.317 384.33 121.252L384.491 121.35C383.922 122.287 383.349 123.216 382.772 124.138L382.612 124.038C382.023 124.977 381.43 125.909 380.831 126.833L380.989 126.935C380.39 127.86 379.785 128.777 379.176 129.686L379.02 129.581C378.41 130.492 377.794 131.395 377.174 132.29L377.329 132.397C376.697 133.308 376.061 134.211 375.419 135.106L375.266 134.996C374.625 135.89 373.98 136.775 373.329 137.652L373.48 137.764C372.824 138.647 372.164 139.522 371.498 140.388L371.349 140.273C370.675 141.15 369.995 142.018 369.311 142.877L369.458 142.995C368.774 143.854 368.084 144.705 367.389 145.546L367.244 145.426C366.542 146.276 365.835 147.117 365.123 147.948L365.266 148.071C364.547 148.91 363.823 149.74 363.094 150.559L362.953 150.434C362.225 151.253 361.492 152.062 360.754 152.86L360.893 152.988C360.141 153.802 359.384 154.605 358.622 155.398L358.486 155.268C357.723 156.062 356.955 156.846 356.182 157.618L356.316 157.751C355.538 158.528 354.756 159.295 353.97 160.05L353.839 159.914C353.041 160.68 352.238 161.435 351.43 162.178L351.557 162.317C350.748 163.061 349.934 163.794 349.115 164.515L348.991 164.374C348.163 165.103 347.33 165.82 346.493 166.525L346.614 166.669C345.77 167.38 344.92 168.079 344.066 168.765L343.948 168.618C343.094 169.305 342.235 169.979 341.371 170.64L341.485 170.789C340.606 171.463 339.721 172.124 338.832 172.771L338.721 172.619C337.833 173.265 336.94 173.899 336.042 174.519L336.149 174.674C335.242 175.3 334.329 175.914 333.412 176.513L333.309 176.356C332.387 176.959 331.46 177.548 330.529 178.123L330.628 178.283C329.693 178.859 328.754 179.422 327.81 179.97L327.716 179.807C326.761 180.362 325.802 180.902 324.838 181.427L324.928 181.592C323.963 182.118 322.993 182.629 322.018 183.125L321.933 182.957C320.952 183.456 319.966 183.94 318.976 184.408L319.057 184.579C318.061 185.05 317.061 185.505 316.057 185.944L315.981 185.772C314.976 186.212 313.966 186.636 312.952 187.044L313.022 187.219C312 187.63 310.973 188.025 309.942 188.404L309.877 188.227C308.848 188.605 307.815 188.967 306.778 189.311L306.837 189.49C305.792 189.837 304.743 190.168 303.69 190.481L303.636 190.301C302.585 190.614 301.529 190.909 300.47 191.188L300.518 191.37C299.455 191.649 298.388 191.911 297.318 192.156L297.276 191.972C296.207 192.217 295.134 192.444 294.058 192.653L294.093 192.837C293.015 193.047 291.934 193.238 290.849 193.412L290.819 193.226C289.738 193.399 288.653 193.554 287.565 193.691L287.588 193.878C286.498 194.016 285.405 194.135 284.308 194.236L284.291 194.049C283.203 194.149 282.112 194.231 281.017 194.296L281.028 194.483C279.933 194.548 278.834 194.594 277.733 194.621L277.728 194.433C277.178 194.447 276.628 194.456 276.077 194.461C275.525 194.465 274.975 194.465 274.425 194.461L274.423 194.649C273.321 194.64 272.222 194.612 271.126 194.566L271.134 194.378C270.039 194.332 268.946 194.268 267.857 194.186L267.842 194.374C266.744 194.291 265.649 194.19 264.557 194.07L264.577 193.883C263.487 193.764 262.4 193.627 261.316 193.472L261.289 193.659C260.201 193.503 259.116 193.329 258.035 193.138L258.068 192.953C256.988 192.762 255.911 192.553 254.838 192.326L254.799 192.511C253.725 192.284 252.655 192.04 251.587 191.778L251.632 191.595C250.568 191.334 249.508 191.056 248.451 190.761L248.401 190.942C247.343 190.646 246.288 190.334 245.237 190.004L245.294 189.824C244.251 189.497 243.212 189.153 242.177 188.792L242.115 188.97C241.077 188.608 240.044 188.23 239.015 187.836L239.082 187.66C238.062 187.269 237.045 186.862 236.032 186.439L235.96 186.613C234.948 186.19 233.941 185.751 232.938 185.297L233.015 185.125C232.018 184.674 231.024 184.206 230.035 183.723L229.952 183.892C228.97 183.413 227.991 182.918 227.017 182.409L227.105 182.242C226.132 181.733 225.164 181.209 224.2 180.671L224.108 180.835C223.156 180.303 222.207 179.756 221.263 179.195L221.359 179.033C220.418 178.474 219.482 177.9 218.55 177.313L218.449 177.472C217.523 176.888 216.6 176.29 215.682 175.678L215.787 175.522C214.879 174.917 213.976 174.298 213.077 173.667L212.969 173.821C212.068 173.188 211.173 172.543 210.282 171.884L210.394 171.732C209.519 171.086 208.649 170.426 207.784 169.754L207.668 169.903C206.803 169.231 205.942 168.546 205.085 167.849L205.204 167.703C204.355 167.012 203.511 166.309 202.671 165.594L202.549 165.738C201.718 165.03 200.892 164.311 200.071 163.581L200.196 163.44C199.375 162.71 198.56 161.969 197.749 161.216L197.62 161.354C196.821 160.612 196.026 159.859 195.237 159.095L195.367 158.96C194.582 158.2 193.801 157.429 193.025 156.648L192.891 156.781C192.116 156.001 191.346 155.21 190.581 154.409L190.717 154.279C189.966 153.493 189.219 152.696 188.478 151.89L188.339 152.017C187.597 151.21 186.859 150.392 186.126 149.565L186.267 149.44C185.541 148.621 184.82 147.792 184.104 146.954L183.961 147.076C183.252 146.247 182.548 145.408 181.849 144.56L181.995 144.44C181.296 143.592 180.603 142.736 179.914 141.87L179.767 141.987C179.087 141.133 178.411 140.269 177.741 139.397L177.89 139.282C177.225 138.416 176.564 137.542 175.909 136.659L175.758 136.771C175.101 135.888 174.45 134.995 173.803 134.095L173.956 133.985C173.321 133.101 172.691 132.208 172.065 131.307L171.911 131.415C171.287 130.516 170.667 129.61 170.053 128.695L170.209 128.59C169.595 127.676 168.986 126.754 168.381 125.825L168.223 125.928C167.63 125.015 167.042 124.096 166.458 123.169L166.618 123.068C166.035 122.142 165.456 121.209 164.883 120.269L164.722 120.367C164.149 119.426 163.581 118.478 163.017 117.523L163.179 117.427C162.626 116.491 162.078 115.548 161.535 114.597L161.372 114.691C160.828 113.74 160.289 112.782 159.755 111.817L159.919 111.726C159.386 110.763 158.858 109.794 158.334 108.818L158.168 108.907C157.654 107.947 157.144 106.981 156.639 106.009L156.806 105.923C156.301 104.951 155.801 103.974 155.306 102.99L155.138 103.074C154.643 102.09 154.152 101.099 153.666 100.102L153.835 100.02C153.359 99.0418 152.887 98.0581 152.42 97.0685L152.249 97.1488C151.782 96.1586 151.319 95.1624 150.861 94.1606L151.032 94.0823C150.575 93.0812 150.122 92.0743 149.674 91.0617L149.502 91.1379C149.061 90.1408 148.624 89.1383 148.192 88.1303L148.366 88.0562C147.935 87.0508 147.509 86.0401 147.088 85.0241L146.914 85.0962C146.493 84.0795 146.076 83.0574 145.664 82.0302L145.839 81.9602C145.433 80.9465 145.031 79.9278 144.634 78.9041L144.459 78.9722C144.063 77.9526 143.673 76.928 143.287 75.8986L143.463 75.8325C143.078 74.8037 142.697 73.7701 142.321 72.7316L142.144 72.7957C141.771 71.7653 141.402 70.7303 141.039 69.6906L141.216 69.6284C140.856 68.5979 140.5 67.5628 140.15 66.5231L139.971 66.5833C139.62 65.543 139.274 64.4982 138.932 63.4489L139.111 63.3907C138.771 62.346 138.436 61.297 138.105 60.2435L137.925 60.2999C137.599 59.2588 137.277 58.2135 136.959 57.164L137.139 57.1096C136.822 56.0607 136.51 55.0077 136.202 53.9505L136.022 54.0031C135.714 52.9454 135.411 51.8835 135.112 50.8175L135.294 50.7668C135 49.7165 134.71 48.6623 134.426 47.6041L134.244 47.653C133.96 46.5958 133.68 45.5348 133.405 44.4699L133.588 44.4229C133.313 43.3586 133.043 42.2906 132.778 41.2189L132.595 41.2641C132.332 40.2002 132.074 39.1326 131.82 38.0614L132.003 38.018C131.751 36.955 131.504 35.8885 131.262 34.8185L131.078 34.86C130.835 33.7894 130.598 32.7153 130.365 31.6377L130.549 31.5979C130.316 30.5225 130.088 29.4436 129.865 28.3614L129.681 28.3994C129.46 27.3306 129.245 26.2586 129.034 25.1833L129.218 25.147C129.008 24.0723 128.801 22.9944 128.6 21.9134L128.415 21.9479C128.213 20.8662 128.017 19.7814 127.825 18.6936L128.01 18.6608C127.82 17.5828 127.634 16.5017 127.454 15.4177L127.268 15.4486C127.088 14.3698 126.913 13.288 126.742 12.2033L126.928 12.1741C126.758 11.09 126.592 10.003 126.431 8.91309L126.245 8.9406C126.084 7.85143 125.928 6.75942 125.776 5.66463L125.963 5.63886C125.813 4.55799 125.669 3.47442 125.529 2.38819L125.342 2.41225C125.202 1.32545 125.066 0.235995 124.936 -0.856062L125.123 -0.878435C124.992 -1.96993 124.866 -3.06402 124.745 -4.16066L124.558 -4.14001C124.438 -5.23003 124.322 -6.32254 124.211 -7.41754L124.398 -7.43651C124.288 -8.52398 124.183 -9.61388 124.082 -10.7062L123.895 -10.6889C123.794 -11.7817 123.698 -12.8769 123.606 -13.9745L123.794 -13.9901C123.703 -15.087 123.616 -16.1863 123.534 -17.2879L123.347 -17.274C123.266 -18.364 123.19 -19.4562 123.118 -20.5506L123.306 -20.5628C123.235 -21.6551 123.168 -22.7495 123.106 -23.846L122.918 -23.8354C122.856 -24.9325 122.799 -26.0317 122.747 -27.1329L122.935 -27.1419C122.882 -28.2397 122.835 -29.3396 122.792 -30.4416L122.604 -30.4343C122.561 -31.5262 122.524 -32.6202 122.491 -33.716L122.679 -33.7217C122.646 -34.817 122.618 -35.9143 122.594 -37.0134L122.406 -37.0093Z" stroke="#989898" stroke-width="0.376522" stroke-dasharray="3.28 3.28"></path>
    <path d="M199.447 -42.6134C198.899 -108.29 206.778 -167.811 219.954 -210.95C226.543 -232.521 234.453 -249.984 243.288 -262.073C252.126 -274.165 261.866 -280.848 272.111 -280.933C282.357 -281.019 292.206 -274.5 301.245 -262.557C310.281 -250.617 318.481 -233.287 325.428 -211.83C339.323 -168.917 348.193 -109.535 348.741 -43.8589C349.289 21.8176 341.41 81.3388 328.234 124.478C321.645 146.048 313.735 163.512 304.9 175.601C296.062 187.693 286.322 194.375 276.077 194.461C265.831 194.546 255.982 188.027 246.943 176.084C237.907 164.145 229.707 146.815 222.76 125.358C208.865 82.4445 199.995 23.063 199.447 -42.6134Z" stroke="#989898" stroke-width="0.376522"></path>
    <path d="M34.8134 -41.2134C33.7184 -172.474 139.605 -279.774 271.318 -280.873C403.032 -281.972 510.693 -176.453 511.788 -45.1924C512.883 86.0686 406.997 193.368 275.284 194.467C143.57 195.566 35.9084 90.0475 34.8134 -41.2134Z" stroke="#989898" stroke-width="0.376522"></path>
    <path d="M34.6393 -39.6212C34.5904 -40.7198 34.5547 -41.8211 34.5322 -42.9249L34.7204 -42.9287C34.7091 -43.4799 34.7012 -44.0316 34.6966 -44.584C34.692 -45.1363 34.6907 -45.688 34.6928 -46.2392L34.5045 -46.2399C34.5086 -47.3439 34.526 -48.4456 34.5565 -49.545L34.7447 -49.5398C34.7753 -50.6376 34.8189 -51.7331 34.8757 -52.8261L34.6877 -52.8359C34.7448 -53.9372 34.8152 -55.0359 34.8987 -56.1322L35.0864 -56.1179C35.17 -57.2154 35.2668 -58.3104 35.3766 -59.4027L35.1893 -59.4215C35.2992 -60.5153 35.4222 -61.6064 35.5582 -62.6948L35.745 -62.6715C35.8815 -63.7641 36.031 -64.8539 36.1935 -65.9409L36.0074 -65.9687C36.1702 -67.0576 36.3459 -68.1436 36.5345 -69.2267L36.72 -69.1944C36.9084 -70.2764 37.1097 -71.3555 37.3238 -72.4316L37.1392 -72.4683C37.354 -73.5483 37.5816 -74.6253 37.8219 -75.699L38.0057 -75.6579C38.2456 -76.7302 38.4983 -77.7993 38.7635 -78.8653L38.5808 -78.9107C38.8464 -79.9781 39.1246 -81.0422 39.4152 -82.103L39.5968 -82.0532C39.887 -83.1127 40.1897 -84.1687 40.5047 -85.2214L40.3243 -85.2753C40.6397 -86.3294 40.9674 -87.38 41.3074 -88.4271L41.4865 -88.3689C41.8255 -89.413 42.1766 -90.4536 42.5398 -91.4905L42.3621 -91.5527C42.7255 -92.5902 43.1009 -93.6242 43.4883 -94.6544L43.6645 -94.5881C44.0513 -95.617 44.4501 -96.6422 44.8606 -97.6636L44.686 -97.7338C45.0954 -98.7524 45.5164 -99.7671 45.9491 -100.778L46.1222 -100.704C46.5541 -101.713 46.9977 -102.719 47.4526 -103.72L47.2812 -103.798C47.7364 -104.8 48.2029 -105.798 48.6808 -106.792L48.8505 -106.71C49.3252 -107.698 49.8111 -108.681 50.3081 -109.66L50.1402 -109.745C50.6378 -110.726 51.1464 -111.702 51.6661 -112.675L51.8321 -112.586C52.3497 -113.554 52.8781 -114.518 53.4173 -115.478L53.2532 -115.571C53.7903 -116.527 54.3381 -117.479 54.8964 -118.427L55.0586 -118.331C55.6163 -119.278 56.1845 -120.22 56.7633 -121.158L56.603 -121.257C57.1795 -122.192 57.7662 -123.122 58.3633 -124.048L58.5215 -123.946C59.1153 -124.866 59.7193 -125.783 60.3333 -126.695L60.1771 -126.8C60.7918 -127.713 61.4165 -128.622 62.0512 -129.526L62.2053 -129.418C62.8346 -130.314 63.4737 -131.206 64.1225 -132.094L63.9705 -132.205C64.6179 -133.091 65.2751 -133.972 65.9417 -134.849L66.0916 -134.735C66.7575 -135.611 67.4329 -136.482 68.1178 -137.348L67.9701 -137.465C68.6491 -138.324 69.3374 -139.179 70.0348 -140.029L70.1803 -139.91C70.8758 -140.757 71.5803 -141.6 72.2939 -142.439L72.1505 -142.561C72.8648 -143.4 73.588 -144.234 74.3202 -145.064L74.4614 -144.939C75.1845 -145.759 75.9164 -146.573 76.6568 -147.384L76.5178 -147.511C77.2585 -148.321 78.0078 -149.126 78.7655 -149.927L78.9023 -149.798C79.6592 -150.598 80.4246 -151.393 81.1984 -152.183L81.0638 -152.314C81.8288 -153.096 82.6019 -153.872 83.3832 -154.643L83.5155 -154.51C84.2959 -155.28 85.0845 -156.046 85.8811 -156.807L85.751 -156.943C86.5479 -157.705 87.3528 -158.461 88.1656 -159.213L88.2934 -159.074C89.0954 -159.816 89.9051 -160.553 90.7224 -161.284L90.5968 -161.425C91.4149 -162.157 92.2406 -162.884 93.0737 -163.607L93.1971 -163.465C94.0292 -164.186 94.8688 -164.903 95.7158 -165.614L95.5947 -165.758C96.4317 -166.461 97.276 -167.159 98.1274 -167.853L98.2462 -167.707C99.0969 -168.399 99.9547 -169.087 100.82 -169.769L100.703 -169.917C101.569 -170.6 102.441 -171.278 103.321 -171.951L103.435 -171.801C104.303 -172.465 105.177 -173.123 106.058 -173.777L105.946 -173.928C106.827 -174.582 107.716 -175.231 108.61 -175.874L108.72 -175.721C109.614 -176.365 110.515 -177.003 111.422 -177.635L111.315 -177.79C112.212 -178.416 113.116 -179.036 114.026 -179.652L114.131 -179.496C115.039 -180.11 115.953 -180.719 116.874 -181.323L116.77 -181.481C117.691 -182.085 118.619 -182.684 119.552 -183.278L119.653 -183.12C120.577 -183.707 121.506 -184.29 122.441 -184.867L122.342 -185.027C123.275 -185.603 124.214 -186.174 125.159 -186.739L125.256 -186.578C126.2 -187.143 127.15 -187.702 128.105 -188.257L128.011 -188.42C128.959 -188.97 129.914 -189.516 130.874 -190.056L130.966 -189.892C131.921 -190.429 132.88 -190.96 133.845 -191.487L133.755 -191.652C134.721 -192.179 135.692 -192.7 136.669 -193.216L136.757 -193.05C137.728 -193.563 138.704 -194.071 139.686 -194.574L139.6 -194.742C140.575 -195.241 141.554 -195.734 142.539 -196.223L142.622 -196.054C143.606 -196.542 144.595 -197.025 145.589 -197.502L145.508 -197.672C146.501 -198.149 147.499 -198.621 148.502 -199.087L148.581 -198.917C149.572 -199.377 150.568 -199.833 151.569 -200.283L151.492 -200.455C152.493 -200.905 153.499 -201.35 154.51 -201.79L154.585 -201.617C155.595 -202.057 156.609 -202.491 157.628 -202.92L157.555 -203.093C158.565 -203.518 159.579 -203.937 160.597 -204.351L160.668 -204.176C161.683 -204.589 162.703 -204.996 163.727 -205.398L163.658 -205.573C164.683 -205.975 165.712 -206.372 166.745 -206.764L166.812 -206.587C167.838 -206.976 168.869 -207.36 169.904 -207.738L169.84 -207.914C170.869 -208.29 171.901 -208.66 172.938 -209.025L173.001 -208.848C174.037 -209.212 175.078 -209.572 176.122 -209.925L176.061 -210.104C177.105 -210.457 178.153 -210.806 179.205 -211.148L179.263 -210.969C180.302 -211.308 181.346 -211.641 182.392 -211.969L182.336 -212.149C183.384 -212.477 184.435 -212.8 185.49 -213.117L185.544 -212.937C186.599 -213.254 187.657 -213.565 188.718 -213.871L188.666 -214.052C189.72 -214.356 190.777 -214.654 191.838 -214.947L191.888 -214.766C192.944 -215.057 194.004 -215.343 195.067 -215.624L195.019 -215.806C196.082 -216.087 197.149 -216.362 198.219 -216.632L198.265 -216.449C199.332 -216.718 200.403 -216.981 201.477 -217.239L201.433 -217.422C202.497 -217.678 203.564 -217.928 204.634 -218.173L204.676 -217.989C205.746 -218.234 206.819 -218.473 207.895 -218.707L207.855 -218.891C208.932 -219.124 210.012 -219.353 211.095 -219.575L211.133 -219.391C212.206 -219.611 213.283 -219.827 214.362 -220.036L214.326 -220.221C215.403 -220.43 216.482 -220.634 217.563 -220.832L217.597 -220.647C218.679 -220.845 219.763 -221.037 220.85 -221.224L220.818 -221.409C221.904 -221.596 222.992 -221.777 224.084 -221.953L224.114 -221.767C225.193 -221.941 226.276 -222.109 227.361 -222.271L227.333 -222.458C228.418 -222.62 229.507 -222.778 230.598 -222.929L230.623 -222.743C231.714 -222.894 232.807 -223.04 233.902 -223.181L233.878 -223.368C234.967 -223.507 236.059 -223.641 237.153 -223.77L237.175 -223.583C238.262 -223.711 239.352 -223.833 240.445 -223.95L240.425 -224.137C241.518 -224.254 242.613 -224.365 243.711 -224.471L243.729 -224.284C244.826 -224.389 245.925 -224.489 247.027 -224.584L247.011 -224.771C248.101 -224.865 249.194 -224.953 250.289 -225.035L250.303 -224.847C251.396 -224.93 252.492 -225.007 253.589 -225.078L253.577 -225.266C254.675 -225.337 255.775 -225.403 256.878 -225.463L256.888 -225.275C257.987 -225.335 259.087 -225.389 260.19 -225.438L260.182 -225.626C261.275 -225.674 262.371 -225.717 263.468 -225.754L263.475 -225.566C264.571 -225.603 265.67 -225.635 266.77 -225.661L266.766 -225.849C267.867 -225.875 268.97 -225.895 270.075 -225.91L270.077 -225.722C270.63 -225.73 271.182 -225.736 271.735 -225.74C272.288 -225.745 272.841 -225.748 273.393 -225.75L273.392 -225.938C274.497 -225.942 275.6 -225.939 276.702 -225.932L276.7 -225.744C277.801 -225.736 278.9 -225.723 279.997 -225.704L280.001 -225.892C281.098 -225.873 282.194 -225.848 283.288 -225.818L283.283 -225.63C284.387 -225.6 285.488 -225.564 286.588 -225.522L286.595 -225.711C287.698 -225.669 288.799 -225.622 289.898 -225.569L289.889 -225.381C290.988 -225.328 292.084 -225.269 293.179 -225.205L293.19 -225.393C294.286 -225.329 295.38 -225.259 296.472 -225.184L296.459 -224.996C297.562 -224.92 298.663 -224.838 299.762 -224.751L299.777 -224.939C300.876 -224.851 301.973 -224.758 303.068 -224.66L303.051 -224.472C304.145 -224.374 305.237 -224.27 306.326 -224.16L306.345 -224.347C307.441 -224.237 308.535 -224.121 309.626 -224L309.606 -223.812C310.703 -223.69 311.798 -223.563 312.891 -223.429L312.914 -223.616C314.007 -223.482 315.098 -223.343 316.186 -223.199L316.161 -223.012C317.249 -222.868 318.334 -222.718 319.416 -222.562L319.443 -222.748C320.537 -222.591 321.629 -222.428 322.718 -222.259L322.689 -222.073C323.779 -221.905 324.866 -221.73 325.95 -221.551L325.981 -221.736C327.066 -221.556 328.148 -221.371 329.228 -221.18L329.195 -220.994C330.278 -220.803 331.358 -220.605 332.435 -220.403L332.47 -220.588C333.556 -220.383 334.64 -220.173 335.72 -219.957L335.683 -219.773C336.763 -219.557 337.84 -219.336 338.914 -219.109L338.953 -219.293C340.027 -219.067 341.098 -218.834 342.167 -218.597L342.126 -218.413C343.204 -218.173 344.278 -217.927 345.35 -217.676L345.393 -217.859C346.467 -217.607 347.539 -217.35 348.607 -217.087L348.562 -216.904C349.629 -216.641 350.693 -216.373 351.754 -216.099L351.801 -216.282C352.866 -216.006 353.929 -215.726 354.987 -215.44L354.938 -215.258C356.005 -214.97 357.068 -214.676 358.127 -214.376L358.179 -214.558C359.239 -214.258 360.295 -213.953 361.348 -213.642L361.295 -213.462C362.347 -213.151 363.396 -212.835 364.44 -212.514L364.496 -212.694C365.553 -212.369 366.607 -212.038 367.656 -211.702L367.599 -211.523C368.649 -211.186 369.695 -210.845 370.737 -210.497L370.797 -210.676C371.84 -210.328 372.879 -209.975 373.914 -209.617L373.852 -209.439C374.893 -209.078 375.93 -208.712 376.963 -208.341L377.027 -208.518C378.067 -208.144 379.102 -207.764 380.133 -207.379L380.068 -207.203C381.098 -206.818 382.124 -206.428 383.146 -206.032L383.214 -206.208C384.239 -205.811 385.26 -205.409 386.277 -205.001L386.207 -204.826C387.233 -204.415 388.254 -203.998 389.272 -203.575L389.344 -203.749C390.362 -203.326 391.375 -202.898 392.384 -202.464L392.309 -202.291C393.317 -201.858 394.32 -201.419 395.319 -200.975L395.396 -201.147C396.406 -200.697 397.412 -200.242 398.413 -199.782L398.335 -199.611C399.336 -199.15 400.333 -198.684 401.325 -198.212L401.406 -198.382C402.398 -197.91 403.386 -197.433 404.369 -196.95L404.286 -196.781C405.276 -196.295 406.26 -195.803 407.24 -195.306L407.325 -195.474C408.31 -194.975 409.29 -194.469 410.264 -193.959L410.177 -193.792C411.151 -193.282 412.119 -192.766 413.082 -192.245L413.172 -192.411C414.141 -191.887 415.104 -191.357 416.062 -190.823L415.97 -190.658C416.935 -190.12 417.894 -189.576 418.847 -189.027L418.941 -189.19C419.895 -188.64 420.844 -188.085 421.786 -187.525L421.69 -187.363C422.635 -186.802 423.574 -186.235 424.507 -185.663L424.605 -185.823C425.548 -185.245 426.486 -184.661 427.417 -184.072L427.316 -183.913C428.246 -183.325 429.171 -182.731 430.089 -182.132L430.191 -182.29C431.112 -181.689 432.025 -181.084 432.933 -180.473L432.828 -180.317C433.746 -179.699 434.657 -179.076 435.562 -178.448L435.669 -178.603C436.574 -177.974 437.473 -177.34 438.366 -176.701L438.256 -176.548C439.148 -175.909 440.033 -175.265 440.911 -174.616L441.023 -174.768C441.914 -174.11 442.798 -173.447 443.675 -172.778L443.561 -172.628C444.437 -171.96 445.306 -171.287 446.168 -170.609L446.284 -170.757C447.147 -170.078 448.003 -169.394 448.852 -168.705L448.733 -168.559C449.592 -167.862 450.443 -167.159 451.287 -166.452L451.408 -166.596C452.253 -165.888 453.091 -165.174 453.921 -164.455L453.798 -164.313C454.627 -163.595 455.449 -162.872 456.263 -162.144L456.389 -162.284C457.214 -161.547 458.031 -160.804 458.841 -160.056L458.713 -159.918C459.522 -159.17 460.324 -158.417 461.117 -157.66L461.247 -157.796C462.041 -157.037 462.827 -156.274 463.605 -155.506L463.472 -155.372C464.259 -154.595 465.038 -153.812 465.808 -153.025L465.943 -153.157C466.714 -152.369 467.476 -151.576 468.23 -150.778L468.093 -150.649C468.847 -149.851 469.593 -149.049 470.329 -148.242L470.468 -148.369C471.214 -147.551 471.951 -146.729 472.68 -145.902L472.538 -145.777C473.266 -144.951 473.984 -144.12 474.694 -143.284L474.837 -143.406C475.549 -142.568 476.251 -141.725 476.944 -140.877L476.799 -140.758C477.498 -139.903 478.188 -139.043 478.868 -138.178L479.016 -138.295C479.697 -137.429 480.369 -136.559 481.031 -135.684L480.881 -135.571C481.545 -134.694 482.198 -133.813 482.843 -132.927L482.995 -133.038C483.645 -132.144 484.284 -131.246 484.914 -130.343L484.76 -130.236C485.389 -129.334 486.008 -128.428 486.617 -127.517L486.774 -127.622C487.386 -126.706 487.988 -125.786 488.58 -124.861L488.422 -124.759C489.016 -123.831 489.6 -122.898 490.173 -121.961L490.334 -122.059C490.908 -121.121 491.472 -120.178 492.024 -119.231L491.862 -119.136C492.417 -118.185 492.962 -117.23 493.495 -116.27L493.66 -116.362C494.195 -115.398 494.72 -114.43 495.234 -113.458L495.068 -113.37C495.581 -112.4 496.083 -111.425 496.574 -110.445L496.743 -110.53C497.237 -109.544 497.72 -108.554 498.192 -107.56L498.022 -107.479C498.494 -106.485 498.954 -105.487 499.403 -104.485L499.574 -104.562C500.024 -103.559 500.462 -102.551 500.888 -101.54L500.715 -101.466C501.142 -100.452 501.558 -99.4336 501.962 -98.4114L502.137 -98.4805C502.541 -97.4569 502.934 -96.4294 503.315 -95.3981L503.138 -95.3329C503.519 -94.3022 503.887 -93.2676 504.243 -92.2294L504.421 -92.2905C504.779 -91.2492 505.124 -90.2042 505.457 -89.1556L505.278 -89.0986C505.61 -88.0514 505.93 -87.0005 506.238 -85.9461L506.419 -85.9989C506.727 -84.9431 507.023 -83.8837 507.306 -82.8209L507.125 -82.7724C507.407 -81.7111 507.678 -80.6463 507.936 -79.5782L508.119 -79.6224C508.377 -78.5528 508.623 -77.4798 508.855 -76.4035L508.671 -76.3637C508.903 -75.2914 509.123 -74.2158 509.329 -73.137L509.514 -73.1724C509.721 -72.0927 509.915 -71.0097 510.095 -69.9237L509.91 -69.8928C510.09 -68.8087 510.258 -67.7215 510.413 -66.6313L510.599 -66.6578C510.753 -65.5718 510.894 -64.4829 511.023 -63.3911L510.836 -63.3691C510.964 -62.2788 511.079 -61.1856 511.181 -60.0896L511.368 -60.107C511.47 -59.0124 511.559 -57.9149 511.634 -56.8148L511.446 -56.8019C511.521 -55.7099 511.583 -54.6153 511.632 -53.5181L511.82 -53.5265C511.869 -52.4278 511.905 -51.3265 511.927 -50.2228L511.739 -50.2189C511.75 -49.6678 511.758 -49.1161 511.763 -48.5637C511.767 -48.0114 511.769 -47.4596 511.767 -46.9084L511.955 -46.9077C511.951 -45.8037 511.933 -44.702 511.903 -43.6026L511.715 -43.6079C511.684 -42.51 511.64 -41.4145 511.584 -40.3215L511.772 -40.3117C511.715 -39.2105 511.644 -38.1117 511.561 -37.0155L511.373 -37.0297C511.289 -35.9322 511.193 -34.8372 511.083 -33.7449L511.27 -33.7261C511.16 -32.6323 511.037 -31.5412 510.901 -30.4528L510.714 -30.4761C510.578 -29.3835 510.428 -28.2937 510.266 -27.2067L510.452 -27.1789C510.289 -26.09 510.114 -25.004 509.925 -23.921L509.739 -23.9533C509.551 -22.8712 509.35 -21.7921 509.136 -20.716L509.32 -20.6793C509.105 -19.5993 508.878 -18.5224 508.637 -17.4486L508.454 -17.4897C508.214 -16.4174 507.961 -15.3483 507.696 -14.2824L507.879 -14.2369C507.613 -13.1695 507.335 -12.1054 507.044 -11.0446L506.863 -11.0944C506.572 -10.035 506.27 -8.97889 505.955 -7.92624L506.135 -7.87228C505.82 -6.81823 505.492 -5.76763 505.152 -4.72055L504.973 -4.77869C504.634 -3.73463 504.283 -2.69406 503.92 -1.65709L504.097 -1.59487C503.734 -0.557361 503.358 0.476554 502.971 1.50675L502.795 1.44049C502.408 2.46937 502.009 3.49457 501.599 4.51599L501.773 4.58619C501.364 5.60474 500.943 6.61954 500.51 7.63049L500.337 7.55642C499.905 8.56568 499.462 9.57111 499.007 10.5726L499.178 10.6505C498.723 11.6524 498.256 12.6503 497.779 13.6442L497.609 13.5627C497.134 14.5499 496.648 15.5333 496.151 16.5125L496.319 16.5977C495.822 17.5782 495.313 18.5546 494.793 19.5269L494.627 19.4381C494.11 20.4065 493.581 21.3707 493.042 22.3308L493.206 22.423C492.669 23.3792 492.121 24.3313 491.563 25.2791L491.401 25.1835C490.843 26.1302 490.275 27.0727 489.696 28.0108L489.856 28.1097C489.28 29.0441 488.693 29.9743 488.096 30.9001L487.938 30.798C487.344 31.7188 486.74 32.6353 486.126 33.5473L486.282 33.6525C485.668 34.5656 485.043 35.4742 484.408 36.3784L484.254 36.2702C483.625 37.1667 482.986 38.0587 482.337 38.9463L482.489 39.0573C481.841 39.9431 481.184 40.8244 480.518 41.7012L480.368 41.5872C479.702 42.463 479.026 43.3342 478.342 44.2008L478.489 44.3175C477.81 45.1767 477.122 46.0314 476.425 46.8814L476.279 46.762C475.584 47.6096 474.879 48.4526 474.166 49.2909L474.309 49.4129C473.595 50.2521 472.871 51.0865 472.139 51.9162L471.998 51.7916C471.275 52.6111 470.543 53.4258 469.803 54.2359L469.942 54.3629C469.201 55.1732 468.452 55.9788 467.694 56.7795L467.557 56.6501C466.8 57.4499 466.035 58.245 465.261 59.0351L465.396 59.1668C464.631 59.948 463.857 60.7243 463.076 61.4958L462.944 61.3619C462.163 62.1327 461.375 62.8986 460.578 63.6597L460.708 63.7958C459.911 64.5571 459.107 65.3136 458.294 66.065L458.166 65.9268C457.364 66.6683 456.554 67.4049 455.737 68.1367L455.863 68.2769C455.045 69.0093 454.219 69.7368 453.386 70.4592L453.262 70.317C452.43 71.0385 451.591 71.755 450.744 72.4665L450.865 72.6106C450.028 73.3137 449.183 74.0118 448.332 74.705L448.213 74.559C447.363 75.2515 446.505 75.939 445.64 76.6214L445.756 76.7692C444.891 77.4523 444.018 78.1302 443.139 78.803L443.024 78.6535C442.157 79.3171 441.282 79.9756 440.401 80.6291L440.514 80.7803C439.632 81.4341 438.744 82.0829 437.849 82.7266L437.739 82.5738C436.845 83.2169 435.944 83.8549 435.037 84.4877L435.145 84.6421C434.247 85.2679 433.344 85.8887 432.434 86.5044L432.328 86.3484C431.42 86.9627 430.506 87.5718 429.586 88.1758L429.689 88.3332C428.768 88.9376 427.841 89.5368 426.907 90.1308L426.806 89.972C425.883 90.5596 424.953 91.142 424.018 91.7193L424.117 91.8795C423.184 92.4553 422.245 93.026 421.3 93.5914L421.204 93.4299C420.26 93.9949 419.31 94.5547 418.354 95.1092L418.449 95.272C417.5 95.8227 416.545 96.3681 415.585 96.9083L415.493 96.7443C414.539 97.2811 413.579 97.8127 412.614 98.3391L412.704 98.5044C411.738 99.0311 410.767 99.5526 409.791 100.069L409.703 99.9024C408.732 100.416 407.755 100.924 406.773 101.426L406.859 101.594C405.885 102.093 404.905 102.587 403.921 103.075L403.837 102.906C402.853 103.395 401.864 103.877 400.87 104.355L400.952 104.524C399.959 105.002 398.96 105.473 397.957 105.94L397.878 105.769C396.887 106.23 395.891 106.685 394.891 107.135L394.968 107.307C393.967 107.757 392.961 108.203 391.95 108.642L391.875 108.47C390.865 108.909 389.85 109.343 388.831 109.772L388.904 109.945C387.895 110.37 386.881 110.789 385.862 111.203L385.791 111.029C384.776 111.441 383.757 111.849 382.732 112.25L382.801 112.426C381.777 112.828 380.747 113.225 379.714 113.616L379.648 113.44C378.621 113.829 377.59 114.212 376.555 114.59L376.62 114.767C375.591 115.142 374.558 115.513 373.521 115.878L373.459 115.7C372.422 116.065 371.382 116.424 370.338 116.778L370.398 116.956C369.354 117.31 368.306 117.658 367.255 118.001L367.196 117.822C366.157 118.16 365.114 118.494 364.067 118.822L364.123 119.001C363.076 119.329 362.024 119.652 360.969 119.969L360.915 119.789C359.861 120.106 358.803 120.418 357.741 120.724L357.793 120.904C356.739 121.208 355.682 121.507 354.621 121.799L354.571 121.618C353.515 121.909 352.456 122.195 351.393 122.476L351.441 122.658C350.377 122.939 349.31 123.214 348.24 123.484L348.194 123.301C347.127 123.57 346.057 123.834 344.983 124.092L345.027 124.275C343.963 124.53 342.895 124.781 341.825 125.025L341.783 124.842C340.713 125.086 339.64 125.325 338.564 125.559L338.604 125.743C337.527 125.977 336.447 126.205 335.364 126.428L335.327 126.243C334.253 126.464 333.177 126.679 332.097 126.889L332.133 127.074C331.057 127.283 329.978 127.486 328.896 127.684L328.862 127.499C327.781 127.697 326.697 127.889 325.61 128.076L325.642 128.262C324.556 128.448 323.467 128.63 322.376 128.805L322.346 128.619C321.266 128.793 320.184 128.961 319.099 129.124L319.127 129.31C318.041 129.473 316.953 129.63 315.862 129.782L315.836 129.595C314.746 129.747 313.653 129.893 312.557 130.033L312.581 130.22C311.492 130.36 310.401 130.494 309.307 130.622L309.285 130.435C308.197 130.563 307.107 130.686 306.015 130.802L306.035 130.989C304.942 131.106 303.847 131.218 302.749 131.323L302.731 131.136C301.634 131.242 300.534 131.342 299.433 131.436L299.449 131.624C298.358 131.717 297.265 131.805 296.17 131.888L296.156 131.7C295.063 131.782 293.968 131.859 292.87 131.93L292.882 132.118C291.784 132.189 290.684 132.255 289.582 132.315L289.572 132.127C288.473 132.187 287.372 132.241 286.269 132.29L286.277 132.478C285.184 132.526 284.089 132.569 282.991 132.606L282.985 132.418C281.888 132.455 280.79 132.487 279.689 132.513L279.694 132.701C278.592 132.727 277.489 132.748 276.385 132.763L276.382 132.574C275.83 132.582 275.277 132.588 274.724 132.592C274.171 132.597 273.619 132.6 273.067 132.602L273.067 132.79C271.962 132.794 270.859 132.792 269.758 132.784L269.759 132.596C268.658 132.588 267.559 132.575 266.462 132.556L266.459 132.744C265.361 132.725 264.265 132.701 263.171 132.671L263.176 132.483C262.073 132.452 260.971 132.416 259.872 132.375L259.864 132.563C258.761 132.521 257.66 132.474 256.561 132.421L256.57 132.233C255.472 132.18 254.375 132.122 253.281 132.058L253.27 132.245C252.173 132.181 251.079 132.112 249.987 132.036L250 131.848C248.897 131.772 247.796 131.691 246.698 131.603L246.683 131.791C245.583 131.704 244.486 131.611 243.392 131.512L243.408 131.325C242.314 131.226 241.222 131.122 240.133 131.012L240.114 131.2C239.018 131.089 237.924 130.973 236.833 130.852L236.854 130.665C235.756 130.543 234.661 130.415 233.569 130.281L233.546 130.468C232.452 130.335 231.362 130.196 230.273 130.051L230.298 129.865C229.211 129.72 228.126 129.57 227.043 129.414L227.016 129.601C225.922 129.443 224.831 129.28 223.742 129.112L223.771 128.926C222.681 128.757 221.594 128.583 220.509 128.403L220.478 128.589C219.393 128.409 218.311 128.223 217.232 128.032L217.264 127.847C216.182 127.655 215.102 127.458 214.025 127.255L213.99 127.44C212.903 127.236 211.82 127.025 210.739 126.81L210.776 126.625C209.696 126.409 208.619 126.188 207.546 125.962L207.507 126.146C206.432 125.919 205.361 125.687 204.293 125.449L204.334 125.265C203.256 125.025 202.181 124.78 201.11 124.528L201.067 124.712C199.992 124.46 198.921 124.202 197.853 123.939L197.898 123.757C196.83 123.494 195.766 123.225 194.706 122.952L194.659 123.134C193.593 122.859 192.531 122.578 191.472 122.292L191.521 122.11C190.455 121.822 189.392 121.528 188.332 121.229L188.281 121.41C187.221 121.11 186.164 120.805 185.111 120.495L185.165 120.314C184.112 120.004 183.064 119.688 182.019 119.367L181.964 119.546C180.906 119.221 179.853 118.891 178.803 118.554L178.861 118.375C177.811 118.039 176.764 117.697 175.722 117.35L175.663 117.528C174.62 117.181 173.581 116.828 172.546 116.469L172.607 116.291C171.566 115.931 170.529 115.564 169.496 115.193L169.433 115.37C168.393 114.996 167.357 114.617 166.326 114.232L166.392 114.055C165.361 113.67 164.335 113.28 163.313 112.885L163.245 113.06C162.22 112.663 161.199 112.261 160.183 111.853L160.253 111.679C159.227 111.267 158.205 110.85 157.188 110.428L157.116 110.601C156.098 110.179 155.084 109.75 154.076 109.317L154.15 109.144C153.142 108.71 152.139 108.271 151.14 107.827L151.064 107.999C150.053 107.55 149.047 107.095 148.046 106.634L148.125 106.463C147.123 106.002 146.126 105.536 145.134 105.065L145.054 105.235C144.061 104.763 143.073 104.285 142.091 103.803L142.174 103.634C141.184 103.147 140.199 102.656 139.219 102.159L139.134 102.327C138.149 101.827 137.169 101.322 136.195 100.811L136.282 100.644C135.309 100.134 134.34 99.6186 133.377 99.0977L133.288 99.2633C132.319 98.7392 131.355 98.2098 130.397 97.675L130.489 97.5106C129.524 96.9721 128.565 96.4283 127.612 95.8791L127.518 96.0422C126.564 95.4926 125.616 94.9377 124.673 94.3775L124.769 94.2156C123.825 93.6541 122.886 93.0872 121.953 92.5151L121.854 92.6756C120.911 92.0973 119.974 91.5136 119.043 90.9246L119.143 90.7655C118.213 90.177 117.289 89.5832 116.371 88.9842L116.268 89.1419C115.348 88.5415 114.434 87.9359 113.526 87.3251L113.631 87.1689C112.714 86.5513 111.803 85.9285 110.898 85.3003L110.79 85.455C109.885 84.8263 108.986 84.1925 108.094 83.5534L108.203 83.4003C107.312 82.7617 106.426 82.1178 105.548 81.4688L105.436 81.6202C104.545 80.9622 103.662 80.2989 102.785 79.6304L102.899 79.4807C102.023 78.8127 101.154 78.1396 100.291 77.4614L100.175 77.6094C99.3123 76.9305 98.4565 76.2466 97.6078 75.5576L97.7265 75.4114C96.8677 74.7142 96.0163 74.0118 95.1723 73.3042L95.0513 73.4485C94.2062 72.7401 93.3685 72.0265 92.5384 71.3078L92.6616 71.1655C91.8322 70.4475 91.0103 69.7245 90.196 68.9965L90.0706 69.1368C89.2454 68.399 88.428 67.6561 87.6185 66.9082L87.7462 66.7699C86.9371 66.0223 86.1359 65.2696 85.3426 64.5119L85.2126 64.6481C84.4186 63.8897 83.6326 63.1263 82.8547 62.3581L82.987 62.2241C82.2001 61.447 81.4216 60.6648 80.6514 59.8777L80.5169 60.0094C79.7459 59.2214 78.9833 58.4285 78.2292 57.6307L78.366 57.5013C77.6122 56.7038 76.8668 55.9013 76.1301 55.094L75.991 55.2209C75.2452 54.4036 74.5081 53.5813 73.7799 52.7542L73.9212 52.6298C73.1938 51.8035 72.4753 50.9724 71.7658 50.1365L71.6222 50.2583C70.9108 49.4201 70.2083 48.577 69.515 47.7293L69.6608 47.6101C68.9616 46.7551 68.2717 45.8952 67.5912 45.0307L67.4433 45.1471C66.7621 44.2816 66.0904 43.4114 65.4282 42.5366L65.5783 42.4229C64.9149 41.5463 64.261 40.6651 63.6168 39.7792L63.4646 39.89C62.8149 38.9965 62.1751 38.0984 61.5452 37.1957L61.6996 37.088C61.0705 36.1863 60.4513 35.2801 59.8422 34.3693L59.6857 34.4739C59.0733 33.5583 58.4711 32.638 57.8792 31.7133L58.0377 31.6118C57.4434 30.6834 56.8595 29.7506 56.2861 28.8133L56.1255 28.9116C55.5515 27.9732 54.9879 27.0304 54.4349 26.0833L54.5975 25.9884C54.0423 25.0374 53.4979 24.0822 52.9642 23.1226L52.7997 23.2141C52.2639 22.2506 51.739 21.2828 51.2252 20.3108L51.3916 20.2228C50.8784 19.252 50.3762 18.2769 49.8851 17.2977L49.7167 17.3821C49.2223 16.3962 48.7392 15.4062 48.2674 14.4121L48.4375 14.3314C47.9658 13.3376 47.5056 12.3397 47.0569 11.3378L46.8851 11.4147C46.4356 10.4111 45.9976 9.40349 45.5713 8.39191L45.7448 8.3188C45.3173 7.30437 44.9015 6.28597 44.4975 5.2637L44.3224 5.33288C43.9179 4.30927 43.5253 3.28177 43.1447 2.25047L43.3213 2.18529C42.9409 1.15453 42.5724 0.119973 42.2161 -0.918289L42.038 -0.85717C41.6806 -1.89843 41.3354 -2.94341 41.0024 -3.99204L41.1818 -4.04902C40.8493 -5.09627 40.5291 -6.14714 40.2212 -7.20156L40.0405 -7.1488C39.7322 -8.20457 39.4363 -9.26391 39.153 -10.3267L39.3349 -10.3752C39.0519 -11.4365 38.7814 -12.5013 38.5236 -13.5695L38.3406 -13.5253C38.0824 -14.5949 37.8368 -15.6679 37.604 -16.7441L37.788 -16.7839C37.5561 -17.8563 37.3368 -18.9319 37.1303 -20.0106L36.9454 -19.9753C36.7387 -21.055 36.5449 -22.1379 36.3639 -23.2239L36.5497 -23.2549C36.369 -24.339 36.2013 -25.4261 36.0466 -26.5163L35.8602 -26.4898C35.7061 -27.5758 35.5649 -28.6648 35.4367 -29.7566L35.6237 -29.7785C35.4957 -30.8689 35.3807 -31.9621 35.2788 -33.0581L35.0913 -33.0406C34.9896 -34.1353 34.9009 -35.2327 34.8253 -36.3329L35.0132 -36.3458C34.9382 -37.4377 34.8762 -38.5324 34.8274 -39.6295L34.6393 -39.6212Z" stroke="#989898" stroke-width="0.376522" stroke-dasharray="3.28 3.28"></path>
    <path d="M34.856 -33.8666C34.7318 -34.9405 34.6456 -36.019 34.5978 -37.1019L34.7859 -37.1102C34.7622 -37.6494 34.748 -38.1896 34.7435 -38.731C34.7389 -39.2723 34.7441 -39.8126 34.7589 -40.3521L34.5707 -40.3573C34.6003 -41.4408 34.6686 -42.5205 34.7748 -43.5963L34.9622 -43.5778C35.068 -44.649 35.2116 -45.7161 35.3926 -46.7792L35.207 -46.8108C35.3882 -47.8754 35.6067 -48.9357 35.8618 -49.9917L36.0448 -49.9475C36.2967 -50.9899 36.5845 -52.028 36.9077 -53.0616L36.7279 -53.1178C37.0485 -54.1431 37.4037 -55.1639 37.7931 -56.18L37.9689 -56.1126C38.3533 -57.1156 38.771 -58.1141 39.2217 -59.1079L39.0503 -59.1857C39.4913 -60.1581 39.9637 -61.126 40.4671 -62.089L40.6339 -62.0018C41.1316 -62.954 41.6597 -63.9016 42.2177 -64.8443L42.0557 -64.9402C42.5986 -65.8575 43.1697 -66.77 43.7685 -67.6777L43.9257 -67.574C44.5157 -68.4683 45.1328 -69.358 45.7766 -70.2428L45.6243 -70.3536C46.253 -71.2176 46.9069 -72.0769 47.5858 -72.9314L47.7332 -72.8143C48.3985 -73.6517 49.0879 -74.4844 49.8009 -75.3125L49.6583 -75.4353C50.3567 -76.2464 51.0778 -77.0528 51.8212 -77.8544L51.9592 -77.7264C52.6862 -78.5104 53.4347 -79.2899 54.2042 -80.0647L54.0707 -80.1973C54.8252 -80.957 55.5999 -81.7122 56.3946 -82.4627L56.5239 -82.3258C57.3024 -83.0611 58.1001 -83.7919 58.9168 -84.5182L58.7917 -84.6589C59.5909 -85.3696 60.4081 -86.076 61.2431 -86.7778L61.3642 -86.6337C62.1869 -87.3252 63.0269 -88.0123 63.884 -88.695L63.7667 -88.8423C64.6012 -89.5069 65.4518 -90.1673 66.3183 -90.8234L66.432 -90.6733C67.2935 -91.3256 68.1708 -91.9736 69.0637 -92.6172L68.9536 -92.7699C69.8159 -93.3915 70.6927 -94.009 71.5837 -94.6223L71.6904 -94.4672C72.5804 -95.0797 73.4846 -95.6881 74.4028 -96.2922L74.2993 -96.4495C75.1903 -97.0356 76.0944 -97.6177 77.0116 -98.1957L77.1119 -98.0364C78.0209 -98.6092 78.9427 -99.178 79.8771 -99.7427L79.7797 -99.9039C80.7012 -100.461 81.6348 -101.014 82.5806 -101.562L82.6751 -101.4C83.5988 -101.935 84.534 -102.468 85.4807 -102.996L85.3889 -103.16C86.3364 -103.689 87.2954 -104.213 88.2655 -104.734L88.3546 -104.568C89.2925 -105.071 90.2409 -105.571 91.1998 -106.067L91.1133 -106.234C92.0699 -106.729 93.0368 -107.219 94.0139 -107.706L94.0978 -107.538C95.0632 -108.019 96.0384 -108.496 97.0235 -108.969L96.942 -109.139C97.9053 -109.602 98.8779 -110.061 99.8598 -110.517L99.9391 -110.346C100.92 -110.801 101.911 -111.253 102.91 -111.7L102.833 -111.872C103.812 -112.311 104.8 -112.745 105.796 -113.177L105.871 -113.004C106.855 -113.43 107.848 -113.852 108.849 -114.271L108.777 -114.445C109.779 -114.864 110.789 -115.279 111.807 -115.691L111.877 -115.516C112.867 -115.916 113.865 -116.313 114.87 -116.706L114.801 -116.881C115.804 -117.273 116.814 -117.662 117.831 -118.047L117.898 -117.871C118.913 -118.255 119.936 -118.635 120.967 -119.012L120.902 -119.189C121.904 -119.556 122.914 -119.919 123.93 -120.279L123.993 -120.102C125.008 -120.461 126.031 -120.817 127.06 -121.17L126.999 -121.348C128.025 -121.7 129.059 -122.048 130.099 -122.393L130.158 -122.214C131.172 -122.551 132.192 -122.883 133.219 -123.213L133.161 -123.392C134.188 -123.722 135.222 -124.048 136.261 -124.37L136.317 -124.191C137.353 -124.512 138.395 -124.831 139.443 -125.146L139.389 -125.326C140.413 -125.634 141.443 -125.938 142.479 -126.239L142.532 -126.058C143.567 -126.359 144.607 -126.656 145.654 -126.951L145.603 -127.132C146.649 -127.426 147.702 -127.717 148.759 -128.004L148.809 -127.823C149.84 -128.103 150.877 -128.38 151.919 -128.654L151.871 -128.836C152.913 -129.11 153.96 -129.38 155.013 -129.648L155.059 -129.465C156.111 -129.732 157.168 -129.996 158.23 -130.257L158.185 -130.44C159.227 -130.695 160.274 -130.948 161.326 -131.197L161.37 -131.014C162.417 -131.262 163.468 -131.506 164.525 -131.748L164.483 -131.931C165.539 -132.173 166.601 -132.411 167.666 -132.646L167.707 -132.463C168.759 -132.695 169.815 -132.923 170.876 -133.149L170.837 -133.333C171.888 -133.556 172.944 -133.777 174.004 -133.994L174.042 -133.81C175.101 -134.027 176.165 -134.24 177.233 -134.451L177.196 -134.636C178.259 -134.845 179.325 -135.051 180.396 -135.254L180.431 -135.069C181.485 -135.269 182.543 -135.466 183.605 -135.66L183.571 -135.845C184.633 -136.039 185.699 -136.229 186.769 -136.416L186.802 -136.231C187.871 -136.418 188.944 -136.602 190.021 -136.783L189.99 -136.968C191.049 -137.146 192.112 -137.321 193.178 -137.492L193.208 -137.306C194.272 -137.477 195.338 -137.645 196.409 -137.81L196.38 -137.996C197.451 -138.161 198.525 -138.322 199.603 -138.481L199.63 -138.294C200.699 -138.452 201.771 -138.606 202.847 -138.756L202.821 -138.943C203.885 -139.092 204.953 -139.238 206.025 -139.381L206.05 -139.195C207.12 -139.338 208.194 -139.477 209.271 -139.614L209.247 -139.801C210.325 -139.938 211.405 -140.071 212.489 -140.202L212.511 -140.015C213.578 -140.143 214.647 -140.268 215.72 -140.391L215.699 -140.578C216.77 -140.7 217.844 -140.818 218.921 -140.934L218.941 -140.747C220.017 -140.863 221.096 -140.975 222.178 -141.085L222.16 -141.272C223.236 -141.381 224.316 -141.487 225.398 -141.589L225.416 -141.402C226.486 -141.504 227.559 -141.602 228.635 -141.697L228.618 -141.885C229.694 -141.98 230.773 -142.073 231.854 -142.162L231.87 -141.974C232.95 -142.063 234.034 -142.149 235.119 -142.232L235.105 -142.42C236.18 -142.502 237.257 -142.581 238.337 -142.656L238.35 -142.469C239.425 -142.544 240.502 -142.617 241.581 -142.686L241.569 -142.874C242.649 -142.943 243.731 -143.009 244.815 -143.072L244.826 -142.884C245.909 -142.947 246.995 -143.007 248.083 -143.064L248.073 -143.252C249.147 -143.308 250.223 -143.361 251.301 -143.411L251.31 -143.223C252.387 -143.273 253.467 -143.32 254.549 -143.363L254.541 -143.551C255.624 -143.595 256.708 -143.636 257.794 -143.673L257.8 -143.485C258.882 -143.522 259.966 -143.556 261.052 -143.588L261.047 -143.776C262.123 -143.807 263.201 -143.834 264.281 -143.859L264.285 -143.671C265.365 -143.695 266.447 -143.717 267.53 -143.735L267.527 -143.924C268.61 -143.942 269.696 -143.957 270.783 -143.97L270.785 -143.781C271.329 -143.787 271.872 -143.793 272.417 -143.797C272.961 -143.802 273.505 -143.806 274.048 -143.809L274.047 -143.997C275.134 -144.003 276.22 -144.006 277.304 -144.005L277.304 -143.817C278.387 -143.817 279.469 -143.813 280.549 -143.806L280.55 -143.995C281.63 -143.988 282.709 -143.978 283.785 -143.965L283.783 -143.777C284.869 -143.764 285.954 -143.748 287.036 -143.729L287.039 -143.917C288.126 -143.898 289.211 -143.875 290.293 -143.85L290.289 -143.661C291.371 -143.636 292.452 -143.607 293.53 -143.575L293.536 -143.763C294.614 -143.731 295.691 -143.696 296.766 -143.658L296.759 -143.47C297.848 -143.432 298.934 -143.39 300.019 -143.345L300.027 -143.533C301.112 -143.488 302.195 -143.44 303.275 -143.388L303.266 -143.2C304.347 -143.149 305.425 -143.095 306.5 -143.037L306.51 -143.225C307.591 -143.167 308.67 -143.106 309.746 -143.042L309.735 -142.854C310.822 -142.79 311.906 -142.722 312.988 -142.651L313.001 -142.839C314.083 -142.768 315.163 -142.693 316.241 -142.616L316.227 -142.428C317.304 -142.351 318.379 -142.27 319.451 -142.186L319.466 -142.374C320.549 -142.29 321.63 -142.202 322.709 -142.111L322.693 -141.923C323.777 -141.832 324.858 -141.737 325.936 -141.64L325.953 -141.827C327.032 -141.729 328.108 -141.628 329.181 -141.524L329.162 -141.337C330.237 -141.233 331.308 -141.125 332.377 -141.015L332.396 -141.202C333.482 -141.09 334.564 -140.974 335.644 -140.855L335.623 -140.668C336.702 -140.55 337.778 -140.428 338.851 -140.303L338.873 -140.49C339.946 -140.364 341.017 -140.236 342.084 -140.105L342.061 -139.918C343.139 -139.785 344.214 -139.649 345.285 -139.51L345.309 -139.696C346.389 -139.556 347.466 -139.412 348.539 -139.265L348.514 -139.079C349.587 -138.932 350.656 -138.782 351.722 -138.629L351.749 -138.815C352.818 -138.661 353.884 -138.504 354.946 -138.344L354.918 -138.158C355.998 -137.996 357.074 -137.829 358.146 -137.66L358.175 -137.846C359.248 -137.677 360.317 -137.504 361.382 -137.328L361.352 -137.142C362.417 -136.967 363.478 -136.788 364.535 -136.605L364.567 -136.791C365.641 -136.606 366.711 -136.417 367.777 -136.225L367.743 -136.04C368.814 -135.847 369.881 -135.651 370.944 -135.452L370.979 -135.637C372.042 -135.438 373.102 -135.235 374.157 -135.029L374.121 -134.844C375.185 -134.637 376.245 -134.425 377.301 -134.211L377.338 -134.396C378.408 -134.178 379.473 -133.958 380.534 -133.734L380.495 -133.55C381.555 -133.326 382.611 -133.098 383.662 -132.868L383.702 -133.052C384.758 -132.82 385.809 -132.585 386.855 -132.347L386.813 -132.164C387.879 -131.921 388.941 -131.675 389.997 -131.425L390.04 -131.608C391.097 -131.359 392.149 -131.106 393.195 -130.849L393.151 -130.666C394.197 -130.41 395.238 -130.15 396.274 -129.887L396.32 -130.07C397.383 -129.8 398.44 -129.527 399.491 -129.25L399.443 -129.068C400.494 -128.791 401.54 -128.511 402.58 -128.228L402.629 -128.409C403.67 -128.125 404.705 -127.838 405.734 -127.548L405.683 -127.367C406.736 -127.069 407.783 -126.768 408.825 -126.464L408.878 -126.645C409.922 -126.339 410.961 -126.03 411.993 -125.718L411.939 -125.538C412.97 -125.226 413.996 -124.91 415.016 -124.591L415.072 -124.77C416.117 -124.443 417.156 -124.112 418.189 -123.777L418.131 -123.598C419.166 -123.263 420.194 -122.924 421.215 -122.581L421.275 -122.76C422.297 -122.417 423.312 -122.07 424.321 -121.72L424.259 -121.542C425.296 -121.183 426.325 -120.819 427.346 -120.452L427.41 -120.629C428.434 -120.261 429.45 -119.89 430.459 -119.515L430.393 -119.338C431.405 -118.962 432.409 -118.582 433.405 -118.198L433.473 -118.374C434.498 -117.979 435.515 -117.581 436.524 -117.179L436.454 -117.004C437.462 -116.602 438.461 -116.196 439.453 -115.787L439.525 -115.961C440.528 -115.546 441.523 -115.128 442.509 -114.706L442.435 -114.533C443.442 -114.102 444.44 -113.667 445.428 -113.228L445.505 -113.4C446.494 -112.961 447.474 -112.518 448.445 -112.071L448.366 -111.9C449.359 -111.443 450.342 -110.983 451.316 -110.518L451.397 -110.688C452.382 -110.217 453.357 -109.743 454.321 -109.264L454.238 -109.095C455.205 -108.616 456.161 -108.132 457.108 -107.644L457.194 -107.812C458.173 -107.307 459.14 -106.799 460.096 -106.286L460.007 -106.12C460.963 -105.608 461.907 -105.091 462.839 -104.571L462.931 -104.735C463.886 -104.202 464.828 -103.665 465.759 -103.124L465.664 -102.961C466.608 -102.412 467.539 -101.859 468.458 -101.301L468.555 -101.462C469.482 -100.899 470.396 -100.332 471.296 -99.7613L471.195 -99.6023C472.124 -99.0136 473.038 -98.4204 473.938 -97.8228L474.042 -97.9797C474.943 -97.3813 475.83 -96.7786 476.703 -96.1715L476.595 -96.0169C477.499 -95.3883 478.387 -94.755 479.259 -94.1172L479.37 -94.2692C480.247 -93.6277 481.109 -92.9815 481.954 -92.3309L481.84 -92.1817C482.708 -91.5134 483.559 -90.8404 484.393 -90.1627L484.512 -90.3089C485.359 -89.621 486.188 -88.9284 486.998 -88.2311L486.876 -88.0884C487.704 -87.3758 488.514 -86.6584 489.305 -85.9362L489.432 -86.0752C490.239 -85.338 491.026 -84.5959 491.793 -83.8489L491.662 -83.7141C492.444 -82.9522 493.206 -82.1853 493.946 -81.4136L494.082 -81.5439C494.838 -80.7548 495.573 -79.9605 496.285 -79.1612L496.144 -79.036C496.871 -78.22 497.574 -77.3988 498.253 -76.5727L498.398 -76.6922C499.092 -75.8492 499.76 -75.0009 500.403 -74.1475L500.252 -74.0342C500.911 -73.1603 501.543 -72.281 502.147 -71.3967L502.303 -71.5029C502.917 -70.6054 503.503 -69.7025 504.061 -68.7944L503.901 -68.6959C504.474 -67.7626 505.018 -66.824 505.532 -65.8801L505.697 -65.9701C506.216 -65.0157 506.705 -64.0558 507.162 -63.0908L506.992 -63.0102C507.459 -62.0241 507.894 -61.0327 508.295 -60.0362L508.469 -60.1065C508.876 -59.0971 509.248 -58.0824 509.585 -57.0626L509.407 -57.0034C509.747 -55.9753 510.052 -54.9421 510.321 -53.9041L510.504 -53.9513C510.776 -52.8998 511.012 -51.8432 511.211 -50.7818L511.026 -50.7471C511.225 -49.6873 511.386 -48.6226 511.51 -47.5534L511.697 -47.575C511.821 -46.5012 511.908 -45.4227 511.955 -44.3398L511.767 -44.3315C511.791 -43.7923 511.805 -43.252 511.81 -42.7107C511.814 -42.1694 511.809 -41.629 511.794 -41.0896L511.982 -41.0844C511.953 -40.0009 511.885 -38.9211 511.778 -37.8453L511.591 -37.8638C511.485 -36.7927 511.341 -35.7255 511.161 -34.6625L511.346 -34.6309C511.165 -33.5663 510.946 -32.5059 510.691 -31.45L510.508 -31.4942C510.256 -30.4518 509.969 -29.4137 509.645 -28.3801L509.825 -28.3239C509.505 -27.2986 509.149 -26.2778 508.76 -25.2617L508.584 -25.3291C508.2 -24.326 507.782 -23.3275 507.331 -22.3338L507.503 -22.256C507.062 -21.2835 506.589 -20.3157 506.086 -19.3527L505.919 -19.4399C505.421 -18.4877 504.893 -17.5401 504.335 -16.5973L504.497 -16.5015C503.955 -15.5842 503.383 -14.6717 502.785 -13.764L502.627 -13.8677C502.037 -12.9733 501.42 -12.0837 500.777 -11.1989L500.929 -11.0881C500.3 -10.2241 499.646 -9.36478 498.967 -8.5103L498.82 -8.62741C498.155 -7.79003 497.465 -6.95724 496.752 -6.12922L496.895 -6.00636C496.196 -5.19533 495.475 -4.38891 494.732 -3.58726L494.594 -3.71527C493.867 -2.93129 493.118 -2.15183 492.349 -1.37702L492.482 -1.24435C491.728 -0.484674 490.953 0.270488 490.159 1.021L490.029 0.884132C489.251 1.6194 488.453 2.35024 487.636 3.07654L487.761 3.21721C486.962 3.92796 486.145 4.63431 485.31 5.33616L485.189 5.19205C484.366 5.88352 483.526 6.57064 482.669 7.25331L482.786 7.40057C481.952 8.06523 481.101 8.72565 480.235 9.38171L480.121 9.23162C479.26 9.8839 478.382 10.5319 477.489 11.1755L477.6 11.3282C476.737 11.9498 475.86 12.5673 474.969 13.1806L474.863 13.0255C473.973 13.638 473.069 14.2464 472.15 14.8505L472.254 15.0078C471.363 15.5939 470.459 16.176 469.542 16.754L469.441 16.5947C468.532 17.1675 467.61 17.7364 466.676 18.3011L466.773 18.4622C465.852 19.019 464.918 19.5719 463.973 20.1207L463.878 19.9578C462.954 20.4938 462.019 21.0259 461.072 21.554L461.164 21.7184C460.217 22.247 459.258 22.7717 458.288 23.2923L458.199 23.1265C457.261 23.6298 456.312 24.1294 455.353 24.6251L455.44 24.7923C454.483 25.2869 453.516 25.7777 452.539 26.2645L452.455 26.096C451.49 26.5771 450.515 27.0543 449.53 27.5277L449.611 27.6974C448.648 28.1604 447.675 28.6196 446.693 29.0751L446.614 28.9043C445.633 29.3595 444.643 29.8109 443.643 30.2585L443.72 30.4304C442.741 30.8689 441.753 31.3037 440.757 31.7349L440.682 31.5621C439.698 31.9881 438.705 32.4105 437.704 32.8293L437.776 33.0029C436.775 33.422 435.765 33.8373 434.746 34.249L434.676 34.0744C433.686 34.4746 432.688 34.8712 431.683 35.2643L431.752 35.4396C430.749 35.8317 429.739 36.2201 428.722 36.605L428.655 36.429C427.64 36.8131 426.617 37.1937 425.587 37.5706L425.651 37.7474C424.649 38.1142 423.639 38.4775 422.623 38.8374L422.56 38.6599C421.545 39.0196 420.522 39.3758 419.493 39.7284L419.554 39.9065C418.528 40.2583 417.494 40.6066 416.455 40.9513L416.395 40.7726C415.381 41.1088 414.361 41.4416 413.334 41.771L413.392 41.9503C412.365 42.2799 411.332 42.6061 410.292 42.9288L410.236 42.749C409.2 43.0708 408.158 43.3891 407.11 43.7039L407.164 43.8842C406.14 44.1919 405.11 44.4962 404.074 44.7972L404.022 44.6165C402.986 44.9173 401.946 45.2148 400.9 45.5089L400.95 45.6902C399.904 45.9844 398.852 46.2753 397.794 46.5627L397.745 46.381C396.713 46.6613 395.676 46.9384 394.635 47.2122L394.682 47.3943C393.64 47.6682 392.593 47.9388 391.54 48.2061L391.494 48.0236C390.442 48.2908 389.385 48.5546 388.323 48.815L388.368 48.9979C387.326 49.2535 386.279 49.5059 385.227 49.7551L385.184 49.5719C384.137 49.8199 383.085 50.0647 382.029 50.3062L382.071 50.4897C381.014 50.7313 379.953 50.9697 378.887 51.2047L378.846 51.0209C377.794 51.2528 376.738 51.4816 375.677 51.7071L375.716 51.8913C374.665 52.1148 373.609 52.3352 372.549 52.5523L372.511 52.3678C371.452 52.5849 370.388 52.7987 369.32 53.0092L369.357 53.1939C368.294 53.4034 367.228 53.6097 366.157 53.8127L366.122 53.6278C365.068 53.8277 364.01 54.0244 362.948 54.218L362.982 54.4032C361.92 54.5969 360.854 54.7873 359.784 54.9746L359.751 54.7891C358.682 54.9763 357.609 55.1602 356.532 55.341L356.563 55.5266C355.504 55.7044 354.441 55.8791 353.375 56.0505L353.345 55.8647C352.282 56.0357 351.215 56.2035 350.144 56.3682L350.173 56.5543C349.102 56.7191 348.028 56.8806 346.951 57.039L346.923 56.8528C345.854 57.0099 344.782 57.1638 343.706 57.3146L343.733 57.5011C342.668 57.6504 341.6 57.7965 340.529 57.9396L340.504 57.753C339.433 57.896 338.359 58.0358 337.282 58.1725L337.306 58.3593C336.228 58.496 335.148 58.6296 334.064 58.76L334.042 58.5731C332.975 58.7014 331.906 58.8267 330.833 58.9488L330.855 59.1359C329.783 59.2579 328.709 59.3768 327.633 59.4926L327.612 59.3054C326.536 59.4211 325.457 59.5337 324.375 59.6431L324.394 59.8305C323.317 59.9394 322.237 60.0451 321.155 60.1478L321.137 59.9604C320.067 60.0619 318.994 60.1603 317.918 60.2557L317.935 60.4432C316.859 60.5386 315.78 60.6309 314.699 60.72L314.684 60.5324C313.603 60.6215 312.52 60.7075 311.434 60.7903L311.448 60.978C310.373 61.0601 309.296 61.139 308.216 61.2148L308.203 61.027C307.128 61.1025 306.051 61.1749 304.972 61.2441L304.984 61.432C303.904 61.5013 302.822 61.5675 301.738 61.6306L301.727 61.4427C300.644 61.5057 299.558 61.5656 298.47 61.6224L298.48 61.8104C297.406 61.8664 296.33 61.9194 295.252 61.9693L295.243 61.7812C294.166 61.8311 293.086 61.8779 292.004 61.9215L292.012 62.1096C290.93 62.1533 289.845 62.1939 288.759 62.2314L288.753 62.0432C287.671 62.0805 286.587 62.1148 285.501 62.1458L285.507 62.334C284.43 62.3648 283.352 62.3926 282.272 62.4172L282.268 62.229C281.188 62.2537 280.107 62.2752 279.023 62.2937L279.026 62.4819C277.943 62.5004 276.857 62.5157 275.77 62.5279L275.768 62.3397C275.225 62.3458 274.681 62.3511 274.136 62.3557C273.592 62.3602 273.048 62.364 272.505 62.3669L272.506 62.5552C271.419 62.5611 270.333 62.5639 269.249 62.5635L269.249 62.3752C268.166 62.3748 267.084 62.3713 266.004 62.3647L266.003 62.553C264.923 62.5463 263.844 62.5366 262.768 62.5237L262.77 62.3355C261.684 62.3225 260.599 62.3064 259.517 62.2871L259.514 62.4753C258.427 62.456 257.342 62.4335 256.26 62.4079L256.264 62.2197C255.182 62.1941 254.101 62.1653 253.023 62.1334L253.017 62.3216C251.939 62.2897 250.862 62.2547 249.787 62.2166L249.794 62.0284C248.705 61.9898 247.619 61.948 246.534 61.9031L246.527 62.0912C245.441 62.0462 244.359 61.9981 243.278 61.9468L243.287 61.7587C242.207 61.7075 241.128 61.6531 240.053 61.5955L240.043 61.7835C238.962 61.7257 237.883 61.6648 236.807 61.6007L236.818 61.4128C235.731 61.3481 234.647 61.2802 233.565 61.2091L233.552 61.397C232.47 61.3259 231.39 61.2516 230.312 61.1742L230.326 60.9864C229.249 60.909 228.174 60.8285 227.102 60.7448L227.088 60.9325C226.004 60.8479 224.923 60.7602 223.844 60.6693L223.86 60.4817C222.776 60.3903 221.695 60.2957 220.617 60.198L220.6 60.3855C219.521 60.2877 218.446 60.1867 217.373 60.0826L217.391 59.8952C216.316 59.791 215.245 59.6835 214.176 59.573L214.157 59.7603C213.071 59.648 211.989 59.5324 210.909 59.4137L210.93 59.2266C209.851 59.1079 208.775 58.9859 207.702 58.8608L207.68 59.0478C206.607 58.9227 205.536 58.7943 204.469 58.6628L204.492 58.476C203.414 58.3432 202.34 58.2071 201.268 58.0678L201.244 58.2545C200.164 58.1141 199.087 57.9705 198.014 57.8236L198.039 57.6371C196.966 57.4903 195.897 57.3403 194.831 57.187L194.804 57.3734C193.735 57.2197 192.669 57.0628 191.607 56.9027L191.635 56.7166C190.556 56.5538 189.48 56.3878 188.407 56.2185L188.378 56.4045C187.305 56.2351 186.236 56.0624 185.171 55.8865L185.201 55.7008C184.136 55.525 183.075 55.3459 182.018 55.1636L181.986 55.3491C180.912 55.164 179.842 54.9755 178.777 54.7838L178.81 54.5985C177.739 54.4058 176.672 54.2098 175.609 54.0104L175.574 54.1955C174.511 53.9961 173.451 53.7934 172.396 53.5874L172.432 53.4026C171.368 53.1948 170.308 52.9837 169.252 52.7693L169.215 52.9538C168.145 52.7366 167.08 52.516 166.019 52.2921L166.058 52.1079C164.998 51.884 163.943 51.6568 162.892 51.4263L162.851 51.6102C161.796 51.3786 160.744 51.1437 159.698 50.9055L159.74 50.7219C158.674 50.4792 157.613 50.2331 156.556 49.9835L156.513 50.1667C155.456 49.917 154.405 49.6639 153.358 49.4074L153.403 49.2246C152.356 48.9682 151.315 48.7085 150.279 48.4454L150.233 48.6279C149.171 48.3581 148.114 48.0849 147.062 47.8081L147.11 47.6261C146.059 47.3495 145.014 47.0694 143.974 46.7858L143.924 46.9675C142.884 46.6838 141.849 46.3967 140.819 46.1061L140.87 45.9249C139.817 45.6276 138.77 45.3267 137.728 45.0223L137.676 45.203C136.631 44.8977 135.592 44.5888 134.56 44.2764L134.614 44.0962C133.583 43.7839 132.557 43.4682 131.537 43.149L131.481 43.3286C130.436 43.0013 129.397 42.6703 128.364 42.3357L128.423 42.1566C127.388 41.8211 126.359 41.4821 125.338 41.1394L125.278 41.3179C124.256 40.975 123.241 40.6286 122.232 40.2786L122.294 40.1007C121.258 39.741 120.228 39.3776 119.207 39.0104L119.143 39.1876C118.119 38.8197 117.103 38.4482 116.094 38.0729L116.16 37.8965C115.148 37.5202 114.144 37.1403 113.148 36.7567L113.08 36.9324C112.055 36.5378 111.038 36.1393 110.03 35.7371L110.099 35.5622C109.091 35.1602 108.092 34.7545 107.1 34.3449L107.028 34.5189C106.025 34.1045 105.03 33.6861 104.044 33.264L104.118 33.0909C103.111 32.66 102.113 32.2252 101.125 31.7865L101.048 31.9586C100.059 31.5195 99.0789 31.0765 98.108 30.6297L98.1868 30.4587C97.1939 30.0018 96.2108 29.5409 95.2376 29.076L95.1564 29.2459C94.1714 28.7754 93.1964 28.3008 92.2317 27.8223L92.3153 27.6536C91.3484 27.174 90.3917 26.6903 89.4456 26.2027L89.3593 26.37C88.3806 25.8657 87.413 25.3571 86.4568 24.8443L86.5458 24.6784C85.5905 24.1661 84.6465 23.6497 83.714 23.1293L83.6223 23.2937C82.6675 22.7607 81.7247 22.2235 80.7941 21.6821L80.8888 21.5194C79.945 20.9704 79.0139 20.417 78.0955 19.8594L77.9978 20.0203C77.0711 19.4577 76.1574 18.8908 75.2568 18.3196L75.3577 18.1606C74.4295 17.5719 73.5153 16.9788 72.6152 16.3812L72.5111 16.538C71.61 15.9397 70.723 15.3369 69.8505 14.7298L69.958 14.5753C69.0545 13.9466 68.1665 13.3133 67.2942 12.6755L67.1831 12.8275C66.3057 12.186 65.4442 11.5398 64.5987 10.8892L64.7135 10.74C63.8452 10.0717 62.9939 9.39872 62.1598 8.72107L62.0411 8.86719C61.1944 8.17937 60.3656 7.48674 59.5546 6.78943L59.6774 6.64668C58.8487 5.93412 58.0389 5.21669 57.2482 4.49451L57.1213 4.63352C56.3142 3.89637 55.5269 3.15424 54.7598 2.40726L54.8912 2.27238C54.1088 1.51052 53.3475 0.74365 52.6075 -0.028086L52.4716 0.10221C51.7149 -0.686923 50.9805 -1.48119 50.2686 -2.28047L50.4092 -2.40568C49.6824 -3.22169 48.9793 -4.04285 48.3001 -4.86901L48.1546 -4.74945C47.4616 -5.59249 46.7934 -6.44078 46.1505 -7.29418L46.3008 -7.40747C45.6424 -8.28143 45.0105 -9.16066 44.4057 -10.045L44.2503 -9.93873C43.6364 -10.8363 43.0501 -11.7392 42.492 -12.6472L42.6524 -12.7458C42.0788 -13.6791 41.535 -14.6177 41.0214 -15.5615L40.8561 -15.4715C40.3367 -16.426 39.8482 -17.3858 39.391 -18.3508L39.5611 -18.4314C39.0939 -19.4175 38.6595 -20.4089 38.2585 -21.4054L38.0838 -21.3352C37.6776 -22.3446 37.3054 -23.3593 36.9677 -24.3791L37.1465 -24.4383C36.8061 -25.4664 36.501 -26.4995 36.2318 -27.5376L36.0496 -27.4903C35.7769 -28.5419 35.5407 -29.5985 35.3418 -30.6599L35.5268 -30.6946C35.3281 -31.7544 35.1667 -32.8191 35.0431 -33.8883L34.856 -33.8666Z" stroke="#989898" stroke-width="0.376522" stroke-dasharray="3.28 3.28"></path>
    <circle cx="276.069" cy="193.395" r="3.76281" transform="rotate(179.522 276.069 193.395)" fill="#DE267E"></circle>
    <circle cx="275.814" cy="62.9477" r="2.09045" transform="rotate(179.522 275.814 62.9477)" fill="#DE267E"></circle>
    <circle cx="472.142" cy="89.0499" r="2.09045" transform="rotate(179.522 472.142 89.0499)" fill="#DE267E"></circle>
    <circle cx="401.451" cy="134.057" r="2.09045" transform="rotate(179.522 401.451 134.057)" fill="#DE267E"></circle>
    <circle cx="151.865" cy="140.077" r="2.09045" transform="rotate(179.522 151.865 140.077)" fill="#DE267E"></circle>
    <circle cx="217.636" cy="105.244" r="2.09045" transform="rotate(179.522 217.636 105.244)" fill="#DE267E"></circle>
  </g>
</svg>
