<?xml version="1.0" encoding="UTF-8"?>
<svg xmlns="http://www.w3.org/2000/svg" width="79" height="80" viewBox="0 0 79 80" fill="none">
  <path d="M5.19531 55.485C12.1988 47.9284 21.7073 43.2843 32.1805 43.2843C42.6537 43.2843 52.1622 47.9284 59.1657 55.485M45.6731 22.1648C45.6731 29.7454 39.6323 35.8907 32.1805 35.8907C24.7288 35.8907 18.6879 29.7454 18.6879 22.1648C18.6879 14.5842 24.7288 8.43896 32.1805 8.43896C39.6323 8.43896 45.6731 14.5842 45.6731 22.1648Z" stroke="#8DB0A9" stroke-width="1.2" stroke-linecap="round" stroke-linejoin="round"></path>
  <path d="M40.2397 50.7788L60.2098 28.439L56.013 41.7746C55.8103 42.4189 56.2914 43.0748 56.9669 43.0748H71.4592C72.3404 43.0748 72.7908 44.1319 72.1804 44.7674L46.1657 71.8556L52.446 53.7734C52.6717 53.1236 52.1892 52.4453 51.5013 52.4453H40.9852C40.1211 52.4453 39.6637 51.4231 40.2397 50.7788Z" fill="white" stroke="#416F6C"></path>
</svg>
