<?xml version="1.0" encoding="UTF-8"?>
<svg xmlns="http://www.w3.org/2000/svg" width="63" height="65" viewBox="0 0 63 65" fill="none">
  <g clip-path="url(#clip0_3992_2831)">
    <path fill-rule="evenodd" clip-rule="evenodd" d="M11.149 15.6138H15.9652V10.8377C15.9652 10.5532 16.1906 10.3296 16.4776 10.3296C16.7645 10.3296 16.9899 10.5532 16.9899 10.8377V15.6138H26.6223V10.8377C26.6223 10.5532 26.8478 10.3296 27.1347 10.3296C27.4216 10.3296 27.647 10.5532 27.647 10.8377V15.6138H37.2794V10.8377C37.2794 10.5532 37.5049 10.3296 37.7918 10.3296C38.0787 10.3296 38.3042 10.5532 38.3042 10.8377V15.6138H43.1204C46.338 15.6138 48.9408 18.1949 48.9408 21.3858V26.1619H53.757C54.0439 26.1619 54.2694 26.3855 54.2694 26.67C54.2694 26.9545 54.0439 27.1781 53.757 27.1781H48.9408V36.7304H53.757C54.0439 36.7304 54.2694 36.9539 54.2694 37.2385C54.2694 37.523 54.0439 37.7465 53.757 37.7465H48.9408V47.2988H53.757C54.0439 47.2988 54.2694 47.5224 54.2694 47.8069C54.2694 48.0914 54.0439 48.315 53.757 48.315H48.9408V53.0911C48.9408 56.282 46.338 58.8631 43.1204 58.8631H38.3042V63.6392C38.3042 63.9237 38.0787 64.1473 37.7918 64.1473C37.5049 64.1473 37.2794 63.9237 37.2794 63.6392V58.8631H27.647V63.6392C27.647 63.9237 27.4216 64.1473 27.1347 64.1473C26.8478 64.1473 26.6223 63.9237 26.6223 63.6392V58.8631H16.9899V63.6392C16.9899 63.9237 16.7645 64.1473 16.4776 64.1473C16.1906 64.1473 15.9652 63.9237 15.9652 63.6392V58.8631H11.149C7.93136 58.8631 5.32856 56.282 5.32856 53.0911V48.315H0.512362C0.225439 48.315 0 48.0914 0 47.8069C0 47.5224 0.225439 47.2988 0.512362 47.2988H5.32856V37.7465H0.512362C0.225439 37.7465 0 37.523 0 37.2385C0 36.9539 0.225439 36.7304 0.512362 36.7304H5.32856V27.1781H0.512362C0.225439 27.1781 0 26.9545 0 26.67C0 26.3855 0.225439 26.1619 0.512362 26.1619H5.32856V21.3858C5.32856 18.1949 7.93136 15.6138 11.149 15.6138ZM6.33279 21.4061V53.0911C6.33279 55.7332 8.48471 57.8672 11.149 57.8672H43.0999C45.7642 57.8672 47.9161 55.7332 47.9161 53.0911V21.4061C47.9161 18.764 45.7642 16.63 43.0999 16.63H11.149C8.48471 16.63 6.33279 18.764 6.33279 21.4061ZM37.2794 27.1781H16.9899V47.2988H37.2794V27.1781ZM15.9652 26.67C15.9652 26.3855 16.1906 26.1619 16.4776 26.1619H37.7713C38.0582 26.1619 38.2837 26.3855 38.2837 26.67V47.7866C38.2837 48.0711 38.0582 48.2947 37.7713 48.2947H16.4776C16.1906 48.2947 15.9652 48.0711 15.9652 47.7866V26.67Z" fill="#416F6C"></path>
    <path fill-rule="evenodd" clip-rule="evenodd" d="M53.84 47.238C55.5 46.486 56.6477 44.8194 56.6477 42.8887V11.2037C56.6477 8.56156 54.4958 6.42755 51.8315 6.42755H22.5039V5.43168H24.7173V0.655559C24.7173 0.371024 24.9427 0.147461 25.2297 0.147461C25.5166 0.147461 25.742 0.371024 25.742 0.655559V5.43168H35.3744V0.655559C35.3744 0.371024 35.5999 0.147461 35.8868 0.147461C36.1737 0.147461 36.3992 0.371024 36.3992 0.655559V5.43168H46.0316V0.655559C46.0316 0.371024 46.257 0.147461 46.5439 0.147461C46.8308 0.147461 47.0563 0.371024 47.0563 0.655559V5.43168H51.8725C55.0901 5.43168 57.6929 8.01282 57.6929 11.2037V15.9798H62.5091C62.796 15.9798 63.0215 16.2034 63.0215 16.4879C63.0215 16.7724 62.796 16.996 62.5091 16.996H57.6929V26.5482H62.5091C62.796 26.5482 63.0215 26.7718 63.0215 27.0563C63.0215 27.3409 62.796 27.5644 62.5091 27.5644H57.6929V37.1167H62.5091C62.796 37.1167 63.0215 37.3402 63.0215 37.6248C63.0215 37.9093 62.796 38.1329 62.5091 38.1329H57.6929V42.909C57.6929 45.4088 56.0943 47.5225 53.8809 48.3355V47.2583L53.84 47.238Z" fill="#8DB0A9"></path>
  </g>
  <defs>
    <clipPath id="clip0_3992_2831">
      <rect width="63" height="64" fill="white" transform="translate(0 0.147461)"></rect>
    </clipPath>
  </defs>
</svg>
