<?xml version="1.0" encoding="UTF-8"?>
<svg xmlns="http://www.w3.org/2000/svg" width="60" height="67" viewBox="0 0 60 67" fill="none">
  <path d="M18.3699 42.5437L22.5999 45.8537L34.1999 33.8337M24.7498 14.2837C24.7498 14.2837 32.0996 24.0037 48.0696 21.6437C48.0696 21.6437 56.2096 58.5537 24.7396 65.6437C-6.73043 58.5937 1.45979 21.6437 1.45979 21.6437C17.4298 23.9637 24.7498 14.2837 24.7498 14.2837Z" stroke="#416F6C" stroke-linecap="round" stroke-linejoin="round"></path>
  <mask id="mask0_3534_8612" style="mask-type:alpha" maskUnits="userSpaceOnUse" x="0" y="0" width="60" height="47">
    <path d="M26.5 8.38477C20.1 17.9848 6.16667 17.3848 0 15.8848L2.49805 0.78418L59.9961 0.650879L59 34.9009C59 34.9009 55.1953 39.6927 52.724 43.0028C52.3977 44.0664 51.9947 44.89 51.5 45.3848C49.8008 47.084 50.8987 45.4476 52.724 43.0028C55.0359 35.4671 53.5 15.8848 53.5 15.8848C40.3 19.8848 30 12.5514 26.5 8.38477Z" fill="#D9D9D9"></path>
  </mask>
  <g mask="url(#mask0_3534_8612)">
    <path d="M26.3699 30.6453L30.5999 33.9553L42.1999 21.9353M32.7498 2.38525C32.7498 2.38525 40.0996 12.1052 56.0696 9.74524C56.0696 9.74524 64.2096 46.6552 32.7396 53.7452C1.26957 46.6952 9.45979 9.74524 9.45979 9.74524C25.4298 12.0652 32.7498 2.38525 32.7498 2.38525Z" stroke="#8DB0A9" stroke-linecap="round" stroke-linejoin="round"></path>
  </g>
</svg>
