<?xml version="1.0" encoding="UTF-8"?>
<svg width="589px" height="127px" viewBox="0 0 589 127" version="1.1" xmlns="http://www.w3.org/2000/svg" xmlns:xlink="http://www.w3.org/1999/xlink">
    <title>VM - White@1x</title>
    <g id="Page-2" stroke="none" stroke-width="1" fill="none" fill-rule="evenodd">
        <g id="Desktop-Copy-61" transform="translate(-1146.000000, -207.000000)" fill="#FFFFFF" fill-rule="nonzero">
            <path d="M1254.74551,207.956914 L1199.62837,334 L1187.52837,334 L1170.08053,300.999914 L1188.49453,300.999914 L1193.41597,309.752515 L1237.94551,207.956914 L1254.74551,207.956914 Z M1259.6,256 L1295.56697,334 L1278.96697,334 L1270.1,315.1 L1238.2,315.1 L1230.42405,334 L1213.92405,334 L1247.4,256 L1259.6,256 Z M1253.8,279 L1244.2,300.7 L1264,300.7 L1253.8,279 Z M1180.05953,285.999914 L1186.24453,296.999914 L1167.96653,296.999914 L1162.15053,285.999914 L1180.05953,285.999914 Z M1171.62453,270.999914 L1177.81053,281.999914 L1160.03653,281.999914 L1154.22053,270.999914 L1171.62453,270.999914 Z M1163.19053,256 L1169.37553,266.999914 L1152.10553,266.999914 L1146.29053,256 L1163.19053,256 Z M1320.96697,319.3 L1360.06697,319.3 L1360.06697,334 L1305.56697,334 L1305.56697,256 L1320.96697,256 L1320.96697,319.3 Z M1370.06697,256 L1385.46697,256 L1385.76697,334 L1370.36697,334 L1370.06697,256 Z M1395.76697,256 L1422.66697,256 C1431.26697,256 1438.73364,257.55 1445.06697,260.65 C1451.40031,263.75 1456.23364,268.233333 1459.56697,274.1 C1462.90031,280.033333 1464.56697,287 1464.56697,295 C1464.56697,307.533333 1460.95031,317.166667 1453.71697,323.9 C1446.48364,330.633333 1436.13364,334 1422.66697,334 L1395.76697,334 L1395.76697,256 Z M1421.76697,319.3 C1431.36697,319.3 1438.31697,317.383333 1442.61697,313.55 C1446.91697,309.716667 1449.06697,303.533333 1449.06697,295 C1449.06697,286.733333 1446.83364,280.616667 1442.36697,276.65 C1437.90031,272.683333 1431.03364,270.7 1421.76697,270.7 L1411.16697,270.7 L1411.16697,319.3 L1421.76697,319.3 Z M1482.70126,334 L1474.56697,334 L1474.56697,256 L1482.70126,256 L1510.89269,298.231429 L1539.08412,256 L1547.10697,256 L1547.10697,334 L1538.97269,334 L1539.30697,268.48 L1513.45554,308.148571 L1508.44126,308.148571 L1482.25554,268.814286 L1482.70126,334 Z M1570.68697,334 L1562.44126,334 L1562.10697,256 L1570.35269,256 L1570.68697,334 Z M1593.70983,334 L1585.68697,334 L1587.02412,256 L1594.15554,256 L1642.06983,319.737143 L1643.74126,256 L1651.76412,256 L1649.7584,334 L1642.7384,334 L1594.82412,270.04 L1593.70983,334 Z M1666.32412,256 L1691.93596,256 C1705.50613,256 1715.96337,259.38 1723.30767,266.14 C1730.65197,272.9 1734.32412,282.52 1734.32412,295 C1734.32412,307.777143 1730.68925,317.471429 1723.41951,324.082857 C1716.14977,330.694286 1705.65526,334 1691.93596,334 L1666.32412,334 L1666.32412,256 Z M1691.54634,327 C1703.32412,327 1712.06486,324.439929 1717.76856,319.319788 C1723.47226,314.199647 1726.32412,306.259717 1726.32412,295.5 C1726.32412,274.5 1714.73152,264 1691.54634,264 L1675.32412,264 L1675.32412,327 L1691.54634,327 Z" id="VM---White"></path>
        </g>
    </g>
</svg>