<svg width="46" height="48" viewBox="0 0 46 48" fill="none" xmlns="http://www.w3.org/2000/svg">
<rect x="13.875" y="4.9375" width="16.75" height="36.125" rx="8.375" stroke="#083E44"/>
<rect x="29.1001" y="4.30586" width="16.75" height="36.125" rx="8.375" transform="rotate(45 29.1001 4.30586)" stroke="#083E44"/>
<rect x="40.3125" y="14.625" width="16.75" height="36.125" rx="8.375" transform="rotate(90 40.3125 14.625)" stroke="#083E44"/>
<rect x="40.9443" y="29.8501" width="16.75" height="36.125" rx="8.375" transform="rotate(135 40.9443 29.8501)" stroke="#083E44"/>
<circle cx="22.25" cy="23" r="21.75" stroke="#083E44"/>
<rect x="15.8214" y="23.1985" width="9.18008" height="9.18008" transform="rotate(-45 15.8214 23.1985)" stroke="#083E44"/>
<rect x="19.0196" y="20.0001" width="4.65685" height="4.65685" transform="rotate(-45 19.0196 20.0001)" stroke="#083E44"/>
<rect x="18.9678" y="26.4891" width="4.65685" height="4.65685" transform="rotate(-45 18.9678 26.4891)" stroke="#083E44"/>
<circle cx="37.4062" cy="16.6562" r="1.34375" fill="#DE267E"/>
<circle cx="16.2812" cy="17.0312" r="1.34375" fill="#DE267E"/>
<circle cx="8.15625" cy="25.7812" r="1.34375" fill="#DE267E"/>
<circle cx="28.5312" cy="31.2812" r="1.34375" fill="#DE267E"/>
<circle cx="35.9062" cy="25.1562" r="1.34375" fill="#DE267E"/>
<circle cx="14.2188" cy="34.7812" r="1.34375" fill="#DE267E"/>
</svg>
