<?xml version="1.0" encoding="UTF-8"?>
<svg xmlns="http://www.w3.org/2000/svg" width="719" height="124" viewBox="0 0 719 124" fill="none">
  <path d="M146.439 106.701H112.507L106.867 123.289H83.8143L121.139 33.0032H138.059L175.384 123.289H152.079L146.439 106.701ZM140.81 89.9763L129.542 60.7102L118.147 89.9763H140.81Z" fill="#DE257E"></path>
  <path d="M201.704 106.713H230.901V123.484H179.809V32.9459H201.704V106.713Z" fill="#DE257E"></path>
  <path d="M265.682 32.9459V123.484H243.786V32.9459H265.682Z" fill="#DE257E"></path>
  <path d="M354.282 101.726C350.488 108.604 345.02 113.958 337.89 117.798C330.759 121.638 322.368 123.564 312.727 123.564H278.532V33.0146H312.727C322.46 33.0146 330.874 34.8947 337.958 38.6547C345.043 42.4147 350.488 47.6993 354.282 54.5315C358.077 61.3637 359.98 69.2161 359.98 78.1003C359.98 86.9844 358.077 94.8598 354.282 101.726ZM330.725 97.1754C335.459 92.6473 337.832 86.2851 337.832 78.1003C337.832 69.9154 335.459 63.5417 330.725 59.0137C325.991 54.4856 319.342 52.2273 310.813 52.2273H300.439V103.962H310.813C319.353 103.962 325.991 101.703 330.725 97.1754Z" fill="#DE257E"></path>
  <path d="M13.7041 57.7985H37.399L33.1575 49.6366H9.4397L13.7041 57.7985Z" fill="#DE257E"></path>
  <path d="M41.0559 64.8256H17.3724L22.1412 73.9734H45.8017L41.0559 64.8256Z" fill="#DE257E"></path>
  <path d="M91.1625 0L54.1013 89.9419L49.4586 81.0005H25.8096L47.441 123.381H61.0481L113.47 0H91.1625Z" fill="#DE257E"></path>
  <path d="M29.5007 42.6095L24.6058 33.1751H0.853638L5.77144 42.6095H29.5007Z" fill="#DE257E"></path>
  <path d="M474.579 33.2783V123.484H452.684V67.0724L433.219 123.484H414.27L394.679 66.9463V123.484H372.784V33.2783H399.551L424.014 96.1207L447.961 33.2783H474.602H474.579Z" fill="#083E44"></path>
  <path d="M509.302 32.9459V123.484H487.407V32.9459H509.302Z" fill="#083E44"></path>
  <path d="M602.534 123.484H580.639L544.013 67.9093V123.484H522.118V32.9459H544.013L580.639 89.0364V32.9459H602.534V123.484Z" fill="#083E44"></path>
  <path d="M691.1 101.646C687.306 108.524 681.838 113.878 674.707 117.718C667.577 121.558 659.186 123.484 649.545 123.484H615.35V32.9459H649.545C659.278 32.9459 667.692 34.8259 674.776 38.5859C681.861 42.3459 687.306 47.6305 691.1 54.4627C694.895 61.2949 696.797 69.1473 696.797 78.0315C696.797 86.9156 694.895 94.791 691.1 101.658V101.646ZM667.543 97.1066C672.277 92.5785 674.65 86.2164 674.65 78.0315C674.65 69.8466 672.277 63.4729 667.543 58.9449C662.808 54.4168 656.16 52.1585 647.631 52.1585H637.256V103.893H647.631C656.171 103.893 662.808 101.635 667.543 97.1066Z" fill="#083E44"></path>
  <path d="M696.305 35.1124V32.8083H705.395V35.1124H696.305ZM699.411 43.0451V33.691H702.266V43.0451H699.411ZM707.16 43.0451V32.8083H710.015V43.0451H707.16ZM712.044 43.0451L708.123 32.8083H710.531L712.858 39.3195L715.196 32.8083H717.604L713.672 43.0451H712.055H712.044ZM715.712 43.0451V32.8083H718.567V43.0451H715.712Z" fill="#083E44"></path>
</svg>
