<svg xmlns="http://www.w3.org/2000/svg" viewBox="0 0 920 220" width="920" height="220" font-family="Inter, system-ui, sans-serif">
  <defs>
    <linearGradient id="tealHeader" x1="0%" y1="0%" x2="0%" y2="100%">
      <stop offset="0%" style="stop-color:#083E44"/>
      <stop offset="100%" style="stop-color:#0E535B"/>
    </linearGradient>
    <marker id="arrowhead" markerWidth="10" markerHeight="7" refX="9" refY="3.5" orient="auto">
      <polygon points="0 0, 10 3.5, 0 7" fill="#2B7F89"/>
    </marker>
  </defs>
  <title>AI governance lifecycle: Intake, Assessment, Approval, Deployment, Monitoring, Review</title>
  <!-- Intake -->
  <g transform="translate(0, 0)">
    <rect x="0" y="0" width="130" height="36" rx="8" fill="url(#tealHeader)"/>
    <text x="65" y="23" fill="white" font-size="13" font-weight="bold" text-anchor="middle">1. Intake</text>
    <rect x="0" y="36" width="130" height="58" rx="8" fill="#D4F5F9" stroke="#60B9C5" stroke-width="1"/>
    <text x="65" y="58" fill="#083E44" font-size="11" text-anchor="middle">Use case owner</text>
    <text x="65" y="72" fill="#3A3F3F" font-size="10" text-anchor="middle">registers AI system</text>
  </g>
  <path d="M 132 65 L 158 65" stroke="#2B7F89" stroke-width="2" marker-end="url(#arrowhead)"/>
  <!-- Assessment -->
  <g transform="translate(160, 0)">
    <rect x="0" y="0" width="130" height="36" rx="8" fill="url(#tealHeader)"/>
    <text x="65" y="23" fill="white" font-size="13" font-weight="bold" text-anchor="middle">2. Assessment</text>
    <rect x="0" y="36" width="130" height="58" rx="8" fill="#D4F5F9" stroke="#60B9C5" stroke-width="1"/>
    <text x="65" y="58" fill="#083E44" font-size="11" text-anchor="middle">Governance / risk</text>
    <text x="65" y="72" fill="#3A3F3F" font-size="10" text-anchor="middle">classify &amp; assess</text>
  </g>
  <path d="M 292 65 L 318 65" stroke="#2B7F89" stroke-width="2" marker-end="url(#arrowhead)"/>
  <!-- Approval (accent) -->
  <g transform="translate(320, 0)">
    <rect x="0" y="0" width="130" height="36" rx="8" fill="#DF2780"/>
    <text x="65" y="23" fill="white" font-size="13" font-weight="bold" text-anchor="middle">3. Approval</text>
    <rect x="0" y="36" width="130" height="58" rx="8" fill="#FAEDF3" stroke="#DF2780" stroke-width="1.5"/>
    <text x="65" y="58" fill="#083E44" font-size="11" text-anchor="middle">Committee / compliance</text>
    <text x="65" y="72" fill="#3A3F3F" font-size="10" text-anchor="middle">sign-off</text>
  </g>
  <path d="M 452 65 L 478 65" stroke="#2B7F89" stroke-width="2" marker-end="url(#arrowhead)"/>
  <!-- Deployment -->
  <g transform="translate(480, 0)">
    <rect x="0" y="0" width="130" height="36" rx="8" fill="url(#tealHeader)"/>
    <text x="65" y="23" fill="white" font-size="13" font-weight="bold" text-anchor="middle">4. Deployment</text>
    <rect x="0" y="36" width="130" height="58" rx="8" fill="#D4F5F9" stroke="#60B9C5" stroke-width="1"/>
    <text x="65" y="58" fill="#083E44" font-size="11" text-anchor="middle">Owner / IT</text>
    <text x="65" y="72" fill="#3A3F3F" font-size="10" text-anchor="middle">deploy to production</text>
  </g>
  <path d="M 612 65 L 638 65" stroke="#2B7F89" stroke-width="2" marker-end="url(#arrowhead)"/>
  <!-- Monitoring -->
  <g transform="translate(640, 0)">
    <rect x="0" y="0" width="130" height="36" rx="8" fill="url(#tealHeader)"/>
    <text x="65" y="23" fill="white" font-size="13" font-weight="bold" text-anchor="middle">5. Monitoring</text>
    <rect x="0" y="36" width="130" height="58" rx="8" fill="#D4F5F9" stroke="#60B9C5" stroke-width="1"/>
    <text x="65" y="58" fill="#083E44" font-size="11" text-anchor="middle">Risk / ops</text>
    <text x="65" y="72" fill="#3A3F3F" font-size="10" text-anchor="middle">ongoing oversight</text>
  </g>
  <path d="M 772 65 L 798 65" stroke="#2B7F89" stroke-width="2" marker-end="url(#arrowhead)"/>
  <!-- Review -->
  <g transform="translate(800, 0)">
    <rect x="0" y="0" width="120" height="36" rx="8" fill="url(#tealHeader)"/>
    <text x="60" y="23" fill="white" font-size="13" font-weight="bold" text-anchor="middle">6. Review</text>
    <rect x="0" y="36" width="120" height="58" rx="8" fill="#D4F5F9" stroke="#60B9C5" stroke-width="1"/>
    <text x="60" y="58" fill="#083E44" font-size="11" text-anchor="middle">Governance / audit</text>
    <text x="60" y="72" fill="#3A3F3F" font-size="10" text-anchor="middle">periodic review</text>
  </g>
  <!-- Loop back: Review to Assessment -->
  <path d="M 860 94 Q 860 140 460 140 Q 200 140 200 94" stroke="#2B7F89" stroke-width="2" fill="none" stroke-dasharray="4 3" marker-end="url(#arrowhead)"/>
  <text x="330" y="132" fill="#2B7F89" font-size="10" text-anchor="middle">re-assess / re-approve</text>
</svg>
