<svg xmlns="http://www.w3.org/2000/svg" viewBox="0 0 1200 540" width="1200" height="540" font-family="Inter, system-ui, sans-serif">
  <defs>
    <linearGradient id="tealHeader" x1="0%" y1="0%" x2="0%" y2="100%">
      <stop offset="0%" style="stop-color:#083E44"/>
      <stop offset="100%" style="stop-color:#0E535B"/>
    </linearGradient>
    <marker id="arrowhead" markerWidth="10" markerHeight="7" refX="9" refY="3.5" orient="auto">
      <polygon points="0 0, 10 3.5, 0 7" fill="#2B7F89"/>
    </marker>
  </defs>
  <title>AI governance lifecycle: Intake, Assessment, Documentation, Validation, Approval, Deployment, Monitoring, Review</title>
  <!-- Two-row clockwise: top 1→2→3→4, bottom 5←6←7←8, arrow 4 down to 5, feedback 8→2 -->
  <!-- Box: 200×48 header + 76 body = 124; gap 40; top y=60, bottom y=316 -->
  <!-- 1. Intake -->
  <g transform="translate(140, 60)">
    <rect x="0" y="0" width="200" height="48" rx="8" fill="url(#tealHeader)"/>
    <text x="100" y="31" fill="white" font-size="16" font-weight="bold" text-anchor="middle">1. Intake</text>
    <rect x="0" y="48" width="200" height="76" rx="8" fill="#D4F5F9" stroke="#60B9C5" stroke-width="1"/>
    <text x="100" y="76" fill="#083E44" font-size="13" text-anchor="middle">Use case owner</text>
    <text x="100" y="94" fill="#3A3F3F" font-size="12" text-anchor="middle">Registers AI system</text>
  </g>
  <path d="M 340 124 L 376 124" stroke="#2B7F89" stroke-width="2" marker-end="url(#arrowhead)"/>
  <!-- 2. Assessment -->
  <g transform="translate(380, 60)">
    <rect x="0" y="0" width="200" height="48" rx="8" fill="url(#tealHeader)"/>
    <text x="100" y="31" fill="white" font-size="16" font-weight="bold" text-anchor="middle">2. Assessment</text>
    <rect x="0" y="48" width="200" height="76" rx="8" fill="#D4F5F9" stroke="#60B9C5" stroke-width="1"/>
    <text x="100" y="76" fill="#083E44" font-size="13" text-anchor="middle">Governance / Risk</text>
    <text x="100" y="94" fill="#3A3F3F" font-size="12" text-anchor="middle">Classify &amp; assess</text>
  </g>
  <path d="M 580 124 L 616 124" stroke="#2B7F89" stroke-width="2" marker-end="url(#arrowhead)"/>
  <!-- 3. Documentation -->
  <g transform="translate(620, 60)">
    <rect x="0" y="0" width="200" height="48" rx="8" fill="url(#tealHeader)"/>
    <text x="100" y="31" fill="white" font-size="16" font-weight="bold" text-anchor="middle">3. Documentation</text>
    <rect x="0" y="48" width="200" height="76" rx="8" fill="#D4F5F9" stroke="#60B9C5" stroke-width="1"/>
    <text x="100" y="76" fill="#083E44" font-size="13" text-anchor="middle">Owner / Risk</text>
    <text x="100" y="94" fill="#3A3F3F" font-size="12" text-anchor="middle">Document model &amp; use case</text>
  </g>
  <path d="M 820 124 L 856 124" stroke="#2B7F89" stroke-width="2" marker-end="url(#arrowhead)"/>
  <!-- 4. Validation -->
  <g transform="translate(860, 60)">
    <rect x="0" y="0" width="200" height="48" rx="8" fill="url(#tealHeader)"/>
    <text x="100" y="31" fill="white" font-size="16" font-weight="bold" text-anchor="middle">4. Validation</text>
    <rect x="0" y="48" width="200" height="76" rx="8" fill="#D4F5F9" stroke="#60B9C5" stroke-width="1"/>
    <text x="100" y="76" fill="#083E44" font-size="13" text-anchor="middle">Validator</text>
    <text x="100" y="94" fill="#3A3F3F" font-size="12" text-anchor="middle">Test &amp; validate model</text>
  </g>
  <path d="M 960 184 L 960 312" stroke="#2B7F89" stroke-width="2" marker-end="url(#arrowhead)"/>
  <!-- 5. Approval (accent) -->
  <g transform="translate(860, 316)">
    <rect x="0" y="0" width="200" height="48" rx="8" fill="#DF2780"/>
    <text x="100" y="31" fill="white" font-size="16" font-weight="bold" text-anchor="middle">5. Approval</text>
    <rect x="0" y="48" width="200" height="76" rx="8" fill="#FAEDF3" stroke="#DF2780" stroke-width="1.5"/>
    <text x="100" y="76" fill="#083E44" font-size="13" text-anchor="middle">Committee / Compliance</text>
    <text x="100" y="94" fill="#3A3F3F" font-size="12" text-anchor="middle">Sign-off</text>
  </g>
  <path d="M 856 354 L 820 354" stroke="#2B7F89" stroke-width="2" marker-end="url(#arrowhead)"/>
  <!-- 6. Deployment -->
  <g transform="translate(620, 316)">
    <rect x="0" y="0" width="200" height="48" rx="8" fill="url(#tealHeader)"/>
    <text x="100" y="31" fill="white" font-size="16" font-weight="bold" text-anchor="middle">6. Deployment</text>
    <rect x="0" y="48" width="200" height="76" rx="8" fill="#D4F5F9" stroke="#60B9C5" stroke-width="1"/>
    <text x="100" y="76" fill="#083E44" font-size="13" text-anchor="middle">Owner / IT</text>
    <text x="100" y="94" fill="#3A3F3F" font-size="12" text-anchor="middle">Deploy to production</text>
  </g>
  <path d="M 616 354 L 580 354" stroke="#2B7F89" stroke-width="2" marker-end="url(#arrowhead)"/>
  <!-- 7. Monitoring -->
  <g transform="translate(380, 316)">
    <rect x="0" y="0" width="200" height="48" rx="8" fill="url(#tealHeader)"/>
    <text x="100" y="31" fill="white" font-size="16" font-weight="bold" text-anchor="middle">7. Monitoring</text>
    <rect x="0" y="48" width="200" height="76" rx="8" fill="#D4F5F9" stroke="#60B9C5" stroke-width="1"/>
    <text x="100" y="76" fill="#083E44" font-size="13" text-anchor="middle">Risk / Ops</text>
    <text x="100" y="94" fill="#3A3F3F" font-size="12" text-anchor="middle">Ongoing oversight</text>
  </g>
  <path d="M 376 354 L 340 354" stroke="#2B7F89" stroke-width="2" marker-end="url(#arrowhead)"/>
  <!-- 8. Review -->
  <g transform="translate(140, 316)">
    <rect x="0" y="0" width="200" height="48" rx="8" fill="url(#tealHeader)"/>
    <text x="100" y="31" fill="white" font-size="16" font-weight="bold" text-anchor="middle">8. Review</text>
    <rect x="0" y="48" width="200" height="76" rx="8" fill="#D4F5F9" stroke="#60B9C5" stroke-width="1"/>
    <text x="100" y="76" fill="#083E44" font-size="13" text-anchor="middle">Governance / Audit</text>
    <text x="100" y="94" fill="#3A3F3F" font-size="12" text-anchor="middle">Periodic review</text>
  </g>
  <!-- Feedback: 8 (top center) → 2 (bottom center) -->
  <path d="M 240 316 Q 240 250 300 250 Q 400 250 480 184" stroke="#2B7F89" stroke-width="2" fill="none" stroke-dasharray="6 4" marker-end="url(#arrowhead)"/>
  <rect x="268" y="232" width="164" height="28" rx="6" fill="white" stroke="#60B9C5" stroke-width="1"/>
  <text x="350" y="251" fill="#2B7F89" font-size="12" font-weight="600" text-anchor="middle">Re-assess / re-approve</text>
</svg>
