<svg xmlns="http://www.w3.org/2000/svg" viewBox="0 0 680 100" width="680" height="100" font-family="Inter, system-ui, sans-serif">
  <title>Audit evidence pipeline: Registration, Approval history, Documentation, Change history, Export</title>
  <defs>
    <linearGradient id="tealH" x1="0%" y1="0%" x2="0%" y2="100%">
      <stop offset="0%" style="stop-color:#083E44"/>
      <stop offset="100%" style="stop-color:#0E535B"/>
    </linearGradient>
    <marker id="arr" markerWidth="10" markerHeight="7" refX="9" refY="3.5" orient="auto">
      <polygon points="0 0, 10 3.5, 0 7" fill="#2B7F89"/>
    </marker>
  </defs>
  <g transform="translate(0, 20)">
    <rect x="0" y="0" width="115" height="28" rx="6" fill="url(#tealH)"/>
    <text x="57" y="18" fill="white" font-size="11" font-weight="bold" text-anchor="middle">Registration</text>
    <rect x="0" y="28" width="115" height="42" rx="6" fill="#D4F5F9" stroke="#60B9C5" stroke-width="1"/>
    <text x="57" y="52" fill="#083E44" font-size="10" text-anchor="middle">records</text>
  </g>
  <path d="M 118 65 L 132 65" stroke="#2B7F89" stroke-width="2" marker-end="url(#arr)"/>
  <g transform="translate(135, 20)">
    <rect x="0" y="0" width="115" height="28" rx="6" fill="url(#tealH)"/>
    <text x="57" y="18" fill="white" font-size="11" font-weight="bold" text-anchor="middle">Approval</text>
    <rect x="0" y="28" width="115" height="42" rx="6" fill="#D4F5F9" stroke="#60B9C5" stroke-width="1"/>
    <text x="57" y="52" fill="#083E44" font-size="10" text-anchor="middle">history</text>
  </g>
  <path d="M 253 65 L 267 65" stroke="#2B7F89" stroke-width="2" marker-end="url(#arr)"/>
  <g transform="translate(270, 20)">
    <rect x="0" y="0" width="115" height="28" rx="6" fill="url(#tealH)"/>
    <text x="57" y="18" fill="white" font-size="11" font-weight="bold" text-anchor="middle">Documentation</text>
    <rect x="0" y="28" width="115" height="42" rx="6" fill="#D4F5F9" stroke="#60B9C5" stroke-width="1"/>
    <text x="57" y="52" fill="#083E44" font-size="10" text-anchor="middle">technical &amp; governance</text>
  </g>
  <path d="M 388 65 L 402 65" stroke="#2B7F89" stroke-width="2" marker-end="url(#arr)"/>
  <g transform="translate(405, 20)">
    <rect x="0" y="0" width="115" height="28" rx="6" fill="url(#tealH)"/>
    <text x="57" y="18" fill="white" font-size="11" font-weight="bold" text-anchor="middle">Change history</text>
    <rect x="0" y="28" width="115" height="42" rx="6" fill="#D4F5F9" stroke="#60B9C5" stroke-width="1"/>
    <text x="57" y="52" fill="#083E44" font-size="10" text-anchor="middle">timestamps</text>
  </g>
  <path d="M 523 65 L 537 65" stroke="#2B7F89" stroke-width="2" marker-end="url(#arr)"/>
  <g transform="translate(540, 20)">
    <rect x="0" y="0" width="115" height="28" rx="6" fill="#DF2780"/>
    <text x="57" y="18" fill="white" font-size="11" font-weight="bold" text-anchor="middle">Export</text>
    <rect x="0" y="28" width="115" height="42" rx="6" fill="#FAEDF3" stroke="#DF2780" stroke-width="1.5"/>
    <text x="57" y="52" fill="#083E44" font-size="10" text-anchor="middle">for auditors</text>
  </g>
</svg>
