<svg xmlns="http://www.w3.org/2000/svg" viewBox="-711.3 1087.7 247.2 247"><path d="M-587.9 1123.6c-48.7 0-88.3 39.6-88.3 88.3s39.6 88.3 88.3 88.3 88.3-39.6 88.3-88.3c-.1-48.7-39.7-88.3-88.3-88.3zm0 174.6c-47.6 0-86.3-38.7-86.3-86.3s38.7-86.3 86.3-86.3 86.3 38.7 86.3 86.3c-.1 47.5-38.8 86.3-86.3 86.3z"/><path d="M-571.6 1213.1l1.5-1.1 1.5 1-.6-1.7 1.5-1.1-1.9.1-.6-1.7-.5 1.7-1.9.1 1.5 1-.5 1.7zm-35.9 6.7l1.3 1.3-.3-1.8 1.7-.8-1.8-.3-.3-1.8-.8 1.6-1.8-.3 1.3 1.3-.9 1.6 1.6-.8zm23.8-5.3l1.4-1.1 1.6 1-.7-1.7 1.4-1.1-1.8.1-.7-1.7-.3 1.7-1.9.1 1.5 1-.5 1.7zm-12.9 7.4l1.6-1 1.4 1.2-.4-1.7 1.5-.9-1.9-.1-.4-1.7-.6 1.4-1.9-.1 1.4 1.2-.7 1.7zm.5-7.3l1.5-1 1.5 1.1-.5-1.8 1.5-1-1.9-.1-.5-1.7-.5 1.8-1.9-.1 1.4 1.1-.6 1.7zm-12.1-1.2l1.6-.9 1.4 1.2-.4-1.8 1.6-.9-1.8-.2-.3-1.8-.8 1.8-1.8-.2 1.3 1.2-.8 1.6zm24.4 8.3l1.5-1.1 1.5 1.1-.6-1.7 1.5-1h-1.9l-.5-1.7-.5 1.6h-1.9l1.5 1.1-.6 1.7zm14.1-5.5l-.3 1.7-1.8.2 1.6.8-.3 1.8 1.3-1.3 1.6.9-.8-1.6 1.3-1.2-1.8.3-.8-1.6zm10.3-5l1.2-1.4 1.7.7-1-1.5 1.2-1.4-1.8.5-1-1.5-.1 1.7-1.8.5 1.7.6-.1 1.8zm-17.8-50.4c-.1 1.8-2.3 3.2-3.3 3.4.4.5 1.9.4 1.9.4 1.5-.2 1.9-2.5 1.8-3.2-.1-.7-.4-.6-.4-.6zm-5.6 4.8c-1.2 2.8-3.7 1.4-3.7 1.4.3.9 2 1.4 2.8 1.1.8-.3 2-1.2 2-2.2-.1-1.1-.9-.7-1.1-.3zm35.6-14.1c-1.6-1.9-3.8-4.2-4.5-4.5-1.2-.5-1.1.3-.6.7.4.3 1 .7 1 .7 2.5 1.6 6.4 8.8 6.6 8.9.2.2.8.3.9.1.1-.2-.7-2.1-1.2-3-.6-.8-.7-1-2.2-2.9zm-36.5 18.4c-1.7 3.4-4.6 1.9-4.6 1.9 1.9 2.1 3.9 1.4 4.8.2.6-.6.7-1.5.7-2-.2-1.3-.9-.1-.9-.1zm37.3-19.8c-.7-.4-.6.5-.6.5.3.9 2.8 3.3 3.1 3.7.3.4.5.3.5.3.3.2.3.3.5.4.2.1.3-.1.3-.4.1-.3-.3-.7-.3-.7-1.1-.8-3.3-3.7-3.5-3.8zm-41.9 23.9c-.2.4-1.2 1.2-2.3 1.3-1.1 0-2.8-.9-3.1-.9-.3 0 1 2.1 3.3 2.4 1.4.2 2.5-1.6 2.7-2.3.1-.7-.5-1-.6-.5zM-557.5 1215.8l-.8-1.6-.3 1.7-1.8.2 1.6.9-.3 1.8 1.3-1.3 1.6.8-.8-1.6 1.3-1.2-1.8.3zm-36.7-49c.4-1.3-.8-.5-.8-.5-1.6 1.9-3.1.9-3.1.9 1.9 2 3.5.9 3.9-.4zm-25.5 44.7l1.7-.8 1.3 1.3-.3-1.8 1.7-.8-1.8-.3-.3-1.8-.9 1.6-1.8-.3 1.3 1.3-.9 1.6zm-.2 7.6l1.6-.9 1.3 1.2-.3-1.8 1.6-.8-1.9-.3-.3-1.8-.6 1.8-1.9-.3 1.3 1.3-.8 1.6zm83.1 15.8c.1.6.3 1 .5 1.2.4.4 0 .2.4.8.2.2.6.4 1.1.6-.4-1.7-1.2-2.4-2-2.6zm8.9 4.4c-.4 0-.9.8-1.2.8-.3 0-.2-.6-.3-1-.1-.4-.1-.7 0-1.1.1-.4.5-1.9.6-2.4s.8-2.6.8-2.9.1-.4.2-1.1-.3-1.3-.5-1.3c-.3 0-.2.6-.2 1 0 .3-.3.6-.4 1-.1.4 0 .5 0 .9 0 .5-1 2.7-1 2.7-.2-.2-1.6-.8-1.8-.8-.2 0-.8-.7-1-.4-.2.2.1.8.4 1s.6 0 1.2.6c1.1 1.1 1 4.9.6 5-.5.1-.6-.7-.7-.9-.1-.2-.5-.9-.8-.6-.3.3 0 .6.5 1.7 1.5 3.6-.6 7.3-.7 7.7-.1.4 0 .3.3.1.3-.1.9-1 1.3-1.6.4-.5 1-1 1.3-1.3.4-.3.8-.6 1-.9.2-.3 0-.3-.3-.4-.3-.1-.4.1-.6.1-.2.1-.4.5-.6.4-.2-.1-.1-.7-.1-.9 0-.2-.2-.4-.2-.7s.3-1.1.5-1.4 1.4-1.5 1.6-1.6l.8-.8c.3-.2.6-.4.5-.8 0-.2-.8 0-1.2-.1zm-65.1-68.1c-1.8 1.1-3.4.4-4.9-.3-.7.9 2.2 2.5 3.5 2.2 1.9-.4 1.4-1.9 1.4-1.9zm-3.4-8.1c-.4-.3-.6-.7-.8-1.1.2 1.1.8 2.4 2.7 3.1 1.9.1 2.4-.9 2.4-1.6-.2-.2-.4-.5-.4-.8-.6 2.4-2.6 1.5-3.9.4zm-.9-3.1c-1.2 1.1-1.9.7-2.4.2.2.6.6 1.3 1.2 1.3.6.1 1-.1 1.2-.4v-1.1zM-585.1 1160.4c.1.1.1.2.2.2-.1-.2-.2-.3-.2-.2zm-59.8 78.3c.1-.5.2-.9.3-1.4l-.2-.9c0-.5.1-1.1.2-1.6-.3.7-.6 1.4-.7 1.9l.4 2zm108 23.1c-.4-.4-.8-.6-1.1-.7v.1l1.1.6zm-111.8-27.9c-.8-2.7-2.6-4-5.3-7-.4 2.2 2.7 4.1 5.3 7zm1-14c-.1-.5-.2-1.2-.7-2.2l.2.9c0-.1.5 3.6.5 3.6 0 .2.1.3.2.5.1.1.1.2.1.2.3.2.1-1.6-.3-3zm52.8-62.3c.2 0 .4-.3.4-.6s-.2-.7-.3-1c-.1-.3.2-.6.3-.8.1-.3-.1-.5 0-1.1s.5-2.3.3-2.4c-.2-.2-.9 1.2-1.3 2.8-.3 1.6.4 3.1.6 3.1zm-1.9.9c.1-.3.1-.5.1-.5s-.1.2-.1.5zm6.8-9.5c.2-.1-.1-.8-.2-1-.2-.5-.4-.8-.5-1 0 .2-.1.4-.2.3h-.4c.1.2.3.5.6 1 .2.4.6.7.7.7zm-58.8 64c.2.8 1 2.8 1 2.8l.9 2.9.2 4c.1.3.2.5.2.6.1-.4.6-2.2.6-3.5v-.5c.1 0-.7-3.4-1.3-4 0 0-1.2-1.8-1.6-2.3zm60.6-71.4c-.6-.2-1.3.6-1.3.6-.2.4.6.8.6.8 1.4-.3.6-1.5.7-1.4zm4.5 4c.3.5.7 1.5.7 1.5.1.3.3.6.5 1 .1.4.8 1.9 1.3 2.4.5.4.8 0 .8-.2 0-.3 0-.5-.2-1.1-.3-.6-.4-.7-.9-1.5-.6-.8-1.4-2.1-1.6-2.3-.4-.5-.8-.2-.6.2zm-1.4 6.6c.1.7.6 2 1 2.5.4.6.8.2.6-.4-.2-.5-.6-1.3-.6-1.9s.2-.8.1-1c0-.2-.7-1.1-.8-1.5-.1-.5-.6-1.4-.7-1.5-.2-.2-.5.1-.5.5 0 .3.8 2.6.9 3.3zm2.2-8.6c.4.7.8.2.8.2 0-2.4-2.1-3.2-2.2-3.1-.4.1 0 .5 0 .5.8.5 1 1.7 1.4 2.4zm-64.8 68.6c.7 2.1 2.5 3.6 2.6 3.7-.2-.7-.6-1.4-1.3-2.1l-1.3-1.6zm66.8-124.5l-.9 2.3-2.4-.2 1.9 1.6-.9 2.3 2.1-1.3 2 1.5-.7-2.4 2.1-1.3-2.5-.2-.7-2.3zm-15.1.1l-.7 2.3-2.4.2 2.1 1.3-.6 2.4 1.9-1.6 2.1 1.4-1-2.3 2-1.6-2.5.1-.9-2.2zm-15.2 1.9l-.2 2.5-2.4.5 2.3 1-.2 2.4 1.6-1.8 2.3.9-1.3-2.1 1.6-1.9-2.4.6-1.3-2.1zm-15 3.9l.1 2.5-2.3.8 2.4.7.1 2.4 1.3-2 2.5.6-1.6-1.9 1.3-2.1-2.3.9-1.5-1.9zm-14 5.5l.5 2.4-2.2 1.2 2.5.3.4 2.5 1.1-2.3 2.5.3-1.9-1.6 1.1-2.3-2.2 1.2-1.8-1.7zm-13.2 7.3l.6 2.3-2 1.4 2.4.1.7 2.4.8-2.3 2.5.1-1.9-1.5.9-2.4-2.1 1.4-1.9-1.5zm-12.2 8.7l.8 2.3-1.9 1.5h2.5l.8 2.3.7-2.4 2.5-.1-2.1-1.4.7-2.4-2 1.6-2-1.4zm-10.8 9.9l1.2 2.1-1.8 1.8 2.5-.4 1.1 2.1.4-2.4 2.4-.4-2.2-1.1.4-2.5-1.8 1.8-2.2-1zm-9.8 11.4l1.5 2-1.5 2 2.4-.8 1.5 1.9-.1-2.4 2.4-.8-2.4-.7v-2.5l-1.5 2-2.3-.7zm-8.5 12.5l1.7 1.8-1.2 2.2 2.3-1.1 1.6 1.8-.3-2.4 2.3-1.1-2.5-.4-.3-2.5-1.2 2.2-2.4-.5zm-6.6 13.4l1.8 1.6-1.1 2.3 2.2-1.2 1.8 1.6-.5-2.4 2.2-1.2-2.5-.3-.5-2.4-1 2.2-2.4-.2zm-5.2 14.5l2.1 1.2-.5 2.4 1.8-1.6 2.1 1.2-.9-2.2 1.8-1.7-2.5.3-1-2.3-.5 2.4-2.4.3zm-3.4 15.1l2.3.9-.3 2.5 1.7-1.9 2.2 1-1.2-2.1 1.6-1.9-2.4.6-1.3-2.2-.2 2.5-2.4.6zm-1.4 15.8l2.3.8v2.4l1.5-2 2.3.8-1.5-2 1.5-2-2.3.8-1.5-2.1v2.5l-2.3.8zm.5 15.5l2.4.5.3 2.5 1.2-2.2 2.4.5-1.7-1.8 1.3-2.2-2.3 1.1-1.7-1.9.3 2.5-2.2 1zm2.4 15.2l2.5.2.5 2.4 1-2.3 2.4.2-1.8-1.6.9-2.3-2.1 1.3-1.8-1.6.5 2.4-2.1 1.3zm4.4 14.9h2.4l.8 2.4.8-2.4 2.4.1-1.9-1.5.7-2.3-2 1.4-2-1.5.8 2.4-2 1.4zm6 13.9l2.4-.4 1.2 2.1.3-2.4 2.4-.5-2.2-1 .3-2.5-1.7 1.8-2.2-1.1 1.2 2.2-1.7 1.8zm8.4 14.1l2.4-.5 1.3 2.1.2-2.5 2.4-.5-2.2-1 .2-2.5-1.6 1.9-2.3-1 1.2 2.2-1.6 1.8zm10 12.6l2.3-.9 1.5 2-.1-2.5 2.3-.9-2.3-.6-.1-2.5-1.4 2.1-2.4-.7 1.5 2-1.3 2zm11 10.9l2.2-1.2 1.7 1.7-.4-2.4 2.2-1.2-2.4-.3-.5-2.5-1 2.3-2.5-.4 1.8 1.8-1.1 2.2zm11.9 9l2.1-1.3 1.9 1.5-.7-2.4 2.1-1.4h-2.5l-.7-2.4-.8 2.3-2.5-.1 2 1.6-.9 2.2zm14 8.1l1.8-1.6 2.1 1.2-1-2.3 1.8-1.6-2.4.3-1-2.3-.5 2.4-2.5.3 2.2 1.2-.5 2.4zm14.7 6.2l1.6-1.8 2.3.9-1.3-2.1 1.6-1.9-2.4.6-1.3-2.1-.1 2.4-2.5.6 2.3 1-.2 2.4zm15.3 4.2l1.4-2 2.4.6-1.6-1.9 1.3-2.1-2.2.9-1.6-1.9.1 2.4-2.3.9 2.4.7.1 2.4zm15.1 2.1l1-2.2 2.5.2-1.9-1.6.9-2.3-2.1 1.3-1.9-1.6.6 2.4-2.1 1.3 2.5.2.5 2.3zm16 .3l.6-2.4 2.5-.1-2.1-1.3.7-2.4-1.9 1.5-2.1-1.3.9 2.3-2 1.6 2.5-.2.9 2.3zm15.3-1.8l.3-2.4 2.4-.5-2.2-1 .2-2.5-1.6 1.9-2.3-1.1 1.3 2.2-1.7 1.8 2.4-.5 1.2 2.1zm15.2-3.6l.1-2.5 2.3-.7-2.4-.8v-2.5l-1.4 2-2.4-.7 1.5 2-1.5 2 2.4-.8 1.4 2zm14.3-5.4l-.2-2.4 2.2-1-2.4-.6-.3-2.4-1.2 2.1-2.4-.4 1.6 1.8-1.2 2.1 2.3-1 1.6 1.8zm13.5-7.2l-.6-2.4 2.1-1.3-2.5-.1-.6-2.4-.9 2.3-2.5-.1 1.9 1.5-.9 2.3 2.1-1.3 1.9 1.5zm12.7-8.9l-.9-2.3 1.9-1.5-2.5.1-.9-2.3-.6 2.4-2.5.2 2.2 1.3-.6 2.4 1.9-1.6 2 1.3zm11.5-10.3l-1-2.2 1.8-1.7-2.5.3-1-2.2-.5 2.5-2.4.4 2.1 1.1-.5 2.4 1.9-1.7 2.1 1.1zm10.6-12.5l-1.5-1.9 1.4-2-2.4.8-1.4-2v2.5l-2.3.8 2.4.7v2.5l1.4-2.1 2.4.7zm8.7-13.4l-1.6-1.8 1.3-2.1-2.3 1-1.7-1.9.3 2.5-2.3 1 2.4.5.3 2.5 1.2-2.2 2.4.5zm6.8-14.1l-2-1.4.7-2.4-2 1.5-2-1.4.8 2.3-2 1.6 2.5-.1.8 2.4.7-2.4 2.5-.1zm5.1-15.7l-2.1-1.3.7-2.4-1.9 1.5-2.1-1.3.9 2.3-2 1.5 2.5-.1.9 2.3.7-2.4 2.4-.1zm3-16.6l-2.2-1.1.3-2.4-1.7 1.8-2.2-1 1.2 2.1-1.7 1.9 2.4-.6 1.3 2.2.3-2.4 2.3-.5zm.8-16.3l-2.3-.8.1-2.5-1.5 2-2.3-.9 1.4 2.1-1.6 1.9 2.4-.7 1.4 2.1.1-2.5 2.3-.7zm-1.3-16.3l-2.4-.4-.5-2.4-1.1 2.2-2.4-.3 1.8 1.7-1.1 2.3 2.2-1.2 1.8 1.7-.4-2.5 2.1-1.1zm-3.3-15.2h-2.5l-.7-2.4-.8 2.4h-2.5l2 1.4-.8 2.4 2-1.5 2 1.5-.7-2.4 2-1.4zm-5.4-15.1l-2.4.1-.9-2.2-.6 2.3-2.5.2 2.1 1.3-.6 2.4 1.9-1.6 2 1.4-.8-2.3 1.8-1.6zm-7.4-14.4l-2.4.6-1.3-2-.1 2.4-2.4.7 2.3.8-.1 2.5 1.5-1.9 2.4.9-1.4-2.1 1.5-1.9zm-9.1-13.3l-2.2 1-1.6-1.8.2 2.5-2.3 1 2.5.5.2 2.4 1.2-2.1 2.5.5-1.7-1.9 1.2-2.1zm-9.9-11.1l-2.2 1.2-1.7-1.7.4 2.4-2.2 1.2 2.5.3.5 2.5 1-2.3 2.5.3-1.8-1.7 1-2.2zm-11.7-10.3l-2 1.4-2-1.5.7 2.3-2 1.4 2.4.1.8 2.4.8-2.4 2.5.1-2-1.5.8-2.3zm-12.6-8.5l-1.8 1.6-2.2-1.2 1.1 2.2-1.9 1.7 2.5-.3 1 2.3.5-2.4 2.5-.3-2.2-1.3.5-2.3zm-13.2-6.8l-1.6 1.8-2.3-.9 1.3 2.1-1.6 1.9 2.4-.6 1.3 2.1.1-2.4 2.5-.6-2.3-1 .2-2.4zm-13.7-5l-1.4 2-2.3-.8 1.4 2-1.4 2 2.3-.8 1.5 2v-2.5l2.3-.7-2.3-.8-.1-2.4zm-13.5-3.4l-1.2 2.2-2.4-.5 1.7 1.9-1.2 2.1 2.2-1.1 1.8 1.8-.4-2.4 2.3-1.1-2.5-.5-.3-2.4zm74.7 165.5c1 .2 1.9.1 2 .2.1.1-.3.9-.6 1.8-.4.8-.6 1.7-.8 1.7-.2 0-1-.8-1.8-1.5-.7-.6-1.6-.9-1.9-1.1-1.2-.6-2.7-1.2-2.7-1.2s-3.4.5-4.8.8c-2 .4-3.3 1-3.5.8-.1-.1.5-1 1-1.8.4-.7.6-1.5 1-1.5.3 0-.1.5 3.3.2 1-.1 3.1-.3 3.1-.3s-.5-1.1-1.3-2.3c-.2-.3-1-1.4-1.7-2.2-.6-.6-1.1-1-1.2-1.1s.3-.8.6-1.6c.3-.7.6-1.5.8-1.5.3 0 .3 1 .9 2.5.6 1.4 3.3 6.1 3.3 6.1s.8.5 1.8 1c.1.1 1.4.7 2.5 1zm-94-139.5c.3-.3.4-1.7.1-2.8-.3-.8-1-1.2-1-1.5 0-.2 1.2-.1 2.3-.1.9 0 1.7-.1 1.8.1.1.1-.3.5-.5 1.3-.2.5-.4 1.9-.4 3 0 1 .1 1.3.1 1.8 0 .4-1-.5-2.2-.5-.8 0-2.3.6-2.8.6-5.3 0-6.5-4.3-6.4-7.2.2-4.3 4.2-7.1 6.9-7.1 1.4 0 2.7.4 2.9.4.8.1 1.1-.2 1.1.1 0 .3 0 .8-.1 1.4-.1 1.3 0 1.5-.2 1.6-.1 0-.7-.8-1.5-1.4-.8-.5-1.8-.7-2.3-.7-2.7 0-4.3 1.7-4.4 5.9 0 1.7.5 3.4 1.6 4.3 1.6 1.6 4 1.6 5 .8zm14.1-10.8c-6.3-1.4-8.4 4-8.4 4-2 4.2.7 9.6 5.5 10.2 2 .3 6.4 0 7.9-5 1.5-5.1-1.5-8.5-5-9.2zm3 7.4c-.6 2.9-2.3 6.1-5.9 5.4-3-.6-4.3-3.9-3.8-6.6s2.7-6.2 6.5-5.1c3 .9 3.8 3.5 3.2 6.3zm66 33.7c-3-5.9-8.3-4.3-8.3-4.3-4.9 1.2-7.8 6.4-5 10.7 2.7 4.2 6.7 4.5 9.4 3.2 4.8-2.1 5.1-7.3 3.9-9.6zm-3.2 6.5c-2.2 2.4-5.6 2.8-8 .8-2.4-2-1.4-6.2.6-8.2s6.2-3 8.7.3c1.2 1.6 1 4.7-1.3 7.1zm-15.3 124.4c.1-.3 1-.9 1.8-1.7 1.2-1.4 3.6-4.7 3.9-4.7.1 0 .6.4 1.1.7.4.3.9.6.9.8 0 .3-1 0-2.1 1.3-.4.4-2.3 2.5-2.3 2.7s3.1 2.9 3.3 2.9c.3 0 1.9-2.1 2.5-2.8.9-1-.1-2 .1-2.1.1-.1.8.6 1.4 1.2.6.5 1.1 1 1.1 1.1-.1.3-1.2.3-1.7.9s-2.3 2.3-2.2 2.6c0 .2 1.7 1.6 1.7 1.6l2 1.9s2-2.3 2.7-3c.3-.4.6-1 .8-1.7.1-.7 0-1.3.2-1.4.2-.1.7.6 1.2 1.2.4.5.8 1 .8 1.1 0 .5-1.3 1.3-2.2 2.2-2.5 2.5-3.6 4.7-3.9 4.7s-1.4-1.9-1.7-2.2c-.2-.1-1.7-1.8-3.4-3.4-1.7-1.6-2.7-2.5-2.8-2.6-1.8-.8-3.3-1-3.2-1.3zm-30.4 21.4c.2-.3 2.4-.8 4.9-2.1 1.4-.7 2.5-1.5 2.7-1.4.1 0 .5.5.8 1 .2.4.5.9.4 1-.1.3-.9-.3-2.4.4-.5.2-3 1.2-3.1 1.4-.1.1.3 1.3.7 2.2.4.8.9 1.5 1 1.6.2.1 2.5-1 3.4-1.4 1.2-.6.9-1.7 1.4-1.8.1 0 .3.7.7 1.5.3.7.7 1.5.6 1.6-.2.2-1-.1-1.8.1-1.3.2-3.5 1.5-3.6 1.7s.6 1.9.6 1.9.6 2 1.1 2.3c.9.5 2.8-1.1 3.6-1.6.4-.2 1.2-.7 1.6-1.2.4-.6.4-1.5.6-1.5.2 0 .3 1.2.5 1.9.2.6.3 1.2.3 1.3-.2.5-1.9.7-3.1 1.3-3.2 1.6-5 2.8-5.2 2.7s-.4-2.2-.6-2.6c-.1-.2-.8-2.2-1.7-4.2-.9-2.1-1.5-3.4-1.6-3.6-.9-1.7-2-2.2-1.8-2.5zm-23.4 6.8c.2-.2 2.4-.4 5.2-1 1.6-.3 3.2-.8 3.7-.7.1 0 .1.6.2 1.2 0 .5.1 1.2 0 1.3-.2.2-.9-.7-2.6-.5-.5.1-3.1.5-3.3.6-.1.1.2 1.9.4 3 .2.9.2 1.5.3 1.6.5.3 2.9-.4 3.8-.6.4-.1.6-.3.8-.6.2-.2.6-.5.7-.6.1 0 .2.8.4 1.6.1.5.4 1.3.3 1.5-.2.2-1.1-.5-1.9-.5-1.3.1-2.5.6-3.6.8-.2 0 .2 2.3.2 2.3s.2 2.2.7 2.5c.8.6 2.8-.3 3.6-.7.5-.2 1.2-.6 1.7-1.1.5-.4.6-.7.8-.7s.3.8.3 1.5.1 1.3-.1 1.3c-.5.3-3.3.5-4.5.7-4.2.9-4.6 1.4-4.8 1.3-.2-.2.4-1.3.4-2.8 0-.7-.2-2.3-.6-4.5-.4-2.2-.6-3.5-.7-3.7-.4-2-1.7-2.9-1.4-3.2zm-64.4-12.9c.3 0 2.2 1.3 4.6 2.6 1.3.7 2.2 1 2.5 1.5.1.1 0 .5-.3.9s-.4.8-.6.8c-.3.1-.2-.5-1.6-1.5-.4-.3-2.5-1.5-2.7-1.5-.1 0-1 1.4-1.5 2.2-.4.7-.8 1.2-.8 1.3.2.6 1.4 1.1 2.2 1.4.4.2 1.4.5 1.7.5.3 0 .6-.1.8 0 .1 0-.2.5-.6 1.2-.2.4-.4.9-.6.9-.3 0-.5-.5-1.1-1-1-.8-2.1-1.1-3-1.7-.2-.1-1.3 1.8-1.3 1.8s-1.6 2.1-1.3 2.5c.3.4 2.2 1.2 3.5 1.6.4.1 1 .3 1.5.3s1-.2 1-.1c.1.2-.2.7-.7 1.3-.4.5-.7 1-.9.9-.5-.1-2.9-1.4-3.9-2-3.6-2-3.9-2-4-2.2 0-.2 1-1.1 1.9-2.2.9-1.1 1.7-2.4 2.5-3.6 1.1-1.8 1.5-2.7 1.6-2.9 1.1-1.5.8-3 1.1-3zm-30-10c.5-.3 2.1-1.5 3.8-3 1.7-1.5 3.4-3.3 3.9-3.8.6-.7.9-1.4 1-1.4.1.1 1 1.2 2.4 2.7 1.2 1.3 3.1 3 3.2 3.2 0 .1-.3.6-.7.9-.4.3-.7.6-.8.6-.3 0 0-.6-1-1.9-.3-.4-2.4-2.7-2.6-2.7-.1 0-2.8 2.6-2.8 2.8s.9 1.1 1.5 1.7c.1.1.7.6 1.3 1 .5.4 1 .6 1 .7 0 .3-.5.4-.9.8-.4.3-.8.9-1 .9-.3 0-.5-1.2-.9-1.8-.7-1-1.2-1.8-2.1-2.5-.1-.1-.9.7-1.8 1.6-.9.9-1.9 1.8-1.8 2.1.1.5 1.6 1.8 2.7 2.6.4.3 1.1.6 1.6.8.5.2 1 .1 1 .2.1.2-.8.9-1.4 1.3-.5.3-1 .7-1.1.6-.5-.3-1.9-2-2.7-2.9-2.7-3-3.6-3.2-3.5-3.6-.1 0 .7-.3 1.7-.9zm-16.2-25.9c.6-.2 2.9-1 4.9-1.9 2.1-1 3.2-1.6 3.8-2 1.1-.7 1.5-1.4 1.8-1.4.3 0 .8 2 1.7 3.8.8 1.6 2 3.3 1.9 3.6 0 .1-.6.6-1.1.7-.4.1-1.1.5-1.2.4-.3-.1.5-.6-.2-2.5-.2-.5-1.3-3.1-1.4-3.2 0 0-1 .4-1.9.9-1.1.5-2.2 1.1-2.2 1.1-.1.2.7 1.6 1.1 2.3.1.2.6.9 1 1.5.4.5.6.6.6.7-.1.3-.5.2-1 .5-.4.2-1 .7-1.3.6-.3-.1-.1-.9-.3-1.7-.5-1.2-.9-2.4-1.4-3.3 0-.1-.8.2-1.9.8-1.2.6-2.4 1-2.3 1.3 0 .5.8 2.3 1.7 3.4.3.4.6.8 1 1.1.4.3 1.4.2 1.4.3 0 .2-1 .7-1.7.8-.6.2-1.1.4-1.3.3-.6-.7-1.3-2.5-1.9-3.7-1-1.9-2.2-3.9-2.1-4.1-.1.2 1.1 0 2.3-.3zm192.5-36.5c-1.3.3-1.7.9-1.9.8-.1 0 .1-.5.2-1.3.1-.9.3-7.7.4-7.8s.8 0 1.3.1c.6.1 1.1.1 1.2.2.2.4-.7.7-1 1.9-.4 1.6-.4 3.8-.4 3.8l4.4.2s.2-2.5.2-3.5c0-.9-.6-1.2-.5-1.4.1-.2.8.2 1.6.2.7 0 1.5-.1 1.5.1.1.2-.2.4-.5.8s-.6.9-.6 1.3c-.1.8-.3 2.6-.2 2.7.1.1 4.2.6 4.4.4.2-.1.4-.9.5-2 .1-.9-.1-1.9-.1-2.3-.3-1.6-1.4-1.6-1.3-2.1 0-.3 3.3.4 3.4.6.1.2-.3.5-.3 1.8 0 .5-.2 1.7-.3 3-.1 2.1-.1 4.4-.2 4.4-.3.2-1.1-1.2-6.7-1.8-2.5-.2-4.1-.3-5.1-.1zm-58.9-97.6c.3-.4 1.4-2.4 2.3-4.7.9-2.1 1.5-4.4 1.5-4.6.1-.7.1-1.1.1-1.1.1-.1.4.2 1.4.7s5.2 2.4 6.7 2.9c-.4.8-.7 1.4-1.5 2.2 0 0-.2-.8-1.1-1.6-1.3-.9-3.3-1.7-3.6-1.6-.2.1-.6 1-1 1.9-.4 1-.9 2.1-.8 2.2 0 .1.8.6 1.6 1 .7.3 1.4.4 1.6.5 1 .2 1.4 0 1.5.1.1.1-.3.8-.7 1.5-.4.8-.7 1.6-.8 1.6 0 0 .1-.6-.2-1.1-.3-.6-1.1-1.2-1.3-1.3-.7-.3-2.1-.9-2.3-1-.2 0-1.6 3.8-1.7 4.2 0 .2 1.4 1.3 2.9 1.7.7.2 1.4.3 2 .2.5 0 1-.2 1-.1.1.1-.4.6-.7 1.2-.3.5-.5 1-.7 1-.3 0-2.1-.9-4-1.8s-4-1.8-4-1.9c-.1 0 .5-.1 1.8-2.1zm-51.9 194.4c-.5 1.5-1.1 2.7-1.1 2.7s2.9.1 5.5.3c2.2.2 3.9.6 4.2.4.2-.4.2-1 .3-1.5.1-.6.2-1.2 0-1.3s-1.1 1.2-3 1c-.6 0-3.4-.3-3.5-.5-.2-.1-.1-2.8.2-5.5.1-1.2.4-2.9.8-4.2.4-1.4 1-2.1.9-2.4-.1-.1-.8-.1-1.6-.2s-1.6-.3-1.7-.2 0 .3.1.8.2 1.3.1 1.9c0 .3-.1 2.4-.4 4.3 0 1-.3 2.9-.8 4.4zm-78.1-66.9c1.7-.6 3.6-1.1 4.6-1.4.6-.1.8-.1.8-.1.2-.2-.2-.8-.4-1.4-.2-.6-.3-1.1-.4-1.1-.1 0-.2 0-.6.2s-1.1.5-1.6.7c-1.4.6-2.9 1.1-3 1.2-.1 0-.8-1.5-1.4-3.2-.5-1.6-1.1-3.3-1-3.4.2-.1 2.2-.7 2.9-.9 1.9-.5 2.9-.3 3-.5.1-.1-.1-.7-.4-1.5-.2-.8-.6-1.6-.7-1.6-.2 0-.4.4-1.2.9-.4.2-.8.5-1.6.7-.1 0-1.6.6-3.3 1.2-2.3.7-5.1 1.5-5.4 1.5-1.2.4-1.3-.1-1.7.2-.1.1 0 .7.3 1.7.3.9.4 1.5.6 1.5.1 0 .3-.4.9-.8.3-.2 1.4-.8 2.5-1.2 1.1-.4 2.2-.6 2.3-.6.4.1 2.7 6 2.6 6.4 0 .2-1.5.8-2.8 1.2-1.1.4-1.8.6-2 .7-1.2.4-1.4.1-1.6.2-.1.1.2.6.4 1.3.3.9.4 2 .8 1.9.3 0 .7-1.3 2.3-1.9 1.3-.3 3.5-1.3 5.1-1.9zm188-27.5c-.8-.1-1.2-.3-1.6-.1-.1 0 .1 1.4 0 3.2-.1 1-.3 2.1-.5 3.1-.5 3.1-1.9 6.2-1.8 6.6.1.2.6.2 1.3.4.7.2 1.5.5 1.6.4.1-.2-.2-.4-.4-1.3-.1-.4-.1-1.5-.1-2.1.1-.6.2-2.1.7-2.5.5-.4 7.5 1.1 7.9 1.2 3.2.8 3.8 1.9 4.2 1.9.2 0 .1-.5.4-2.3.2-1.2.4-2.3.2-2.4-.4-.3-.8 1.3-3.6 1-.6-.1-8.1-1.2-8.7-1.5-.3-.2 0-1.9.1-2.4s.5-1.3.9-1.8c.5-.6.9-.8.8-.9 0-.4-.6-.4-1.4-.5zm-188.1 13.5c.8-.2 1.6-.3 1.7-.6.1-.2-1.1-2.9-1.7-6-.6-2.9-.7-6.2-.9-6.4-.2-.2-.7.1-1.3.2-.7.1-1.6.1-1.7.3 0 .1.6.7 1 1.2.2.2.5.9.8 1.7.3.9.4 1.8.2 2.1-.3.5-7.5 1.7-7.9 1.8-3.3.4-4-.3-4.4-.1-.2.1-.1.4.3 2.2.3 1.2.3 2.2.6 2.3s.4-.5 1-1c.5-.5 1.5-1 2.6-1.1.6-.1 7.7-1.6 8.3-1.5.2 0 .6 1.1.7 2.2 0 .5.2 1.2-.1 1.9-.2.6-.8 1-.7 1.3.2.1.8-.3 1.5-.5zm67.9-121.1c-1.1-5.3-5.9-6.5-8.4-5.9-6.3 1.7-5.7 7.5-5.7 7.5.3 6.1 6 8.1 9.2 6.8 2-.7 6-3.1 4.9-8.4zm-4.8 7c-2.3 1-4.9.1-6.5-3.7-2.1-5.3.7-7.2 2.3-7.8 2.1-.7 4.8.2 6.3 3.8 1.7 4 .8 6.5-2.1 7.7zm-69.6 68s-5.5-1.4-7.7 4.7c-.9 2.5-.6 7.2 4.3 8.8 4.9 1.6 8.1-1.4 8.8-3.3 1.8-4 .4-9.3-5.4-10.2zm4.7 8.7c-.8 2-3.4 3.8-7.2 2.5-4-1.4-4.7-4.1-4.2-5.8 1.1-3.3 5.7-3.6 7.9-2.6 1.3.6 5 2 3.5 5.9zm14.1-48.9c-4-2.5-9-1.3-10.7 3.7-.8 2.5-.2 7.1 4.6 9.2 4.8 2 8-1.4 9-3.9 2.4-5.9-2.9-9-2.9-9zm1.7 9c-.7 1.6-2.8 3.6-6.8 1.9-3.6-1.6-5.1-5.1-4.3-7.1 1.5-4 5.4-2.9 6.7-2.4 2.4.6 6.1 3.9 4.4 7.6zm55.3-51.9c.1-.2.5-.3 1.7-.4 1.1-.2 3.5-.8 5.1-1.1 1-.2 1.6-.4 1.8-.3.4.3.9 2.3.7 2.5-.2.1-1-.6-2.4-.5-.5 0-3.1.4-3.6.7-.2.1 0 .8.2 1.6.3 1.2.7 2.7.8 2.8.1 0 2-.2 3.2-.8.9-.4 1.2-1.1 1.4-1.1.2 0 .3.7.4 1.6.1.8.6 1.7.2 1.8-.2.1-.7-.5-1.5-.6-.4-.1-1.1 0-1.8.1-.9.1-1.7.4-1.8.4-.1.2.6 2.8.8 3.4.2.6.7 1.2 1.1 1.6.4.4.8.6.7.8s-.9.2-1.9.4c-1 .3-2 .6-2.1.4-.1-.1.1-.6.1-1.1.1-.6-.3-3.8-.7-5.6-.5-2.4-1.4-4.6-1.5-4.8-.2-1.1-1-1.6-.9-1.8zm-56 161.2c1-.8 1.5-1.9 1.6-1.9.2 0 1.2 1.8 2.5 3.4 2.1 2.6 2.8 3 2.8 3.1 0 .1-.4.4-.8.7-.5.5-1 1.2-1.3 1.1-.3-.1.4-1-.6-2.5-.3-.4-1.8-2.6-2.4-2.6-.3 0-.9.5-1.5 1-.8.6-1.6 1.2-1.6 1.4 0 .3 1.4 1.8 1.9 2.6.6.7 1.5.8 1.5.8l-2.5 1.9s-.2-1.7-.7-2.4c-.2-.3-.5-.8-.8-1.2-.4-.5-.6-.9-.8-.9-.2 0-2.6 1.9-3 2.3-1.5 1.4-1 2.4-1.4 2.4-.2 0-.6-.7-1.2-1.4-.5-.7-1.2-1.3-1.1-1.4.2-.3.6.1 2.2-1 .3-.3 4.6-3.2 7.2-5.4zm-21.2-60.8c.8 0 2.7 0 4.2-.2 1.2-.1 2.2-.5 2.2-.5.1.1-.3 2.4-.4 4.4 0 3.3.1 4.5 0 4.7-.1.1-.4.1-.9 0-.7-.1-1.7.1-1.8-.1s.5-.2.8-.9c.2-.4.3-1.1.3-1.7.1-.5.4-3.2 0-3.6-.2-.2-1.2 0-2.1-.1-1 0-2-.1-2.1 0-.2.3-.1 2.9-.1 3.1 0 .9.6 1.9.4 2.1-.1.1-.7.1-1.3.1-.7 0-1.4 0-1.5-.1-.1-.3.7-.8.8-2.5 0-.3.1-2.5-.1-2.7-.2-.2-2.8-.2-3.4-.2-2 .1-2.4 1.2-2.7 1-.1-.1 0-1.2 0-2.1 0-.8-.2-1.8.1-1.9.5-.2.7.5 2.6.7.3.1 2.5.4 5 .5zm159-86.5c-.8-.4-2.9-1.7-3.4-2s-1.4-1.1-1.7-1c-.3.1.2 1.2-.7 3-.5.9-3.1 5.8-3.4 6.4-.8 1.5-2.7 2.7-2.7 3 0 .1.7.5 1.5 1s1.7 1.1 1.8 1c.2-.2-.3-1 .4-2.4.4-.8 1.9-3.7 1.9-3.7s.5.2.7.6c.6 1.8 1 4.9 1 8.3.2 1 1.7 1.5 2.9 2.2.2-.6-.1-1.7-.6-3.2-.4-1.5-1-5.9-.8-6.1.2-.2 3.1.4 4.5-1.9 1.4-2.4-.2-4.6-1.4-5.2zm-.6 4.2c-.4.8-1 1.2-1.8 1.4-.8.2-1.6.1-3.4-1 .3-.6 2.4-4.6 2.7-4.7.3-.1 1 .1 1.8.7.9.8 1.4 2.2.7 3.6z"/><path d="M-534.4 1134.8c.2 1 2.6 2.4 2.9 2.2.3-.2-.2-1.7-.6-3.2m38.1 24.2c-.5-.7-1.7-2.4-2-2.9s-.8-2-1-2c-.3 0-1 1.9-2.6 3-.8.6-4.3 2.8-4.9 3.2-1.4.9-4.1 1.6-4.2 1.9-.1.1.4.8.9 1.5.5.8 1 1.7 1.2 1.7.3 0-.1-1 1.8-2.3.7-.5 2.8-2.1 2.8-2.1s.2 1.4.2 1.8c-.2 1.1-.4 2.1-.9 3.4-.2.5-.5 1-.8 1.5s-.5 1-.8 1.6c-.1.5.4 1.1.7 1.7.3.7.5 1.4.7 1.4.6 0 .7-1.3 1.1-2.6.2-.8.8-2.4 1.3-3.7.3-.7.4-1.5.6-1.9.1-.2.2-.2.3-.2.1 0 2.4 1.5 4.6.1 2-1.3 1.9-3.8 1-5.1zm-2.4 3.6c-.8.9-2.4.8-2.9.7-1.6-.4-1.9-1.1-2.5-2.3.5-.4 4.5-3.2 4.8-3.2s.8.6 1.2 1.5c.3.7.6 1.9-.6 3.3zm-24.1 135.9c-.2-.3-.8.3-2.8.1-2.8-.5-6.5-1-6.8-1.4-.3-.4 1.8-2.6.2-4.9-1.2-1.8-3.3-1.6-4-1.3-.8.3-6.1 3.7-6.1 4.1s.9-.3 2.1 1.4c.6.9 3.7 5.8 4.1 6.4 1.6 2.7 1.4 3.7 1.6 3.8.1 0 .8-.4 1.5-.9s1.4-1 1.6-1.1c0-.3-1.9-.9-3.1-3-.5-.8-1.6-2.6-1.6-2.6s1-.4 1.5-.4c1.5.2 3.9 1 5.6 1.5 1.6.4 3 .7 3 .7.3.1 1-.7 1.9-1.4.7-.5 1.3-.9 1.3-1zm-10.2-2.3c-.2.8-1.7 1.5-3.5 2.5-.4-.5-2.6-4.2-2.6-4.2s.7-.9 1.6-1.3c1.2-.6 2.9-.8 3.9.7.6.6.8 1.5.6 2.3zm-44 23.2c-2.2-1.8-4.7-3.7-4.7-4.1-.1-.5 3.1-1.8 2.8-4.6-.2-2.2-2.1-3-2.9-3.1-.6-.1-3.4.1-5.4.3-1.1.1-2 0-2.1.3 0 .4.9.7 1.2 2.3.1.4.4 1.5.5 2.8.2 2 .3 4.4.3 4.8.1 3.1-.6 4.2-.5 4.3.1.1 1.1-.1 1.9-.2.8-.1 1.6-.1 1.8-.2-.1-.3-1.2-1.7-1.2-4.1 0-.9-.1-2.4-.1-2.4s1.2.3 1.5.6c1.1 1.1 1.8 2 3 3.3.6.6 1.5 1.7 2.4 2 .7.3 1.4 0 1.9 0 .9-.1 1.4-.2 1.4-.3 0-.6-.2-.5-1.8-1.7zm-8.5-4.5c-.1-.7-.4-5.6-.4-5.6s.9-.3 1.9-.3c1.3.1 2.8.5 3 2.3.1.9-.1 1.8-.7 2.4-1 1.1-2 1.3-3.8 1.2zm-62.9-178.8c-2.4-.3-5.1-1-5.5-1.1-.4-.1 1.2-2.8-.6-4.8-1.5-1.6-3.3-1-4-.7-.9.4-1.8 1.6-3.2 2.8-1.4 1.3-2.2 1.5-2.1 1.9.1.4.7 0 2.2 1.3.3.3 1.2.9 2.1 1.8.7.7 2.1 2.2 3.1 3.6 1.1 1.6 1.9 3.1 1.9 3.2.1 0 .8-.8 1.4-1.3.6-.6 1.3-.9 1.4-1.2-.2-.1-.7-.1-1.7-.8-.4-.3-.9-.9-1.5-1.4-.7-.6-1.9-2-1.9-2s.2-.6 2.8-.4c.7.1 2.3.5 3.7.9 1.2.4 2.3.8 2.5.7.3-.2.8-.6 1.4-1 .7-.5 1.5-1 1.5-1.2-.1-.3-1.7-.1-3.5-.3zm-8.6 1c-.2-.2-1.1-1.1-1.9-2-.9-1-1.6-2.1-1.6-2.1s.7-.9 1.5-1.4c.9-.6 2.2-.8 3.3.4.6.6.9 1.4.8 2.2-.2 1.3-.9 1.9-2.1 2.9zm34.4 165.4c-1.1-1.1-3.3-1.5-4.1-1.9-1.4-.6-2.6-1.3-2.7-1.1-.2.3.3.7-.4 2.4-.1.2-.4 1.4-.9 2.7-.4 1.1-1.5 3.6-2.6 5.4-.9 1.5-1.7 2.5-1.7 2.5.1.1.8.3 1.6.6s1.6.8 1.8.8c.1-.3-.2-2.2.8-4.4.4-.8 1-2.2 1-2.2s.6 0 1 .7c.7 1.1 1.4 3.1 1.8 4.1.3.8.8 3.3 1.4 4 .2.3.9.4 1.6.6l1.4.4c.2-.3-.4-1.3-1.4-3-1.2-2.6-2.1-5.5-2.1-5.5s3.2.5 4.4-2.5c.2-1.1.2-2.6-.9-3.6zm-1.2 3.3c-.3.8-.9 1.5-1.7 1.8-1.5.6-3.7-.8-3.9-1.1.6-1.6 1.5-3.6 2.3-4.9 0 0 1.3.4 2.2 1.1.9.8 1.5 1.9 1.1 3.1zm108.2-171.1c.3 0 2.2 1.9 2.1 2.1 0 .2-1.4.7-2.2 1.6-.5.4-3.5 3.3-5.6 5.9-.6.7-2.1 2.8-2.3 2.8-.3 0-.4-.3-.4-.5-.5-5 .2-14.3-.1-14.5-.3-.1-4.5 5.8-5.4 7.1-.5.8-.1 1.5-.3 1.8-.2.2-2.9-1.8-2.8-2.1.1-.3.8 0 2.3-1.6.9-.9 2.4-2.7 3.3-3.7 1.2-1.5 2.1-3 2.3-3.2.6-.9.5-2.5.7-2.6.2-.1 2.6 2.1 2.6 2.1s-.2 12.8 0 12.6c.9-.7 4.4-5.1 4.8-5.7.7-1.4.7-2.1 1-2.1zm26.1 39c-.5.5-1.9 1.6-2.4 1.2-.1-.1.2-.4.2-.5.3-.9.4-1.8.2-2.5s-1.1-2.2-2.7-1.5c-3.2 1.3-.6 6.7-4.2 8.2-1.2.5-3.1.4-4.3-.8-1.7-1.8-1.8-3.5-2.2-4.6 1.1-.6 2.2-1.2 3.4-1.5-.9 1-1.8 2.9-.7 4.7.8 1.2 2.3 1.5 3.3-.2 1.5-2.6-.2-5.9 3.4-7.3 1-.4 3.3-.7 4.9 2.2.4.5.9 1.7 1.1 2.6zm-9.9 64.8c.4 0 .9.3 1.4.4.6.2 1.1.3 1.3.6.1.1-.4.1-.5.2-.9.4-1.4 1-1.8 1.6-.4.7-.8 2.3.8 3 3.1 1.4 5.1-4.4 9.1-2.7 1.2.5 2 1.9 2.1 3.6.2 2.4-1 3.8-1.7 4.8-1.2-.1-2.1-.5-3.1-1.2 1.2-.4 3.2-.7 3.6-2.8.3-1.4-.9-2.9-2.8-2.4-2.1.5-4.9 4.4-7.7 2.7-.9-.5-2.7-2-1.7-5.2.2-.4.4-1.8 1-2.6zm-60.9 63.7c1.7-1 3.9-.9 3.9-.9l.5 1.4c.2.6.7 1.2.4 1.4-.3.2-.3-.3-2.3-.9-1.3-.4-4.1 1-3 2.9 1.3 2.2 5.9 1.2 7.6 3.7.2.4 1.1 1.4 1 2.8-.1.7-.3 1.8-1.5 2.7-.7.5-1.9 1.1-3.3 1.4-1.3.3-2.7.2-3 .2-.3-.5-.2-1.3-.3-1.9 0-.5-.6-1.5 0-1.7.2 0 .4 1.1 1.5 1.5.9.3 2 .5 3.2.1 1.5-.5 2.1-2.5.7-3.9-1-.9-2.7-1-4.6-1.4-1.6-.3-3-1-3.1-3.5-.1-1.3.5-2.9 2.3-3.9zm53.9-34.9c-.9 0-1.9-.3-2.6-.9-.7-.5-1.1-1.4-1.3-2.3-.1-.8-.1-1.6.1-2.1.5-1.8 1.3-2.7 1.9-2.8.3 0 1.2.6 1.3.6.5.3 1.5.6 1.4.9-.1.4-1-.3-1.9.2-.5.3-1.1.9-1.3 1.5-.5 1.1-.4 2.3.9 2.7 2.7.7 5.1-3.2 7.6-2.6.4.1 1.4.4 2.3 1.5.4.5.9 1.5.9 2.7 0 1.2-.2 2.1-1.2 3.3-.8 1-1.8 1.5-2 1.7-.6-.2-.8-.5-1.2-.8s-1.5-.7-1.2-1.1c.2-.3.8.5 2.4-.3.8-.4 1.3-.7 1.8-1.7.7-1.4-.1-3.1-2.2-3-.9 0-2.8 1.3-3.7 1.9-.4.3-1.1.7-2 .6zm-168.9-98.8c-.5-.7-1.2-1.2-1.9-1.6-.5-.3-1.8-.4-2.8 0-1 .4-1.7 1.5-1.8 1.4-.3-.1-.2-2.3-2.5-3.2-2-.8-4 1-4.3 1.8-.2.5-.5 1.8-1 2.9-.8 1.8-1.4 2.3-1.2 2.6.2.3.9-.4 2.7.3.5.2 2.8 1.1 4.8 2.1 1.9.9 3.6 1.9 3.9 2.1 1.6.6 1 1.3 1.5 1.2.5-.1.2-.8 1.6-3.5.4-.7.7-1.4 1.1-2.3.7-1.5.5-2.8-.1-3.8zm-8.2 4.1c-.6-.2-4.4-2.1-4.4-2.1s-.1-.9.3-1.9c.5-1.2 1.9-1.9 3.6-1.2.8.3 1 .8 1.2 1.5s.1 1.7-.7 3.7zm6.6 0c-.7 1.6-1.3 2.2-1.3 2.2l-4.6-1.8s.4-1.2 1.2-2.4c.7-1.2 1.8-2.3 3.5-1.6 1.8.7 1.7 2.3 1.2 3.6zm39.8-50.4c-3.2-4.3-7.7-2.9-9.5-1.9-.9.5-2 1.3-3.4 2.6-1.3 1.1-2.2 1.2-2.2 1.7 0 .2 1.1.7 2 1.6 1.1 1 2.3 2.5 2.9 3.4.7 1 1.7 2.7 2.4 4 .5 1 .8 1.9 1 1.9.2.1.6-.3 1.2-.7.7-.5 1.5-1 2.1-1.3 6.1-3.1 6.2-7.6 3.5-11.3zm-1.2 8.2c-.7.9-2.2 2.6-3.6 2.5-.4 0-2.1-1.9-3.7-4.1-1.7-2.3-3.2-4.8-3.2-4.9 0-.3 1.2-1.2 3.1-2.4 1.5-.9 4.6-.6 6.6 2 2.1 2.8 1.9 5.4.8 6.9zm-8.9 158.9c-.8-1-2.8-2.5-3.9-3.2-1.1-.7-2.7-1.7-2.7-1.7s-.8 1.7-1.7 3c-.3.4-4.3 5.1-4.7 5.6-.8.8-1.8 1.4-1.8 1.8 0 .3 1.7 1.4 2.6 2.2.5.4 2.2 2.2 4.5 2.9 2.4.8 5.2.7 7.7-2.2 2.9-3.4 1.4-6.7 0-8.4zm-2.1 7.3c-.9 1-2.8 2.9-4.6 2.6-2.9-.5-5.2-4.4-5.2-4.4s2.6-3.2 3.8-4.5c1.1-1.3 3-3.4 3-3.4s2.2 1 3.5 2.7c1.3 1.8 1.7 4.5-.5 7zm-8.2-152.1c-.9-.2-4.3-1.4-7.2-2.7-2.8-1.2-5.2-2.7-5.3-2.7-.1.1-.1.7-.3 1.4-.2.8-.7 1.1-.7 1.7 0 .2 2.5 3.9 3.7 6.9.5 1.2 1.1 2.9 1.7 4.8.4 1.1.2 1.5.5 1.6.2.1.8-.6 1.3-1.2.5-.5 1-1 .9-1.1-.1-.2-1-1.1-1.6-2-.5-.7-.8-1.4-.9-1.9.3-.6 2.9-3.4 3.7-4.1.3.1 1.4.7 2.1 1.3.8.6 1.3 1.3 1.4 1.3.1 0 .8-.8 1.5-1.5.8-.8 1.7-1.6 1.6-1.7-.1 0-1 .3-2.4-.1zm-8.5 3.2c-.3.2-3.2-5.5-2.9-5.5.2 0 1.4.5 2.7 1 1.5.6 3 1.2 2.9 1.3-.1.3-2.3 2.9-2.7 3.2zm57.9 171.5c-.9-1.8-1.2-3.7-1.6-6.7-.5-3.3-.7-6.9-.8-7-.1-.2-.8.1-1.4.1-.6.1-1.2 0-1.4.2-.4.4-.3.6-1.7 2.7-1.3 1.9-3.1 4.1-4.8 5.9-1.5 1.7-2.7 2.6-2.7 2.7 0 .2.8.3 1.6.5s1.5.6 1.8.3c.2-.2-.1-.8.4-2 .3-.6 1-1.7 1.4-1.8.5-.2 1.7.3 3.1.5 1.4.2 2.5.3 2.6.5.2.3.3 1.9.5 3.3.1.7 0 1.4.1 1.6.1.1.9.1 1.8.2s1.6.3 1.6.1c.2-.2-.1-.4-.5-1.1zm-3.7-5.5c-.1.1-1.5-.1-2.6-.3-1.1-.3-1.5-.5-1.8-.6-.1-.1.8-1.4 1.7-2.8.8-1.1 1.4-2 1.6-2.2s.6.6.8 1.5c.3 1.7.4 4.3.3 4.4zm58.6-202c-.8-.4-1.4-.9-1.5-.8-.1.1.1 1.2-1.8 3.8-1 1.5-3 3.8-4.1 4.8-.5.4-.7.2-.8-.3-.1-.6-.7-7.4-.7-8.2 0-.3.1-.8.3-1.1.2-.4.4-.5.4-.7 0 0-1.2-.2-2.3-.4-1.4-.2-2.1-.9-2.3-.6-.2.2.8.7 1.3 2.4.3 1.6 1.4 7.1 1.2 12 0 1.3.9 1.2 1.4.5 1.1-1.5 6-6.5 8.8-9.1 1.1-1 1.9-1.3 1.9-1.4.1-.2-1-.5-1.8-.9zm28.6 169c-.7.6-1.4 1.1-1.3 1.2 0 .3 1.4.7 2.1 2.4.3.7 2.7 6.9 2.4 7.2-.4.2-6.7-3.2-7.5-3.6-1.6-.8-.9-1.9-1.3-2-.2 0-1.1.8-2.1 1.7-1 .9-2.2 1.8-2.1 2 0 .2 1.6-.3 3.7.2 1.3.5 4.7 1.9 7.5 3.2 2.5 1.2 4.3 2.6 4.7 2.3.5-.4-1.8-3.8-3.4-9.8-.3-1-.7-1.9-.8-2.8-.3-1.8-.2-3.1-.3-3.2-.2-.2-.9.6-1.6 1.2zm28.7-70.2l-.3-2.8s4.9-2.9 6.9-4.3c2.1-1.4 3.4-2.5 3.4-2.5s-3.6-1.3-5.9-1.9c-2.3-.6-5.1-.9-5.2-1-.1-.1-.8-2.4-.7-2.6.1-.2.9.4 3.3.1.5-.1 3.4-.4 5.8-1.2 3.8-1.2 4.1-2.1 4.5-1.9.2.1.3.8.4 1.5.2.9.4 1.8.3 1.8s-1-.1-2-.1c-1.2.1-2.7.4-3.7.6-2 .5-3.6 1.1-3.6 1.1s3 1.1 6 2c2.4.7 5 1.4 5 1.6s-3 1.9-5.6 3.5c-2.6 1.7-4.8 3.4-4.8 3.4s7.8-.2 8.7-.3 1.3-.5 1.6-.4c.1 0 .1.7.1 1.4s0 1.4-.1 1.5c-.3.1-.2-.2-1.4-.3-.7-.1-2.9-.6-5.2-.6-6.4 0-7.5 1.4-7.5 1.4zm5.7-25.8c0 1.3-1.1 2.4-2.4 2.4s-2.4-1.1-2.4-2.4 1.1-2.4 2.4-2.4 2.4 1.1 2.4 2.4zm-194.5-2c0 1.3-1.1 2.4-2.4 2.4s-2.4-1.1-2.4-2.4 1.1-2.4 2.4-2.4 2.4 1.1 2.4 2.4zM-671.3 1213.2c0-8.6 1.3-16.9 4-25 2.1-6.5 5-12.6 8.7-18.3 2.9-4.5 6.1-8.7 9.8-12.6 3.8-4 8-7.7 12.6-10.9s9.4-5.9 14.5-8.3c3.3-1.5 6.9-2.6 10.4-3.6 3.4-1 6.9-1.8 10.5-2.4 5.2-.9 10.5-1.1 15.8-.8 3.8.2 7.6.2 11.3.9 4.5.8 8.8 2.2 13.2 3.4 6.7 1.9 12.7 5.1 18.6 8.8 3.4 2.1 6.6 4.8 9.7 7.4 6 5.1 11 11.1 15.2 17.7 3.6 5.7 6.7 11.6 8.5 18.2 1.1 3.9 2.2 7.8 2.9 11.7 1.1 5.7 1.2 11.5.8 17.2-.4 6.8-1.8 13.4-4 19.8-1.7 5-3.8 9.9-6.6 14.4-1.9 3.1-3.7 6.2-5.9 9-3.7 4.9-7.8 9.3-12.6 13.1-3.5 2.8-7 5.4-10.8 7.8-3 1.9-6.3 3.4-9.5 4.9-3 1.4-6 2.6-9.1 3.6-3.3 1-6.7 1.9-10.2 2.5-3.8.7-7.6 1-11.4 1.4-2.1.2-4.3.4-6.5.2-3.7-.3-7.4-.8-11.2-1.3-2.2-.3-4.4-.6-6.6-1.1-2.4-.6-4.8-1.2-7.1-2.1-4.1-1.6-8.3-3.1-12.2-5.2-3.7-1.9-7.1-4.3-10.6-6.7-2.6-1.8-5.1-3.8-7.4-6-2.7-2.6-5.1-5.4-7.5-8.3-3.4-4-6.1-8.6-8.6-13.2-3.7-6.9-6-14.3-7.6-21.9-.5-2.4-.7-4.9-.9-7.3.1-2.3 0-4.7-.2-7zm109.3-60c.5.3 1 .7 1.6.9 2.3.9 3.9 2.3 4.7 4.7.1.3.5.6.7.6.2 0 .6-.4.7-.7.6-1.2.3-2.5-.5-3.4-1.5-1.6-3.2-3-4.9-4.5-.8-.7-1.8-1.3-2.7-1.9-.1.1-.2.2-.4.3.1 1.5-.3 2.9.8 4-.4-.1-.8-.3-1-.5-1.3.3-2.1.9-1.4 2.3.1.1 0 .3 0 .4.1.9.3 1.5 1.2 2 1.8 1 3.9 1.6 5 3.7.3.6.9.3 1.2-.3.4-1-.4-2.8-1.5-3.8-1.3-1.3-2.4-2.6-3.5-3.8zm-6.2 35.7c1.1 1.6 2.1 3.2 3.2 4.7.2.3.7.4 1 .7.1-.4.3-.8.2-1.1-.7-1.9-1.4-3.7-2.2-5.5l-2.7-5.7c-.2-.3-.6-.5-.8-.8-.1.1-.2.1-.3.2.1.6.2 1.2.2 1.7-1.4-.7-2.7-1.5-4.1-2-2-.9-3.1-.4-4 1.6l-.3.9-.1.1c-.3-.1-.7-.3-1.1-.5-1.6 2.5-1.8 5.1-1.4 8 .5-.1.7-.1 1.1-.2v1.9c0 1-.2 2 0 2.9.3 1.4 1.8 1.7 2.9.7.2-.2.5-.2 1-.4-.1.9-.2 1.7-.3 2.5 2.6-.9 1.5-4.7-.1-7.4-.3.7-.5 1.5-.8 2.2h-.4c-.3-1.2-.6-2.4-.9-4 .8.5 1.2.8 1.9 1.3v-5.7c.6 2 1.2 3.8 1.5 5.6s1.1 3.2 2.3 4.4c.3.3.7.4 1.2.7-1.1-3.9-2.1-7.5-3.1-11.1 1.3 1.8 2.6 3.7 3.9 5.6.2-.1.3-.2.5-.3-.6-1.8-1.2-3.6-1.7-5.4.2-.1.3-.2.5-.3.7 1.5 1.8 3.1 2.9 4.7-.2-.1-.5-.3-.8-.5-.1.1-.2.1-.4.2.7 3.2 1.2 6.5 2.8 9.7.4-.6.7-1 1.1-1.4.8-.9.8-1.5-.1-2.6-1.2-1.6-2.5-3.3-2.6-5.4zm-35.2 3.8c.8.3.8-.2.8-.7v-2.2c.1 0 .3 0 .4-.1.1.4.4.8.3 1.2-.3 2.5.2 5 .6 7.5.1.4.4 1 .8 1 .8.1 1.6 0 2.6 0-.2-1.6-.4-3-.6-4.4.6.8 1 1.7 1.3 2.6.8 2 .8 2 1.7 2.1-.3-2.7-.8-5.3-2.6-7.5 1 .9 1.8 1.9 2.3 3 1 2 2.3 3.9 1 6.3-.1.2 0 .5.1.8.1.2.4.6.5.5.2-.1.6-.3.6-.5.4-1.4 1.3-2.7.4-4.3-1.1-2-1.6-4.3-3.6-5.8-.7-.5-1.2-1.4-1.8-2.2 2.1 1.3 3.9 2.9 5 5.2.4.8.8 1.7 1.4 2.4.3.4.8.7 1.5 1.2-.3-3.2-2.7-4.7-3.8-6.9-1.1-2.2-2.5-4.3-3.7-6.3-1.4.6-2.4 1.1-3.5 1.6-.2-.7-.5-1.5-.7-2.3.1-.1.2-.1.3-.2.4.3.8.6 1.2.8.4.2.8.2 1.2.3 0-.5.1-1 .1-1.5 0-.2-.3-.3-.4-.5-.1-.4-.3-1-.1-1.2.3-.3.9-.3 1.3-.3.7 0 1.4.3 2 .2 1.1-.3 1.7.3 2.2.9.8.9 1.5 1.8 2.2 2.7-.5-.1-1-.2-1.9-.4 2 3 3.7 5.8 5.6 8.5.4.6 1.2.9 1.8 1.3.1-.1.3-.2.4-.4-.8-1.5-1.5-3.1-2.5-4.6-1-1.6-2.3-3-3.5-4.5 1 .6 2.1 1.2 3.3 1.8 0-1.7-1.2-2.3-2-3.2-2.2-2.6-4.9-4.4-8.2-5.2-1.5-.4-3-.2-4.1.9-2 2-2.3 4.4-1.6 7 .4 1.5.8 3.1 1.2 4.6-.4-.2-.8-.3-1.2-.5-.1.7-.3 1.4-.4 2-.2.6-.4 1.3-.5 1.9-.1.5-.2 1-.1 1.5 0 .2.8.4 1 .3.4-.3.8-.8 1-1.3.5-.9.6-2 .7-3.1zm-16.3-12.3c-1.8-.6-3-.3-3.2.9-.2 1.2-.3 2.5-.6 3.7-.3 1.7-.5 3.4-2 4.7-.6.6-1.1 1.3-1.6 2 .6 1.2 1.4.9 2.2.4 3.8-2.7 4.9-6.7 5.7-11 2.4-.4 4.2-1.6 5.3-3.8.6-1.3 1.2-2.6 1.9-4-.3 1.8-.5 3.6-1.3 5.3-.8 1.7-2 3.3-4.3 3-1.2-.1-1.3.5-1.4 1.5-.2 2.5-.4 5-2 7.1-.9 1.2-2 2.3-3 3.3 1.7 1 4.1.3 5.1-1.8 1.4-3.1 2.5-6.2 3.9-9.5 1.7-.2 3.5-1 4.5-2.8.8-1.5 1.1-3.1 1.7-4.7.4-1 .4-1.6-.9-1.6-.3 0-.7-.4-1-.6-.5-.3-1-.6-1.5-.7-1-.3-2.3-.3-2.6-1.5.8.1 1.7.4 2.3.1 1-.5 1.8-1.3 2.5-2.1 1.1-1.4 2-2.9 2.9-4.4.4-.7.1-1.3-.7-1.3-.9 0-1.7.3-2.5.5 0-.2.1-.5 0-.7-.4-1-.7-2-1.2-3-.1-.2-.5-.4-.8-.4-2-.3-2.4-.8-2.7-2.9 0-.3-.3-.7-.6-.9-.6-.3-1.4-.5-2.3-.8-.6.9-1.4 1.7-1.9 2.7-1 1.9-2.2 3.7-4.1 4.8-1.2.7-2.5 1.6-4 .8-.9-.5-1.4-.3-1.8.6-.1.3-.4.5-.6.8.3-.6.5-1.1.8-1.7.2-.4.3-.8.4-1.2-.4-.1-.8-.3-1.3-.4-.8-.1-1.6-.2-2.4-.4v-.5c2.7.4 4.4-1 5.9-2.9 1.6-1.9 3.3-3.8 5-5.6.7-.7 1.8-1.2 2.7-1.6.9-.5.7-1 .1-1.4-.6-.3-1.3-.3-2-.2-2.3.5-4.6.7-6 3.1-.7 1.3-1.6 2.5-2.5 3.6-1.8 2-3.2 4.4-6.4 4.7-1.4.1-2.3-.4-3.4-1.3 2.1.1 3.9.3 5.4-1.1 2.1-2.1 4.2-4 6.3-6.1.9-.9 2-1.7 1.3-3.3 3 .5 2.5.3 5.7-.5 1.5-.4 3.2-.5 4.8-.5.6 0 1.1.7 1.7 1.1.1.1 0 .3 0 .5-.5-.2-1-.3-1.5-.5-.3-.1-.5-.1-.8-.2-.8-.3-1.1.1-1.1.8-.1 1.5.9 2.1 1.9 2.4-.4.5-1.3 1-1.2 1.4.3 1.6 1.8 1.8 2.8 1.8.1.9 0 2 .5 2.4.6.5 1.7.5 2.6.7.4 3.6.7 3.9 3.8 2.9.4 2.5 1.3 3 3 1.8 1.1.2 1.7.5 2.4.4.8-.1 1.3-1.9 1.1-3.5h-.6c-1.9.4-3.6.1-5-1.3-.4-.4-1-.8-1.5-1.1-2.1-1.4-3.3-3.4-4.1-5.7 1.9-1.4 1.7-3.2 1.5-5.2-.3-2.5-2.8-2.3-4-3.6.2-.1.5-.3.7-.2 1.2.7 2.6 1.2 3.6 2.2 2 1.9 2.5 4.2 1.2 6.7-.7 1.3-.5 2.6.3 3.5 1.7 1.9 3.6 3.6 6.2 4.2 1.4.3 2.2-.2 2.7-1.7.1-.4.4-.8.6-1.1 2-2.2 4-4.3 6-6.4 1-1.1 1-1.2-.4-2-2-1.2-4.1-1.5-6.4-1-.1.4-.2.8-.4 1.2-.1 0-.2.1-.4.1-.4-1-1.1-1.9-1.3-2.9-.4-2.3 1.2-3.9 3.7-4.1 1.6-.1 2.9-.2 3.8-1.9.4-.8 1.5-1.5 2.4-1.6 2.1-.3 4.3-.3 6.5-.3 2.4 0 4.5.7 5.9 2.6.9 1.2 1.7 2.8 1.8 4.2 0 1 .1 2 .4 2.9.1.3-.1.7-.1 1.1h-.4c.2 1.4 2 2.6.6 4 .3.5.5 1 .8 1.4.9 1.6 2 2.1 3.6 1.6.7-.2 1.4-.8 2-1.3 1.9-1.3 2-1.8.5-3.4-1.6-1.8-1.6-4 0-5.8.6-.6 1.2-1.2 1.7-1.8 1.2-1.4 2.6-2.1 4.5-2.1 2.7 0 5.4.1 8.2.8 2.8.7 5.5 1.6 7.9 3.2 1.7 1.2 3.5 2.2 5.2 3.4 2.5 1.8 5.2 3.3 7.3 5.5 2.8 2.9 5.3 6.2 7.7 9.5 3.7 4.9 7.1 10 10.8 14.9 1.6 2.1 3 4.4 5.4 5.7.9.5.5 1 .1 1.5-1.8-.6-3.6-1.2-5.8-1.9 3.2 5.2 6.3 10 10.3 14.2-1.7-9.8-5.3-18.8-10.7-27-10-15.4-23.7-26.4-41-32.7-17.4-6.3-35.1-6.8-52.8-1.3-15.2 4.6-28.1 13.1-38.4 25.2-6 7.1-10.9 14.9-14.2 23.6s-5.1 17.7-5.3 27c.2.1.3.1.5.2 2.1-2.7 4.1-5.3 6.2-8l-.3-.3c-1.5 1-2.7 2.8-5.1 1.6 1.9-3 3.7-6 5.6-9.1-1.2.1-2.2.2-3.2.2-.3 0-.7-.4-.9-.7-.1-.2.2-.6.4-.9.9-.9 1.9-1.6 2.6-2.6 2-3 3.9-6 5.8-9.1.3-.5.4-1 .7-1.7-1.5 0-3 .3-3.9-1.1.5-.2 1-.4 1.3-.7 2.5-2.4 5-4.7 7.3-7.3 4-4.5 7.7-9.2 11.6-13.8 3.8-4.3 7.6-8.6 12.6-11.5 2.6-1.5 5.2-3 8-4.2 1.7-.7 3.5-.9 5.3-1.4 0 .2.1.4.1.6-.4.1-.7.2-1.1.2-2.8-.1-5.2 1.5-7.6 2.5-1.3.5-2.3 1.5-3.5 2.2-4.2 2.4-7.5 5.8-10.7 9.3-2.6 2.9-5 6.1-7.5 9.1-2.3 2.7-4.6 5.4-7 8-1.8 2-3.8 3.8-5.7 5.7-.4.4-.9.8-1.3 1.2.2.2.3.4.5.5 4.2-1.9 6.9-5.7 10.2-8.8-6.6 6.9-11.1 15.3-16.3 23.3 1.1-.5 2.2-1 3.1-1.8 1.2-1.2 2.2-2.5 3.1-3.9 3.7-5.4 7.3-10.9 10.9-16.4.4-.7.9-1.3-.5-1.6 4.2-1.4 5.1-2.1 7.6-6 1-1.6 2.2-3.1 3.2-4.7-.9 2.1-1.8 4.1-3 5.9-1.1 1.8-2.5 3.6-3.7 5.4-.8-.4-2.6.2-3.2 1.2-2.4 4.1-4.7 8.2-7.1 12.2-.9 1.5-2 3-3 4.5-1 1.4-2 2.8-3 4.3-2.1 3-4.1 6.1-6.2 9.2-.2.3-.3.6-.4.9.7.1 1.1-.1 1.5-.3 2.9-1.9 4.7-4.7 6.5-7.6 1.8-2.9 3.5-5.9 5.4-8.7 2.3-3.4 4.7-6.8 7.1-10.1.6-.9 1.4-1.6 1.9-2.6.5-.8 1.7-1.4 1.1-2.6.9-.4 1.9-.7 2.8-1.3 2.4-1.5 3.6-3.9 5-6.2.9-1.5 1.8-2.9 3.7-3.5-1 1.1-2 1.9-2.6 3-1.3 2-2.4 4.1-3.6 6.2-.3.6-.6 1.2-.9 1.7.7 0 1.4.1 2.1 0 .2 0 .4-.2.6-.3 2.2-1.1 3.5-3 4.8-4.9.6-1 1.3-2 1.9-3-1.2 2.1-2.3 4.3-3.6 6.3-.6 1-1.6 1.7-2.3 2.6-.5.6-.3 1 .5 1.1 1.4.2 2.6-.1 3.6-1.1 1.3-1.5 2.6-3.1 3.8-4.6.6-.8 1.1-1.6 1.6-2.4.1.1.3.2.4.3-1.9 3-3.8 5.9-6 9.3 1 0 1.7.2 2.4 0 3.2-1 4.8-3.5 6.1-6.4l.6-1.5c-.3 3.1-1.7 5.8-3.7 8.1-1.5 1.7-3.6 2.1-5 .1-.3-.4-1.1-.5-1.6-.4-1.2.3-2.2-.2-3.1-.9-.5-.4-.6-1.5-1.6-1-.7.3-1.5.6-1.9 1.2-1.5 2.1-2.8 4.3-4.1 6.5-.9 1.5-1.6 3.2-2.4 4.7-.3.7-.7 1.3-1.1 1.9-1.9 2.7-3.8 5.3-5.6 8-2 3.1-3.9 6.4-5.7 9.6-.6 1.1-1 2.4-1.5 3.6.1.1.2.2.4.3.8-.6 1.7-1.1 2.2-1.8 1.7-2.3 3.4-4.5 4.9-7 4.1-6.7 8-13.4 12-20.1.7-1.1 1.6-2.1 2.5-3.1-.1.7-.5 1.3-.8 1.8-1.5 2.9-2.8 5.9-4.5 8.7-1.8 3.2-4 6.3-5.9 9.5-.6 1-1 2.2-1.5 3.5.6-.1.8-.1.8-.2 1.3-1.2 2.7-2.3 3.7-3.8 2.5-3.7 4.8-7.6 7.1-11.4 1.7-2.8 3.3-5.6 4.9-8.4-.7 2.4-1.6 4.7-2.6 7-.3.7-.3 1.5-.7 2-1.9 2.5-3.6 5.2-4.7 8.1-.4 1.2-.8 2.3-1.3 3.5.6.1.9.1 1.1-.1 1.5-1.6 3.4-2.9 4.5-4.8 2.1-3.5 3.9-7.2 5.8-10.8.7-1.4 1.5-2.9 2.2-4.3-.2 1.1-.5 2.1-.8 3-.8 2.3-1.4 4.8-2.9 6.8-1.1 1.5-1.4 3.4-1.2 5.4 4.9-3.3 6.2-8.8 8.4-13.7-.3 2.2-.7 4.3-1.4 6.4-.7 2-1.7 3.9-2.6 5.9 1.5.4 2.4-.4 3-1.4 1.2-1.9 2.4-3.8 3.2-5.8.7-1.6 2.1-3.4.3-5.3.7 0 1.4.2 2 .1 2.5-.6 3.8-2.6 4.8-4.8.6-1.3 1-2.6 1.4-3.9.1 0 .3.1.4.1-.6 1.7-1 3.6-1.7 5.2-.7 1.7-1.7 3.2-2.6 4.8zm104.1 51.3c-.1 0-.2-.1-.4-.1-.5-.1-1-.1-1.5-.2.1-.6.1-1.3.4-1.8.4-.6 1.1-1.1 1.6-1.7.8-.8.8-2.1 0-2.7-.7-.6-1.9-.5-2.4.5-.9 1.7-1.5 3.6-2.2 5.4-.4.9-.6 1.9-1.2 2.7-.5.8-1.2 1.3-2 2.1.6.2 1.1.3 1.4.6.7.4 1.7.9 1.8 1.5.2.9-.1 2-1.2 2.6-.6.3-1.2.8-1.8 1.2-1.1.8-1 1 .1 1.9.5.4 1.1 1.3.9 1.5-.5.9-1.2 1.9-2.1 2.3-1 .4-2.3.2-3.5.3.3 1.4 1 1.8 2.4 1.4 1.1-.4 2.2-.8 3.5-.3.9.3 2 0 2.5-1 .5-1.1-.7-1.2-1.1-1.8-.1-.1-.3-.1-.4-.2-1.2-.8-1.1-2 0-2.9 1.1-.9 2.4-.7 3.6-1.1.8-.3 1.8-.4 2-1.5.2-1.1-.6-1.5-1.3-2.1-.1-.1-.4-.1-.6-.1 2.1-.3 2.3-.3 3 1.1.6 1.2.1 2.3-.9 2.9-1 .6-2.1 1.2-3.3 1.4-.9.2-1.7.4-1.8 1.3 0 .5.7 1 1.1 1.5s1.2 1.2 1.1 1.6c-.4 1.6-2.4 2.7-4.2 2.2-1.3-.4-2.7-.3-4-.3-.2 0-.4.3-.5.5-.4.6-.7 1.2-.9 1.6.6 1.1 1 2.1 1.7 2.9 1 1.1 1.5 2.2 1.8 3.6.1.7 0 .8-.6 1-2 .7-4.2-.4-6.1.8-.1.1-.3-.1-.5-.1-1.2-.4-1.5-1.3-1.2-3.4-.8-.7-1.5-.6-2.2.1-2.5 2.4-2.6 3.1-1.3 5.6.5-.4.9-1 1.5-1.1.9-.3 2-.6 2.8-.3s1.5 1.3 1.7 2.1c.4 1.6-2.1 3.6-3.8 3.2-1.3-.3-1.9.3-1.7 1.7.1.3.1.6.1.9.3 1.8-1.1 3.1-2.9 2.8-.4-.1-.8 0-1.2-.1-1.1-.1-1.2.6-1.1 1.4l.3 2.4c7.3-4.4 22.4-18.6 29.4-39 4.1-11.9 5-24.1 3.3-36-2.2-.5-3.5-2.1-5.4-2.8.1.4.1.7.2 1 .8 1.5 1.6 3.1 2.4 4.6.6 1.2 1.3 2.4 2 3.6.2.4.3.9.4 1.4-.6.1-1.5.5-1.9.3-1.5-1.2-2.9-2.5-4.2-3.9-.9-.9-1.7-1.9-2.7-3.1-.1 1.2-.2 2.1-.3 3-.2.1-.4.1-.6.2-4.3-4.2-6.3-10.1-10.1-14.6-.3.7-.5 1.5-.8 1.6-.5.1-1.2-.3-1.7-.6-1-.8-1.9-1.8-3-2.8-.3.5-.5.9-.9 1.5-.6-.2-1.2-.4-1.6-.7-.5-.3-.9-.8-1.4-1.3-1.3 2.4-2.1 2.5-4.5.9-.9 2.7-2.8 2.1-4.8 1.3-.7 2-2 2.6-3.8 1.7-.8-.4-1.3-.2-1.9.5-.8 1-1.8 1.5-3 .9-.8-.4-1.6-.8-2.4-1.3-.2 2.3-2.4 3.2-4.4 2-.3-.2-.7-.3-1.1-.3-.1 0-.4.6-.3.6.3.3.6.5.9.6 1 .3 2.1.9 1.9 1.9-.2 1.2.5 1.9.9 2.8s1.1 1 1.7.7c2-.7 4-1.5 5.9-2.2.6-.2 1.1-.5 1.6.2 1.4 2 2.8 4 4.4 5.8.9 1.1.5 1.4-.4 1.9-1.1.7-2.2 1.4-3 2.4-2.1 2.7-2.8 5.8-2.3 9.1.7 4.4 1.7 8.7 2.6 13.1.7 3.7 1.6 7.3 1.9 11 .5 5.1-.1 10.1-2.2 14.9-.3.6-.4 1.2-.6 1.9 1.9.4 2.9 1.3 2.9 3.4 2.6-1.4 3.9 0 4.6 2.3.4-1.4.5-2.7 1-3.6 1-1.6 1.1-1.5-.5-2.4-1.8-1-2-2.1-.8-3.8.1-.2.1-.5.2-.7-2.1-.7-3.8-2.2-3.5-3.2.5-1.6 2-1.9 3.5-2-.9-.6-2-.9-2.9-1.5-1-.7-1.3-1.9-.7-3 .5-.9 1.5-1.5 2.2-2.3-2.7-2.5-2.8-5.5 0-8-2-1.8-2.1-4.2-2.2-6.6.8.1 1.5.1 2.2.3 1.2.3 2.3.6 3.4.9.2.1.4.2.6.2 1.9-.2 3 .9 3.8 2.7.5-.5 1.2-1 1.3-1.5.2-1.2-1.7-2.5-2.9-2.2-1.5.5-2.6-.2-3.7-1-.7-.5-.9-1.2-.3-2 .4-.6.9-1.2 1.5-2-1.1-.1-1.9-.4-2.6-.2-1 .3-1.9.3-2.6-.4-.7-.6-1.5-1.3-1.6-2.1-.1-1 .4-2.1 1.7-2.4.4-.1.8-.4 1.2-.6v-.4c-2.2.1-4.7.3-4.8-2.5-.1-2 2-2.2 3.8-2.1-.2-.7-.3-1.3-.5-1.8-.4-1.1-.3-2.1.6-2.8.5-.4 1.4-.6 2-.4.9.3 1.6 1 2.4 1.6.7-.6 0-1.1-.4-1.7-.5-.7-1.1-1.3-1.4-2.1-.5-1.4.2-2.2 1.7-2.3.4 0 .9-.1 1.2-.1v-1.9-1.8c.1-1.1 1.3-2.4 2.3-2.5 1.2-.1 1.9.5 2.3 1.6l.6 1.8c-.1-2.1.6-3.6 2.5-4.5 1.1-.5 1.9-.2 2.7.5.7.7.9 1.4.3 2.2-.2.3-.3.8-.5 1.2.7.2 1.2.3 1.7.6s1.1.6 1.4 1.1c.6 1 .1 1.8-.7 2.6-1.1 1.1-1 1.7.4 2.2 1.2.5 1.6 1.3 1.5 2.6-.1.6.2 1.3.3 2.1 1.1-1.5 2-2.8 3-4 .2-.2.9-.4 1.1-.2.4.3.9.9.9 1.3 0 1.5-.1 1.5 1.5 1.2 1.1-.2 2.2-.1 2.8 1.1.6 1.2 0 2-.8 2.7-.7.6-1.6.9-2.1 1.1.1 1.2.5 2.5.1 3.1-1 1.4-2.6.8-4.1.2.7 2.2 1.2 2.5 3.1 2.9-.1.5-.3 1-.3 1.6-.2 1.7-.8 2.4-2.5 2.9-.3.1-.6.4-.7.7-.1.9-.7 1.3-1.5 1.5-.2.1-.6.2-.7.4-.3 1.1-.6 2.3-.9 3.6.6-.2 1-.4 1.4-.5.5-.1 1-.1 1.5-.1 1.8 0 2.3-.5 2.6-2.3.1-.4.1-.8.3-1.2.7-1.7 2.2-2.2 3.8-1.3 2.1 1.1 2 3 .2 4.8.5.9.2 1.5.5 2.4zm-75.3-51.6c-.9.1-1.8.7-2.4-.2 1.1-.5 2.2-.9 3.1-1.3 1 .1 2 .4 2.8.1 1.8-.7 1-2.3.8-3.6 2.7 1 2.7 1 5.4-1.5-.1.4-.2.6-.3.8-.1 1.5.7 2.2 2.1 1.9 1.3-.3 2.3-3 1.5-4.1-.2-.3-.7-.4-1.1-.4-.3 0-.7.1-1.1.1-.4 0-.7 0-1.3-.1 2.5-.7 3.3-1.2 3.4-2.2.2-1.8-1.6-1.5-2.3-2.1.8-.3 1.9-.4 2.5-.9.5-.6.6-1.6.9-2.4 1.5 1.4 2.5 1.1 3-.3-.5-.6-1.1-1.2-1.4-1.6 1.1-.1 2.4.1 2.9-.5.6-.6.4-1.8.5-2.7.8.5 1.8 1 2.8.1 1-.8 1-1.8.2-3 1.5.6 2.7.5 3.1-.6.2-.6-.1-1.5-.2-2.4 2.1-.8 2.3-1.6.6-3.8 2.1-.4 2.6-1.7 2.2-3.4 1-.8 1.8-.5 2.8-.1 2.4 1.2 2.7 1.1 4-.6 1.3.9 2.6 1.7 3.8 2.7 2.5 2.1 4.9 4.3 6.4 7.3.8 1.6 1.5 3.4 3.7 3.6.2 0 .4.4.6.7.9 1.9 1.8 3.9 2.8 5.7 1.1 2.1 2 4.4 4.2 5.6.3.2.5.8.6 1.3.1.7 0 1.4.2 2 1.5 3.1 3.1 6.1 4.8 9.1 2.1 3.8 4.3 7.5 6.5 11.2 1.3 2.2 2.7 4.4 4.2 6.6.2.3.7.5 1.1.8.1-.5.4-1.2.2-1.6-1.5-3.1-3-6.1-4.5-9.1-2.3-4.5-4.4-9-7-13.3-1.6-2.7-2.3-6.1-5.5-7.7-.3-.1-.4-.6-.6-1-1.5-2.8-3-5.6-4.6-8.4-.5-.9-1-1.7-1.6-2.8.6.6 1.2.9 1.6 1.4 2.2 3.2 4.7 6.2 5.9 10 0 .1.2.2.3.4.7.8 1.6 1.4 2.1 2.3 3.1 5.5 6.2 11.1 9.3 16.6 3.1 5.6 5.9 11.4 10.2 16.2 1.1 1.3 1.6 1.7 2.7 1.4-1-1.5-1.9-3-2.8-4.6l-6.9-12.3c-2.4-4.2-4.7-8.3-7.1-12.5-.9-1.6-1.7-3.3-2.7-4.9-2.1-3.1-4.3-6-6.5-9-1.6-2.1-3.1-4.2-4.7-6.3-.3-.4-.5-1-.7-1.4.7.2 1.1.5 1.4.8 2.1 2.9 4.2 5.8 6.4 8.7 1.8 2.4 3.8 4.7 5.3 7.2 3 5 6 10 8.7 15.1 2 3.9 4.3 7.5 7.7 10.3.7.6 1.6.9 2.5 1.4.1-.1.2-.3.3-.4-1.6-2.1-3.2-4.1-4.7-6.3-3.9-5.4-7.2-11.1-10.6-16.8-2.4-4-4.5-8.4-8.3-11.4-.1-.1-.2-.3-.3-.4-.4-2-1.8-3.3-3.1-4.6-1.7-1.7-3.5-3.3-5.3-4.9l.4-.4c.4.3.8.5 1.2.8.9.9 1.9 1.7 2.7 2.7 2.4 2.7 4.9 5.2 7 8.1 2.5 3.4 4.7 7.1 7 10.7 1.5 2.3 2.9 4.6 5.4 6.1.6.4 1.3.6 2 .8.1-.1.1-.3.2-.4-.3-.5-.6-.9-1-1.4-.7-.7-1.4-1.4-2-2.2-1.6-2.2-3.1-4.5-4.7-6.7-2.3-3.2-4.7-6.4-7.1-9.5-2.8-3.4-5.6-6.8-8.6-10-1.3-1.4-3-2.3-4.5-3.5-.1.7-.2 1.3-.3 1.8-3-5.9-8.8-7.3-14-9.5l-.3.3 2.8 2.8c-.1.1-.2.3-.3.4-2.1-.6-4.2-1.2-6.2-1.8 0-.1.1-.2.1-.4l3.6.6c-.6-.7-1.4-1.1-2.1-1.6-1.8-1.3-3.8-1.2-5.8-1.2-1.6.1-2.5 1.4-3.6 2.3-2.2 1.9-2.8 4.1-.5 5.9 1.2 1 1 2.8-.1 3.8-2.1 1.9-4.5 3.1-7.3 3.6-1.3.2-1.9 1.1-1.9 2.3v2.2c-1.3-.5-2.6-1-3.8-1.5.5-.3 1.1-.2 1.5-.4.4-.2.7-.7.9-1.1.1-.1-.3-.6-.6-.7-1.2-.5-2.1-2.2-1.9-3.8 3.1 3.8 2.8 3.5 4.9 2.1-.5-.9-1-1.7-1.5-2.6.5 0 1 .1 1.6.1-.8-1.4-1.4-2.6-2.1-3.8 1.2-.3 1-.8.4-1.6-.5-.6-.7-1.5-1.1-2.2.3-.1.5-.1.7-.2-.4-1-.7-2-1-3 1.2.3 1.5.1 1.1-1.2-.6-1.6-1.6-2.9-3.4-3.3-1.1-.2-2.3-.1-3.3-.4-2.2-.6-4.4.1-6.5.4-1.2.2-1.9 1.5-1.2 2.2.4.4 1.4.6 2.1.5 1.5-.1 3-.4 4.5-.6 0 .1.1.2.1.3-.9.3-2 .2-2 1.7 0 .4-.8 1-1.3 1-.5.1-1.1-.4-1.6-.7-.2-.1-.3-.4-.5-.6l-1.2.6c-1-1.6-1.1-1.7-3.7-1.4-3.2.3-4.4 1.2-3.8 4 2.1-.2 4.2-.4 6.3-.7.1.6.1 1.1.1 1.2 1.8 1.5 4.6-.6 5.6 2.3.4 1 1 1.8 1.5 2.7-.1 0-.1.1-.2.1-.6-.8-1.1-1.6-1.7-2.4-.2 0-.3.1-.5.1-.1.7-.2 1.3-.4 2.1-.4-.6-.8-1.1-1.1-1.6-2.3 1.8-4.3 3.6-5.5 6.1-.1.2-.2.4-.3.4-1.7 0-1.8 1.4-2.1 2.6-.7 2.9-1.2 5.8-.3 8.7.1.2-.1.4-.1.6-.2 1-.2 1.9.6 2.8.2.3.3.7.4 1.1.1.5.2 1 .3 1.4.2.9 2 1.1 1.2 2.5l.3.3c1 .9 1.8 2.1 3.4 2-.9-.1-1.7-.1-2.8-.2.2.7.2 1.3.5 1.7.7.9 1.4 1.9 2.3 2.6 1.4 1.2 2.4.8 3-1-.4.4-.4.3-.4.3.9 1.6 2.5 1.6 4.1 1.4.5-.1.9-.7 1.4-1.1-.5-.2-.9-.6-1.4-.7-.9-.2-1.9-.1-2.8-.3-.6-.1-1.2-.2-1.3.7zm-20.6 21.8c0 .9-.1 1.8-.1 2.7.2.1.3.1.5.2.9-1.1 1.7-2.3 2.9-3.8-.7 0-1.2-.2-1.6 0-.7.2-1.2.6-1.7.9.6-1.1 1.2-2.3 1.9-3.7-.9-.3-1.9-.6-2.9-1-1-.3-2.1-.5-2.9-1.1-.7-.5-1.4-.6-2.2-.9-1.7-.6-3.3-1.1-5-.2-.1.1-.3 0-.4 0-1.4-.3-2.4-1.4-3.7-1.9-.9-.3-1.7-.7-2.7-.8-.5 0-1.1 0-1.5-.3-.9-.5-1.5 0-2.1.5-1 .7-1.9 1.4-3.2 2.4-.1-1.1-.1-1.6-.2-2.6-.5.6-.9.9-1.2 1.3-1.6 1.8-3.2 3.7-5 5.4-.4.4-1.2.4-1.8.6-.1-.6-.2-1.1-.3-1.9-.4.3-.8.5-1.1.8-1.1 1-2.1 2.1-3.3 3-.9.6-1.9 1.7-3-.1-.8 1-1.6 1.8-2.1 2.8-1.1 2.2-2.8 3.9-4.7 5.4-.6.5-1.6 1.6-2.7.5.2-.6.4-1.1.6-1.7l-.3-.3c-2.3 2.2-4.3 4.7-7.7 5.2-.2-.2-.5-.4-.8-.7-.1 0-.2.1-.4.1.1 2.1.2 4.2.4 6.3.5 4 .8 8 1.7 11.9 2 8.8 5.5 17.1 10.6 24.6 2.5 3.7 5.4 7.3 8.4 10.7 3.1 3.3 6.5 6.5 10 9.3 4.6 3.6 9.5 6.5 14.9 8.9 4.3 2 8.8 3.5 13.3 4.9.3.1.9 0 .9-.1.3-1.2 1.4-1.2 2.1-1.7.6-.3 1.1-.8 1.7-1.2 1.8-1.3 3.4-2.9 5.3-3.8 2.1-1 4.4-.8 6.7-.2 1.6.4 3.1.8 4.6 1.2.1-.2.1-.4.2-.6-.6-.3-1.2-.6-1.8-.7-1.6-.5-3.4-.7-5-1.3-3.1-1.2-4.1-4.4-5.9-6.7 1.5.1 3.1.2 4.5.4 1.3.2 2.7.5 3.9 1 1.9.8 2.3 2.8 3.2 4.4.5.9.8 1.7 2.1 1.1 1.5-.7 2.9-.3 3.9 1 1.7-1.3 2.6-2.9 2.5-5 0-.6.7-1.5 1.4-1.9.9-.5 2.2-.6 3 .3.8.9 1.2.5 1.7-.1.4-.5.7-1 .9-1.6.4-1.2 1.4-1.6 2.4-1.5.6.1 1.2 1 1.7 1.6.1.1.3.3.5.6.5-1.2.9-2.4 1.4-3.6-.4.1-.7.1-1.1.2-3.1.7-6.1 1.4-9.2 2-3 .5-5.6 1.8-7.6 4.2-.6.7-.8.5-1.2-.1-.6-.7-1.2-1.5-2-2.1-2.1-1.6-4.7-2-7.3-2.3-4.9-.6-9.7-.8-14.5-2.1-4.1-1.2-7.6-3.1-10.5-6.2-3.5-3.7-5.4-8.2-6.6-13.1-1.1-4.4-.9-8.8-.3-13.1.7-5.1 1.9-10.2 2.9-15.3.6-3 .3-6.1-1-8.8-1.2-2.5-3-4.7-4.6-7.1l.3-.3c2-2.1 4-4.3 6.1-6.3.3-.3.9-.3 1.3-.2 3 .7 5.9 1.7 8.8 2.3 1.5-.3 2.9.5 4-.7zm1.3 4.3c-.1.1-.2.2-.4.2-.7-.8-1.3-1.6-2-2.3-.4-.4-.9-1-1.4-1.1-3.2-.3-6.3-1-9.3-2.2-1-.4-1.7-.2-2.3.6-1.7 1.8-3.4 3.6-5.2 5.5.5.7 1.1 1.6 1.8 2.4 2.2 2.5 3.4 5.4 3.6 8.7.2 4.2-.6 8.3-1.5 12.3-.9 4.1-1.5 8.2-2 12.4-.3 3.2.1 6.3 1 9.4 1.4 4.7 3.6 9 7.1 12.5 3.1 3.1 7.1 4.7 11.3 5.5 4.2.9 8.5 1.3 12.7 1.7 3 .3 5.8 1.1 8.2 2.8.8.6 1.3.3 1.8-.2.3-.2.5-.5.7-.7 2.9-2.2 6.5-2.6 9.8-3.4 2.6-.7 5.3-.9 8-1.6 3.6-.9 7-2 10.3-3.8 3.2-1.9 6-4.1 7.6-7.5 2.4-5.1 3.3-10.6 2.5-16.2-.8-5.4-1.8-10.9-3-16.2-.9-4.1-1.8-8.1-1-12.3.5-2.6 1.5-5.1 4-6.6 1.4-.8 1.4-1.4.6-2.4-1.2-1.4-2.3-2.9-3.5-4.3-.2-.2-.7-.5-.9-.4-2 .6-4 1.2-5.9 1.9-.2.1-.5.3-.6.5-.5.5-1.1 1.1-1.5 1.6-.6-.8-1-1.5-1.4-2-1.2.4-2.1.9-3.1 1-2.2.1-4.2.3-5.4 2.4 0 .1-.2 0 0 0-.7-.6-1.3-1.4-1.9-1.4-1.8 0-3.5.3-5.3.4-1.7.2-2 .5-1.7 2.1-1.3.5-2-.4-2.8-1.2-.9-1-3.9-.8-4.6.2-.6.8-1.4 1.5-2.1 2.4-.4-.7-.6-1.2-.8-1.6-.5-1.2-1.5-1.3-2.6-1.3-2.3 0-4.5.2-6.7.1-.9 0-1.3.2-1.5.9-.2.7-.4 1.3-.6 2.3-.8-1.2-1.4-2.2-2.1-3.1-.2-.3-.7-.5-1.1-.6-1.5-.2-3-.4-4.5-.5-.2 0-.4.1-.6.2-1.7.4-1.7 1.7-1.7 2.9zm37.2 79.5c-.4.3-.8.5-1.1.8-1.3 1.2-2.8.9-3.5-.8-.2-.4-.3-.9-.4-1.4-.3-1.4-1-2.4-2.6-2.4-1 0-2.7.6-2.8 1.3-.2 1.3 1 1.1 1.7 1.4 2.3 1.2 4.5 2.5 6.4 4.8-1.2.1-2.2.2-3.1.4-1.4.4-2.6 0-3.6-1-.7-.6-1.4-1.2-2.2-1.7-.8-.4-1.9-.3-2.4-.8-1.4-1.5-1.9-.4-2.5.6-2 3.2-5.1 4.3-8.8 4.2.4-.8.8-1.5 1.2-2.1.4-.6.9-1.2 1.4-1.7s1-.9 1.5-1.3c-.1-.1-.2-.3-.3-.4-4.1 2.8-8.4 4.6-13.5 4.1 15.3 3.8 30.5 2.8 45.4-2.1 3.5-1.2 7-2.4 10.6-4.5-3.6-.1-3.8-.2-5.2-2-1.6.8-2.7-.2-3.6-1.2-.6.5-1.2 1-1.7 1.5-.6.5-.9.9-.3 1.8.6.8.7 2-.2 2.8s-1.8.7-2.8.1c-.3-.2-1 0-1.2.2-2.3 2-4.7 1.9-6.4-.6zm39.1-38.6c.1.1.2.3.3.4.2.1.5.1.6.2.6.5 1.4.9 1.7 1.5.4 1-.6 1.6-1.3 2.1-.6.5-1.4.8-1.9 1.5-.2.3 0 1 .1 1.6.3-.1.9-.1 1-.3.8-2.1 2.8-2.3 4.5-3.1 1.2-.5 1.3-.7.6-1.7-.8-1.1-.7-1.7.4-2.4.5-.3 1.2-.4 1.8-.3 1.3.2 2.6-.3 2.9-1.3.2-.7-.8-1.9-2-2.3-.3-.1-.9-.4-.8-.6.1-.4.3-.9.6-1.1.7-.4 1.6-.5 2.3-1 .6-.4 1.1-1.2 1.2-1.9.1-.5-.5-1.3-1-1.6-.8-.4-1.7-.6-3-.9.8-.7 1.4-1.3 2.2-1.8 1-.6 1.9-1.2 2.3-2.4.3-1.1-.4-1.9-1.5-1.6-.7.2-1.3.5-2 .7-.4.1-.9 0-1.4.1 0-.5-.1-1.1.1-1.5.3-.9.9-1.7 1.2-2.6.4-1.1-.2-2-1.9-2.5-.5-.1-1.4.4-1.7.8-.7.9-.5 2 .1 3 .7 1.3.3 2.5-.5 3.5-.9 1.1-1.6-.1-2.3-.4-.1 0-.2-.1-.4-.2-1.1-.4-2.7 0-3.1.9-.6 1.3.6 1.7 1.2 2.4.1.1.3.2.5.2.7.4 1.6.7 1.5 1.7s-.7 1.7-1.7 2c-1.5.5-1.3 1.9-1.9 3.3.8-.1 1.3-.1 1.8-.2 1-.3 1.7 0 2.1 1 .6 1.4.2 2.9-1.1 3.8-.4.3-1 .7-1.5 1zm-14.7 30.2c2 0 2.3-.5 2-1.9-.1-.3-.1-.7.1-.8.2-.1.6-.1.8 0 .7.3 1.4.8 2.2.9.7.1 1.6 0 2-.5.4-.4.3-1.4.1-2-.3-1-.4-1.9.8-2.1.9-.2 1.9 0 2.9.2s2-.3 2.1-1.2c.1-.6 0-1.4-.3-2-.6-1.7-.1-2.6 1.7-2.6.6 0 1.3.1 1.9 0 1.1-.1 2.1-1.3 1.9-2.3-.2-.8-1.2-1.3-2.4-.9-.8.3-1.6.8-2.3 1.3-1.1.8-2.1.5-2.5-.8-.1-.3-.1-.7-.3-.9-.3-.4-.7-.8-1.2-.9-.3 0-.8.6-.9 1-.3.9-.3 1.9-.7 2.7-.3.6-1 .9-1.5 1.4-.3-.5-.6-1.1-.8-1.6-.1-.2 0-.4-.1-.5-.5-.5-1-1-1.6-1.5-.4.4-.8.9-1.2 1.3-1 1.3-.5 2.7-.2 4 .2.8.2 1.5-.5 1.8-.7.3-1.5.2-1.9-.7-.1-.3-.7-.5-1.1-.5-.2 0-.5.5-.6.9-.2.6-.3 1.3-.2 2 .1 1.5-.1 2.9-1.3 4.1-.2.2-.1 1 0 1.1 1.2.3 2.4.7 3.1 1zm11.7-18.7c1-1 1.5-3.3 1.3-4.8-.1-.6.2-1.4.6-2 .3-.4 1-.6 1.2-1 .3-.5.6-1.2.6-1.8 0-.3-.8-.6-1.2-.8-.4-.2-1-.3-1.1-.6-.1-.5.1-1.2.4-1.6.5-.6 1.3-1 2-1.5.8-.6 1.2-1.4.6-2.2-.2-.3-1.3-.2-1.9-.1-.6 0-1.1.3-1.7.3-1.2 0-1.5-.8-.8-1.8.3-.4.7-.7.8-1.1.1-.5.1-1.2-.1-1.7-.1-.2-.9-.1-1.4 0s-1.1.4-1.5.8c-1 .9-1.5.8-1.9-.5-.3-.8-.3-1.7-.7-2.6-.1-.3-.7-.6-1-.6s-.7.5-.8.9c-.7 1.6-.2 2.7 1 3.7 1 .7 1.7 1.6 1.3 2.7-.2.6-1.3 1.1-2 1.4-1 .4-1.2.8-.4 1.5.8.7 1.9 1 2.7 1.6.4.3.6 1.1.6 1.6 0 .3-.7.6-1.1.7-.3.1-.7-.1-1.1 0s-1.1.3-1.2.7c-.1.3.3 1 .6 1.2.7.4 1.5.6 2.3.9.4.2.9.4 1 .8.1.3-.2.8-.5 1.1-1.1.9-1.1 1.9-.1 2.8.5.5.9 1.1 1.3 1.6l.6.6c.1-.1.3-.1.4-.2l-.3-3c0-.7-.3-1.7 0-2 1.2-1 .5-1.9.1-2.8-.3-.6-.7-1.1-1.3-1.9.7.1 1 .2 1.6.3-.3-1.1-.5-1.9-.7-2.8s-.4-1.7-.5-2.6c-.3-1.9-.3-1.9.2-2.3.1 1.1.3 2.2.5 3.7.6-.7.9-1 1.1-1.2v4.9c0 .3.6.5.9.8-.2 1.4-.6 2.9-.5 4.5.1 1.3-1.1 2.8.1 4.4zm-102.9-85.1c-1.3-.8-3.1-.8-3.6 0-1.5 2.3-3 4.7-4.5 7.1-2 3.2-3.1 7-6.2 9.5-.1.1-.2.3-.3.5-1.4 2.6-2.8 5.2-4.3 7.8-1.1 1.9-2.5 3.6-3.8 5.3-1.7 2.2-3.4 4.4-5.1 6.7-.3.4-.4.9-.6 1.3.5-.1.9-.1 1.4-.2.3-.1.5-.3.8-.5 1.7-1.2 2.8-2.9 4-4.5 3.2-3.9 5.8-8.2 8.5-12.4 2.3-3.6 4.6-7.2 6.9-10.7 2.4-3.4 4.6-6.6 6.8-9.9zm103.8 50.6c.8-.1.9-.5.4-1.4-1-1.9-2.2-3.6-4.2-4.1.9-1.8-1.3-3-.8-4.8.8 1.4 1.5 2.7 2.2 3.9 1.1 1.6 1.4 1.7 2.7.4h-.1c.3 1.5.5 2.9.8 4.2.2.8.6 1.6 1 2.4.3.6.8 1.1 1.4 1.9.3-1.5.6-2.7.6-3.8 0-.6-.4-1.5-.8-1.6-1.4-.5-1.2-1.1-.5-2 .5-.7.9-1.7.1-2.3-.5-.3-1.5-.1-2.1.1-1.4.5-2.1.2-2-1.3 0-.7.5-1.3.9-1.9.6-.8.6-2.2-.1-2.7s-1.5-.3-1.8.4c-.4.8-1.2.9-1.7.6s-.9-.9-1.1-1.5c-.2-.4.1-1.1-.1-1.5-.3-.5-.9-.9-1.4-1.3-.3.4-.9.7-1 1.2-.1.5 0 1.1.1 1.6.6 1.8.3 2.2-1.6 2-.4 0-1.3.5-1.3.8 0 .5.4 1.1.8 1.4.3.2 1 .1 1.5.1 1.2 0 1.9.7 2.2 1.7.1.3-.1.8-.3.9-.4.3-1 .3-1.4.6-.5.3-1.2 1.1-1.2 1.3.3.6.9 1.3 1.4 1.4 1.3.3 2.6.1 3.9.4.5.1 1 .7 1.3 1.1.1.1-.5.7-.7 1.1-.3.6-.8 1.2-.8 1.8 0 .3 1 .6 1.6.8 1 .3 2 .5 2.9.7.2.1.5 0 .7.1.1-.1.2-.2.3-.4-.3-.9-1.1-1.7-1.8-2.3zm-39.7 57.2c-1.5-2-3.3-2.1-5-.4 2.5.4 3.1 1 3.8 3.5.3 1 1 1.7 2.1 1.5 1-.1 1.2-.9 1.2-1.8 0-.4.1-.7.1-1.1.2-.1.3-.2.5-.3.4.5.7 1 1.1 1.6.3.4.5.8.8 1.2.8 1.3 2.4 1.5 3 .3.3-.6-.1-1.4-.2-2.4.7.4 1.7.7 2.4 1.2s1.4.9 2 .2c.3-.5.4-1.7 0-2-.8-.7-1.9-1.2-2.9-1.4-.8-.2-1.6-.2-1.9-1.4.6-.3 1.2-.7 1.9-1.1.7-.4 1.5-.9 1-1.9-.5-.9-1.4-.8-2.2-.3-1 .6-2 1.4-3 1.9-.5.2-1.2 0-1.8-.1.1-.4.2-.9.2-1.3s0-1-.3-1.3c-.1-.2-.8-.1-1.1 0-.4.2-.7.5-1.1.7-2.1 1.3-2.1 1.3-3.6-.4-.8-.9-1.7-.9-2.1.2-.4.9-.2 2-.3 3 2.2-.4 4.1-.7 5.8-1 .9 2.1 3.5 1.7 4.7 3.4-1.7-.6-3.2-1.2-4.8-1.8-.2.7-.2.9-.3 1.3zm23-122.1c-1.3.7-3.2.9-3.2 3.1 0 .1-.9.3-1.4.3-.3 0-.6-.3-.8-.2-.6.3-1.1 2.8-.6 3.4 1.9 2.3 3.9 4.6 5.9 6.9.3.3 1 .5 1.4.3.4-.2.7-.7.8-1.2.3-1.3-.5-2.2-1.3-3.1-1.2-1.5-2.3-3-3.4-4.6.2-.1.3-.2.5-.4 2.1 2.4 4.1 4.8 6.2 7.1.4.4 1.4.5 1.9.3.6-.2 1-1 .5-1.8-.3-.6-.5-1.2-.8-1.8-1.9-2.6-3.7-5.4-5.7-8.3zm22.5 62.6c1-.6 2.4-1 3.1-1.9 1-1.3 1.8-1.9 3.4-1.2.4.2 1-.2 1.5-.4-.2-.6-.3-1.1-.5-1.7-.1-.4-.5-1-.4-1.1.4-.3.9-.6 1.4-.6.7 0 1.4.4 2.1.5.5 0 1.2-.1 1.4-.4.2-.3 0-1-.2-1.5-.3-.5-.8-.8-1.3-1.3.3-.2.5-.3.7-.4l1.8-.3c1.1-.2 1.8-1 1.5-1.9-.2-1-1.4-1.5-2.5-1.1-.5.2-1 .4-1.7.6.1-.6.1-.9.1-1.2 0-.4-.1-.7-.2-1.1-.4.1-1 .1-1.3.4-.3.2-.4.8-.6 1.2-.3.8-.5 1.6-.9 2.3-.2.3-.7.7-.9.6-.3-.1-.6-.6-.8-.9-.2-.4-.3-.8-.4-1.4-.4.3-.5.4-.6.6-1 1.4-.8 3.6-2.8 4.3-.1.1-.3.4-.3.6v3.4c2-1.3 2.6-3.2 3.1-5.3.3.3.5.6.6.8 1.3.2 1.7-1.6 3.4-1.5-1.5 1.3-2.7 2.4-3.9 3.5.4.4.7.7 1 .9-1.5-.2-2.3.7-3.1 1.6-.4.5-1 .9-1.4 1.4-.8.9-2.1 1.2-1.3 2.5zm-27.5 52.6c2.7-1.2 4.4-3.5 4.6-6.9.2 1 .3 2 0 2.9-.4 1-.3 1.5 1.1 1.5-1.2.6-2.1 1.1-3.1 1.6.3.3.3.5.4.5.6.3.8 1.6 1.8.9.9-.6 2.2-1.1 1.6-2.8-.3-.9-.3-1.9-.3-2.9s.7-1.5 1.7-1.8c.9-.3 1.5.1 2 .8.2.3.4.5.6.9 1.9-1.6-.4-3.2.4-4.6-1.7-.2-1.7-1.1-1.1-2.5.8-1.7.6-2.2-1.1-2.7-1.3 1.1-2.3 2.3-1.8 4.2.1.5-.1 1.2-.3 1.8-.3.7-1 .8-1.5.1-.3-.5-.6-.9-.9-1.4-1.4.6-1.8 1.4-1.4 2.8.3.9 0 2-.3 3-.1.4-.7.7-1.1 1-.2-.3-.4-.6-.7-.8-.4-.4-.9-.8-1.4-1-.3-.1-.9.3-1 .6-.1.6-.2 1.4.1 2 .4 1 1.1 1.9 1.7 2.8zm29.2-84.8c0-.6.1-1.1-.1-1.5-.8-1.8-1.7-3.5-2.7-5.2-1.3-2.2-2.7-4.4-3.9-6.7-.9-1.8-1.5-3.8-2.4-5.6-.7-1.5-1.7-2.8-2.6-4.2-.2-.3-.4-.7-.6-.7-.3 0-.9.3-1 .5-.3.9-.8 2-.5 2.7 1 2 2.3 3.8 3.7 5.6.5.6 1 .9 1.1 1.8.1.9.5 1.8 1 2.6 1.8 3 3.6 6.1 5.6 9 .5.7.9 1.9 2.4 1.7zm-24.1-15.7c-.5.9-.7 1.8-1.2 2.1-.9.5-1.1 1.1-.5 1.9.5.7.9 1.3 1.4 1.9 1 1.3 2 2.6 3.1 3.8 1.9 1.9 3.8 3.8 5.8 5.6.3.3 1.3.3 1.6 0 .3-.3.4-1.2.1-1.6-.6-1.1-1.4-2.2-2.2-3.1-2.3-2.5-4.7-4.9-6-8.1-.3-1-1.4-1.7-2.1-2.5zm14.7 14.7c0-.6.2-1.2.1-1.6-.8-1.6-1.6-3.3-2.6-4.7-.9-1.2-2.2-2.1-3.1-3.3-1.5-2.1-2.8-4.3-4.3-6.4-.3-.4-.7-.6-1.1-.9-.2.4-.4.7-.6 1.1-.1.2-.1.4-.3.6-1.1 1.6-1.2 2 .2 3.5 2.2 2.5 4.4 4.9 6.7 7.4 1.4 1.5 2.4 3.5 5 4.3zm-5.9-19.6c-.3.1-.5.3-.8.4-.2.4-.4.7-.5 1.1-.1.4-.1.9-.3 1.2-.9 1-.9 1.8 0 2.8.8.9 1.4 1.8 2.2 2.6 2.5 2.5 4.7 5.4 6.6 8.4.4.7.8 1.5 1.4 2.1.3.3 1 .2 1.5.3 0-.5.2-1 .1-1.4-.2-.6-.6-1.2-1.1-1.7-2.2-2.7-2.7-6.5-5.5-8.8-.3-.3-.4-.8-.6-1.2-.8-1.6-1.7-3.1-2.5-4.7-.3-.3-.4-.7-.5-1.1zm-27.2 108.5c1.3-.5 2.5-1.1 3.7-1.3.7-.1 1.7.3 2.1.8.6.8.4 1.8-.5 2.5-.3.3-.5.7-1 1.5 1.3-.2 2.2-.2 3.1-.4.6-.2 1.2-.6 1.4-1.1.1-.3-.5-.9-.6-1.4-.2-.5-.4-1.3-.2-1.5.4-.5 1.2-.5 1.7-.9.6-.5 1.6-1 1.6-1.6 0-.7-.7-1.6-1.3-2-.4-.3-1.5 0-2 .4-.7.5-1.2 1.5-1.9 2-.3.2-1-.1-1.5-.1.1-.4.1-.8.2-1.1.1-.6.1-1.1.2-1.7-.7 0-1.5-.1-1.9.2-.6.4-.7 1.3-1.2 1.8-.5.6-1.1 1.2-1.6 1.8-.4-.5-.7-1-1.1-1.4-.4-.4-.9-.9-1.3-1-.4 0-1 .4-1.2.8-.3.5-.4 1.1-.7 1.7 3.1.1 3.1.1 4 2zm36.9-69.3c.3-.5.9-1.1.7-1.4-.8-1.6.3-2.6.9-3.8.5-.9.2-1.6-.3-2.2-.9.4-1.6.8-2.4 1.1l-.4-.4c.2-.8.3-1.6.5-2.4.3-1 0-1.9-.9-2.2-.9-.3-1.8.3-2 1.3-.1.8-.1 1.7 0 2.6.2 1.5.1 1.8-1.4 1.8-.9 0-1.1.4-1.2 1.2-.1 1.4.9 1.8 1.8 2.4 1.4 1 1.3 2.1-.1 2.9-.3.2-.4.6-.7 1h4.8c-.6-1-1.1-1.8-1.6-2.6 1.8-1.5-.6-2.5 0-4.2 1 1.9 1.7 3.3 2.3 4.9zm-22.9-32.4c-.4 1-.5 1.8-1 2.3-.6.7-.4 1.2 0 1.8.2.4.6.7.8 1.1 1.7 3.1 4.1 5.6 6.6 8 .5.5 1.1 1.2 1.7 1.5.6.2 1.5 0 2.2-.1-.1-.6 0-1.3-.3-1.7-.9-1.2-2-2.3-3-3.4-2-2.4-3.9-4.9-5.3-7.7-.4-.8-1.1-1.2-1.7-1.8zm-71.7-15c.9 1.4 2.7 1.6 4.2.2 1.6-1.5 3.1-3.2 4.6-4.9.7-.7 1.6-1.3 1.9-2.2.4-1 .9-2.6.4-3.3-.6-.9-1.8 0-2.5.6-1.3 1.3-2.6 2.6-3.8 4-1.6 2-3.2 3.8-4.8 5.6zm97.8 51.2c.1.1.3.2.4.4.4-.2 1-.4 1-.7.4-1.7 1.6-2.5 2.9-3.5.5-.4.6-1.3.7-2 0-.2-.6-.7-1-.8-2-.7-2-.7-.8-2.4.1-.2.3-.3.4-.5.3-.7.5-1.3.8-2-.6-.2-1.3-.6-1.9-.6-1.3-.1-1.6-.5-1-1.8.1-.3.3-.6.4-.9 0-.4.1-.9-.2-1.1-.2-.2-.8-.2-1.1-.1-1.8.7-2.3 3.4-1.1 4.9.4.5.5 1.3.4 1.9-.2.9-.6 1.8-.9 2.8-.2.5-.3 1 .5.9 1-.2 2 .1 2.2 1 .2.7-.1 1.7-.4 2.4-.2.7-.8 1.3-1.3 2.1zm-28.7-33.7c-.9.3-1.5.5-2.2.7-.7.2-.9.5-.6 1.1.2.4.5.9.7 1.3l5.1 7.8c1.3 2 3.3 2.9 5.4 2.1-1.6-2.1-3.2-4-4.6-6.2-1.4-2.2-2.6-4.6-3.8-6.8zm-22.7 6.7c.2.1.4.2.6.4.5-.5 1.1-1 1.3-1.6.3-.7.4-1.5.6-2.4.4.5.7.8 1.2 1.4.4-.9.7-1.8 1.2-2.5.2-.4.8-1 1.1-.9 1.6.4 3.1 1 4.8 1.5 0-.3.3-.7.1-.9-.5-.8-1-1.7-1.7-2.2-2.6-1.8-6.1-1.1-7.9 1.9-.9 1.5-.9 3.5-1.3 5.3zm-28.4-1.7c-.5 2.2-.9 4.3-1.3 6.5-.5 2.4-2.2 3.8-3.9 5.6.7.3 1.4.4 2.1.3 1.3-.2 2.4-.9 2.9-2.1.8-1.8 1.5-3.6 2.1-5.4.4-1.3.5-2.8.6-3.9-1-.5-1.7-.7-2.5-1zm56.8-9.3c-.2-.5-.3-.9-.5-1.1-1.6-2.5-3.3-4.9-5-7.3-.2-.3-1.1-.6-1.5-.5-1 .4-1.4 2.5-.7 3.4 1.5 2.1 3 4.2 4.6 6.1.4.5 1.4.6 2.1.6.4-.1.7-.8 1-1.2zm-48.5 112.5c2-2.6 5.2-2.4 7.9-3.5-4.6-.7-9.8 1.5-12.2 5.1 1.7.9 3.4.2 5-.1 1.5-.3 3-.9 4.5-1.5 1.2-.5 2.2-1.1 3.4-1.7l-.3-.6c-2.9-.2-5.6 1.1-8.3 2.3zm46.6-138.9c0 .1-.1.2-.1.4 2.4 2 5.1 3.8 5.8 7.2.2.8.5 1.7 1.1 2.4 1.3 1.6 2.7 3 4.1 4.5.8.8 1.6 1.7 2.7 2.8.2-.8.5-1.3.3-1.5-.9-1.3-1.6-2.8-2.8-3.8-1-.8-2-1.6-2.5-2.8-1.3-3.2-3.5-5.6-6-7.8-.7-.7-1.7-1-2.6-1.4zm3.3 10.4c.7 1.1 1.1 2.2 1.8 3 1.8 2.2 3.7 4.3 5.6 6.4.2.3 1.1.4 1.2.2.4-.4.7-1.1.6-1.5-.1-.6-.7-1.3-1.1-1.8-1.1-1.3-2.4-2.5-3.5-3.8-.9-1-1.6-2.2-2.4-3.2-.2-.3-.8-.5-1-.4-.5.2-.8.7-1.2 1.1zm-11.4 21.2c-1.6 2.1-1.5 2.2-.9 3.2 1.3 2.1 2.4 4.3 3.7 6.4.5 1 1.1 1.9 1.7 2.8.3.4.9.6 1.4.8.1-.6.3-1.2.4-1.8 0-.2-.1-.4-.2-.6-1.2-2.2-2.3-4.5-3.5-6.7-.9-1.4-1.7-2.7-2.6-4.1zm.9-12c-.7 1.1-1.3 1.9-2 3 1.4 2.1 2.9 4.4 4.6 6.6.3.3 1.1.4 1.6.3.3 0 .7-.7.6-.9-.2-1-.6-2.1-1-3-.9-1.7-1.9-3.3-2.9-4.9-.3-.4-.6-.7-.9-1.1zm-48.5 15.6c-1.1 0-1.8-.1-2.5 0-.4 0-.9.3-1 .6-.2.8-.3 1.6-.3 2.4 0 2.3-.6 4.4-2.2 6.1-.5.5-.8 1.2-1.2 1.8 1.4.9 2.1-.1 2.8-.9 2.2-2.4 3.1-5.5 4.1-8.5.2-.4.2-1 .3-1.5zm60.2 100.1c3.9-1.6 9-4.9 9.6-6-1.2-.3-2.4-.6-3.4-.8-.3.6-.5 1.3-1 1.8-1.3 1.1-2.9 1-4.3 0-.5-.3-1.1-.4-1.4-.6.2 2 .3 3.8.5 5.6zm0-127.6c-.1-.1-.2-.3-.3-.4-.4-.9-.7-2-1.3-2.7-1.8-2.4-4.3-3.8-7.2-4.7-.8-.3-1.8-.5-2.2.5-.4 1.2.8 1.1 1.5 1.4 2.8 1.5 5.9 2.6 7.3 5.9.1.3.7.5 1.1.6.4 0 .8-.4 1.1-.6zm-21.6 7.9c0 2.1-1.1 2.8-3 2.9.4.5.6 1.1 1 1.2 2.3.7 3.8 2.4 5.1 4.2 1.4-.6 1.8-1.4 1.4-2.7-.6-2.4-2.5-3.8-4.5-5.6zm-2.2 7.6c.1 0 .2 0 .4.1-.1.7-.3 1.4-.4 2-.1.4-.2 1.1 0 1.2.6.3 1.3.6 1.8.4 1.8-.6 2.5-2.3 1.4-3.8-1-1.4-2.5-2.6-3.7-3.8-.2.1-.4.1-.7.2-.1.6-.3 1.3-.3 1.9-.1.5-.1 1.1-.1 1.6s-.1 1.1-.1 1.6l1.5-.9c.1-.2.1-.4.2-.5zm11.6 7.4c1.4 0 1.8-.4 1.3-1.5-1-2.3-2.2-4.5-3.4-6.7-.1-.2-.5-.3-.6-.2-.7.2-1.7 2.7-1.3 3.3 1.1 1.6 2.2 3.1 3.3 4.7.2.3.6.4.7.4zm-43.3 6.8c-1.1 5.4-1.5 8.1-4.5 11.8.9.8 1.8.7 2.7-.2 2.7-3.1 2.9-6.7 2.4-10.5 0-.4-.4-.8-.6-1.1zm6.9 89.8c1.3 3.8 5 6.6 8.9 6-1.7-1.9-4.9-1.2-5.8-3.9.8.3 1.4 1 2.2 1.3.7.3 1.6.2 2.4.3-2.2-2.2-4.5-3.7-7.7-3.7zm39-110.1h.6c.2-.8.6-1.6.5-2.3-.3-2.4-2.3-3.4-4-4.6-.7-.5-1.4-1-2.3-.3-.3.3-.7.6-1.1.8.3.4.6.9 1 1.1 2.1 1.4 5 1.9 5.3 5.3zm-5.3 4.7c1.4-1.2 1.5-2.1.7-3.5-1.2-2-3-3.2-5-4.3-.5.6-1 1.2-1.6 2 2.6 1.3 4.6 3.1 5.9 5.8zm-44.3 13.2c3.2-.3 4.3-3.6 4.9-8.4-.4 0-.8.1-1.2-.1-1.2-.5-1.3 0-1.5 1.1-.4 2.2-.4 4.4-1.9 6.3-.3.2-.2.6-.3 1.1zm.1-11.2l.5.5c.5-.3 1.1-.5 1.6-.9 2.2-1.8 2.9-4.4 4.1-6.8-1.7-.9-2.6 0-3.3 1.3-.6 1.2-1.4 2.3-2 3.4-.4.9-.6 1.7-.9 2.5zm78.7 35.4c-.6.2-1.3.3-1.4.6-.3.9-.7 2-.6 3 .1 1.2.5 2.3.9 3.4.3.7.8 1.3 1.3 1.9.5-.4 1.1-.8 1.6-1.2.1-.1.2-.1.2-.2.1-.4.3-1 .1-1.3-.1-.2-.8-.2-1.2-.2-.2 0-.4 0-.7.1-1 .4-1.4 0-.9-.9.4-.8 1.1-1.5 1.7-2.2.6-.6.8-1.3.3-2.1-.3-.4-.8-.6-1.3-.9zm-35.5-47.3c-.6.5-1 .8-1.5 1.1-.9.6-.6 1.1.1 1.6 1.6 1.1 3.2 2.3 4.7 3.5.7.6 1.1.3 1.2-.4.1-.4 0-.9-.1-1.3-.6-2.4-2.8-3.1-4.4-4.5zm6.7 111.6c.3-2.8.1-3.6 4.8-2.5-.1-.9-.3-1.8-.4-2.7-3.2 1.4-6.3 2.7-9.4 4.1.6.7 1.1 1.4 1.6 2 1-.3 2.2-.6 3.4-.9zm-4.8-92.5c-.2-.6-.3-.8-.4-1.1-.9-1.7-1.8-3.4-2.8-5.1-.1-.2-1-.4-1-.3-.4.9-1.3 2.2-1 2.7 1 1.6 2.4 2.9 3.8 4.2.1.1.8-.3 1.4-.4zm-29.5 11.3c.3.7.4 1.2.7 1.6 1.9 2.4 3.8 4.7 5.7 7 .3.3.8.3 1.2.5.1-.1.2-.3.3-.4-.5-.9-1-1.8-1.6-2.7-1-1.4-2.1-2.7-3.1-4.2-.8-1-1.7-1.6-3.2-1.8zm68.4 33.1c-.1-1.5-.7-1.9-2.3-1.5-2.8.8-4.2 6-2.2 8.3.2.2.6.3.8.2.2-.1.6-.4.5-.6 0-.7-.2-1.4-.4-2.1-.1-.6-.4-1.3-.2-1.9.4-1.6 1.8-2.5 3.8-2.4zm-81-50.9c.5.7.9.9 1.6.3 2.7-2.1 3.7-4.9 3.5-8.3-.3 0-.6-.1-.8 0-.3 0-.5.1-.8.1-.3 3-1.6 5.6-3.5 7.9zm47.8 107.3c.1.1.4.7.8 1.1.1.1.9-.3 1.1-.7.6-1.3 1.5-2.1 2.7-2.7.4-.2.9-1.1.8-1.3-.3-.5-1-1-1.5-1-1.7 0-3.9 2.5-3.9 4.6zm21-44.4c0-.5.1-1 0-1.3-.6-1 .2-1.5.8-1.8.8-.4 1.2-1 .7-1.7s-1.2-1-2-.3c-.6.5-1.2 1-1.5 1.6-.4.8-.8 1.8-.5 2.5.2.8 1.2 1.3 2.5 1zm-53.6-32.4c0 .1.2.5.4.8.1.1.7-.1.9-.4 1.5-1.8 1.4-1.8 3.6-.9.3.1.7.2.8.1.2-.3.3-.7.3-1-.3-1-2.2-2.1-3.4-1.9-1.5.4-2.6 1.6-2.6 3.3zm-1.3-13.1l.3-.3c-.8-1.5-1.6-3.1-2.5-4.5-.4-.6-1.1-.9-1.8-1.2-.3-.1-.9 0-1.1.3-.1.2 0 .8.2 1 1 1.3 2.1 2.6 3.3 3.8.4.4 1.1.6 1.6.9zm20 12.4c.3-2.8.3-2.8 3.5-3.4-.3-.5-.4-1.2-.7-1.4-1.8-.8-3.2-.2-4.2 1.5-.7 1.3 0 3.2 1.4 3.3zm12.8-5.5c-1.1-.7-2-1.5-3.1-.6-1.3 1.1-1.7 3.3-.7 4.7.2.3.8.6 1.1.5.3-.1.6-.8.5-1-.4-1.3.3-2 1.1-2.7.3-.3.7-.5 1.1-.9zm-1.9-7c.2-2.4-2.4-6.9-3.9-6.9.3 3.6 2.1 6.8 3.9 6.9zm-19.2 10.6c.1.1.3.1.4.2.7-.2 1.5-.7 2.2-.7 1 0 1.3.9 1.5 1.8.1.2.5.3.7.3.2 0 .5-.3.5-.5.2-1.1-.1-2.1-1-2.9-1.1-1-2.3-.6-3.4-.3-.4.2-.6 1.4-.9 2.1zm52.1 59.1c.6-1.7.9-3.4 2.6-4.4.6-.3.2-1-.5-1.1-1.3-.3-2.5.7-3.1 2.5-.6 1.7-.4 2.4 1 3zm-71.4-91.6c-.5.5-.9.7-1 1-.5 1.6-1.1 3.1-2.3 4.3-.2.2-.2.8-.1.9.2.2.7.4 1 .3.3 0 .6-.3.9-.6 1.8-1.4 1.9-3.3 1.5-5.9zm-.4 34c.6.1 1.1.3 1.6.4 1.1 0 2.1.1 2.5 1.3 0 .1.7 0 .9-.1.6-.9.3-1.9-.7-2.6-1.6-1-3.6-.6-4.3 1zm47.7 80.1c1.4.2 1.4-1 1.6-1.8.2-.7-1-2.1-1.6-1.8-.9.4-1.9 1.3-2.1 2.1-.2 1 1 1.4 2.1 1.5zm14.8-44.4c.7-.2 1.2-.5 1.7-.6.6-.1 1.3 0 1.8-.2.3-.1.6-.7.5-1.1-.1-.6-.4-1.3-.8-1.8-.3-.4-1-.4-1.5-.6-.1 0-.4.5-.4.7.5 1.4.2 2.2-1.4 2.2-.2 0-.4.5-.5.8.2.3.5.5.6.6zm16.6-14.7c-.1-.1-.2-.1-.3-.2v-.4c0-.9-1.6-2.3-2.2-1.9-.4.3-.4 1.3-.5 2 0 .2.2.4.2.6.2 1 .7 1.8 1.7 1.6.4-.2.7-1.2 1.1-1.7zm-63.4-43c2.6.3 4.5-.9 4.3-2.6h-3.4c-.2 0-.5.3-.5.5-.2.7-.2 1.3-.4 2.1zm61.3 79c0-1.2-1-3-1.8-3-1.2 0-1.6.9-1.9 1.8.9 1.4 2.3 1.3 3.7 1.2zm-85.3-58.7c.8.5 1.5 1 2.3 1.5.3.2.8.6 1 .5.4-.2.7-.6.8-1 .1-.3-.1-.9-.3-1.1-1.2-1.2-2.5-1.1-3.8.1zm21.7-9.2c1.5 1.6 1.2 4.3 3.6 5.2.4-2.3-1.6-5.2-3.6-5.2zm-17.1-10.8h.5c1.7-1.5 1.8-4.4-.2-5.5-.1 1.9-.2 3.7-.3 5.5zm86.2 40.6c-.5-.3-1.2-1.1-1.4-1-.7.4-1.3 1-1.7 1.7-.1.2-.1 1.6 1 1.5.9-.1 1.9-1 2.1-2.2zm-52.1-30.3c-.4.6-.7.9-.7 1 .3 1.2.7 2.3 1.2 3.4.1.3.6.5.9.7.2-.5.6-1 .5-1.4-.5-1.1-1.2-2.3-1.9-3.7zm27.5 38.2c-.5 1.4.3 2.4.7 3.5.1.3.5.4.7.6.2-.2.4-.4.5-.7.2-.7.7-1.6.5-2.1-.2-.5-1.2-.7-1.9-1 0-.1-.1-.2-.5-.3zm-26-25.3c.7-1.5.1-2.8-1.8-3.5-.3-.1-.8.1-1.1.1.1.5.1 1.1.4 1.3.7.7 1.6 1.4 2.5 2.1zm-13.2-18.9c-1.1-.2-1.9-.4-2.7-.5-.4 0-.8.1-1.2.1.1.4.1.9.3 1.2.5.7 1.3 1.2 2.1.8.5-.2.9-.9 1.5-1.6zm-2.8 13.5c.3 1.5.5 2.9.8 4.2.1.3.6.7.9.8.1 0 .6-.4.7-.7.3-.7-1.3-3.6-2.4-4.3zm-14.6-25.4c-.6.7-1.1 1.3-1.6 1.9-.2.3-.5.6-.4.8.1.2.6.5.8.5.6-.1 1.4-.2 1.7-.7.6-.7.6-1.7-.5-2.5zm9.2 9.9c-.1.2-.2.5-.3.7.6.5 1 1.2 1.7 1.3 1.1.3 1.8-.4 2.6-1.6-1.5-.1-2.8-.3-4-.4zm4.6 103.2c1.1-.9 1.3-1.9.6-3.3-.4-.9-1.1-1.1-2-.8.5 1.4.9 2.7 1.4 4.1zm-2.5-1.5c-1.2-.1-2.4 1.3-3.9 3 .7.1 1.4.4 1.5.2 1-1.1 1.9-2.4 2.4-3.2zm9.6-84c-1.3.5-2 1-2 2.2 0 1 .1 1.8 1.3 2.2.2-1.5.4-2.8.7-4.4zm-2.2-13.4c-1 .1-1.9.1-2.8.3-.3.1-.7.4-.8.7 0 .3.3.7.6.8 1.2.6 2.5-.2 3-1.8zm-11 101.5c-1.3-.8-2.8-.3-3.4 1-.3.6-.1.7.5.7 1.4 0 2.4-.5 2.9-1.7zm56.8-72.6l.3.3c.6-.2 1.8-.4 1.9-.6 0-1-.3-2.1-.4-3.1h-.4c-.6 1.2-1 2.3-1.4 3.4zm6.8 37.5c-1.7-.3-3.1.2-4.1 1.4-.2.2.1.7.1 1.3 1.5-1 2.8-1.9 4-2.7zm-44-77.4c-.1.1-.1.3-.2.4.6.7 1.2 1.5 1.9 2 .2.1.8-.3 1.3-.5-.5-.7-.9-1.5-1.6-2.1-.2-.1-.9.2-1.4.2zm-28.6 30.1c1.3-.3 1.2-1.4 1.5-2.2.1-.2-.4-.8-.7-1.2-.4.3-1.1.6-1.1.9 0 .9.2 1.6.3 2.5zm32.4-7.5c.4.8.8 1.6 1.3 2.3.1.2.5.1.8.2 0-.3.1-.5.1-.8-.1-.6-.3-1.2-.5-1.8-.2-.4-.6-.8-.9-1.2-.2.4-.5.8-.8 1.3zm-15.6-15.3c1.5-.5 2.2-1.2 2-2.9-.8.3-1.7.4-2.2.9-.4.4 0 1.3.2 2zm25.4 18.9c-.1-1.2-.5-2.3-1.6-2.8-.3-.1-.9.2-1.3.3.2.4.4.9.7 1.1.6.6 1.4.9 2.2 1.4zm-24.8-10.6c-.8 1-.8 1.7.3 2.3.4.2 1.4.1 1.5-.2.8-1.8-1.1-1.4-1.8-2.1zm0-1.7c-1-.5-1.6-1-2.4-1.2-.2-.1-.6.4-.9.7.6.6 1.2 1.2 1.8 1.6.2 0 .8-.5 1.5-1.1zm-4-4.7c-.4.6-.8.9-.8 1.1 0 1.1.9 1.4 1.8 1.4.3 0 .6-.4.9-.6-.6-.6-1.2-1.1-1.9-1.9zm58.1 32.4c-.1-.1-.3-.1-.4-.2-.5.9-1.1 1.9-1.7 2.9 2.1.5 2.4 0 2.1-2.7zm2.7-6.7c-1.5.6-1.9 1.4-1.7 2.9 1.5.1 2-.7 1.7-2.9zm-57.1 75.3c1.2.7 2.2 1.3 3.2 1.8.2.1.6 0 .8-.1.1 0 .1-.4 0-.6-.4-.8-2.9-1.5-4-1.1zm-23.2-102.4c.8-.1 1.3-.1 1.6-.4.5-.4 1.3-.9.8-1.8-1.4-.3-1.7.8-2.4 2.2zm1.6 14.9c0 .1-.1.3-.1.4.4.1.8.3 1.2.4.4.1.8.2 1.1.3.5.1 1 .2 1.5.4.1-.6.2-1.1.3-2-1.4.8-2.6 1.6-4 .5zm18.1 6.7c.1 0 .2-.1.4-.1-.1-.5-.1-1.2-.4-1.6-.3-.4-1-.6-1.5-.9-.1.3-.4.7-.3.8.5.7 1.1 1.2 1.8 1.8zm18.8-26.1c-.2.2-.4.3-.5.5.4.6.8 1.3 1.3 1.9.1.2.7.1.9 0 .2-.2.2-.7 0-.9-.5-.6-1.1-1.1-1.7-1.5zm8.9 13.3c-.8-.6-1.3-1.1-1.9-1.5-.1-.1-.5.4-.7.6.5.5 1 1.1 1.5 1.5.1 0 .5-.3 1.1-.6zm-43 10.9c.2-1.5 0-1.9-1.1-2.3v2.3h1.1zm19.3-13c.5 1.3 1.2 1.2 1.8.8.3-.2.4-.8.6-1.2l-.3-.3c-.7.2-1.4.4-2.1.7zm8.5-13.7l.3-.6c-.5-.4-.9-.8-1.4-1.1-.2.5-.5 1-.7 1.5.6 0 1.2.1 1.8.2zm-25.3 1.8c-.3-.6-.5-1.2-.8-1.7-.3.1-.7.2-.7.4-.1.6 0 1.1 0 1.8l1.5-.5zm.8 0c1.3.4 1.9.2 2-.6 0-.3-.4-.7-.6-1-.5.4-.9.9-1.4 1.6zm38.5 100.9c.3 0 .6-.1.9-.1 0-.6-.1-1.3-.1-1.9-.3.1-1 .2-1 .3-.1.6.1 1.1.2 1.7zm29.1-42.2v-.4c-.5-.2-1-.5-1.6-.8-.2.8-.3 1.4-.4 2 .8-.3 1.4-.6 2-.8zm-47.6 50.8c.2 1.6.8 1.8 2.4.6-1-.2-1.7-.4-2.4-.6z"/><path d="M-590.3 1269.2c-1-.3-2-.6-3.1-.9-.1 0-.2-.2-.4-.2-3.3-.8-3.3-.8-3.3-4.3v-17.1l-.3-19.8c0-1.8 0-1.8 1.8-1.8h3.5c.8 0 1.1.2 1.2 1.1l.3 9.9.3 23.2v9.9zm-1-42.4c-1-.2-1.8-.3-2.5-.4-1.7-.2-2.4.5-2.2 2.2.1.5.2 1.1.3 1.6l.3 26.5v8.4c0 .7-.1 1.6.2 2.1.2.3 1.1.2 1.7.4.3.1.6.3.8.4.6.2 1.2.3 2 .5-.2-14.1-.4-27.9-.6-41.7zM-585.4 1224.5c1.8 0 3.5-.1 5.2.1.3 0 .7.8.7 1.3.1 3.9 0 7.9 0 11.8l.3 14.4v15.2c-1.7.7-3.6 1.4-5.6 2.2-.1-2.2-.3-4.3-.4-6.4v-17.7c0-6.3-.2-12.6-.3-18.9.1-.5.1-1 .1-2zm1.9 43.7c1.1-.4 2-.7 2.9-1 .9-.3 1.3-.8 1.2-1.9-.2-5.3-.2-10.6-.3-15.9l-.3-22.2c0-1.1-.4-1.5-1.4-1.4-.5.1-1 .3-1.4.2-1.2-.1-1.4.6-1.3 1.5.1 1.7.2 3.3.3 5l.3 27.8v7.9zM-602.3 1267c-1.7-.2-3.4-.3-5.2-.6-.3-.1-.7-.9-.7-1.4-.1-4.3 0-8.6 0-13l-.3-18.6v-8.8c1.8.1 3.6.1 5.4.4.3 0 .6.9.6 1.5v11.6c.1 5.9.2 11.8.3 17.6-.1 3.6-.1 7.3-.1 11.3zm-.8-28.7v-9.4c0-2.3-.1-2.4-2.2-2.9-1.6-.4-1.9-.1-1.9 1.5l.3 20.6v15.5c0 2.4.1 2.4 2.5 2.6 1.4.1 1.7-.4 1.6-1.7l-.3-17.5v-8.7zM-620 1223.1c1.7.2 3.5.4 5.3.7.3 0 .5.5.6.8.1.1 0 .3 0 .4l.3 32.4c0 2 .2 4 .3 6.1v1.8c-1.6-.9-2.8-1.6-4.1-2.3-.6-.4-1.3-.7-1.6-1.3-.4-.6-.8-1.3-.8-2-.1-7.9 0-15.8 0-23.7v-12.9zm1.4 30.9h.3c0 2 .1 4.1 0 6.1-.1 1.1.4 1.9 1.3 2.4.6.4 1.1.7 1.7 1 1.1.6 1.5.3 1.5-1-.1-3.2-.2-6.3-.3-9.5l-.3-20.3v-6.5c0-.4-.4-1.1-.7-1.2-.7-.3-1.5-.3-2.2-.4-.7-.1-1.2.1-1.2.9v2.9c-.1 8.6-.1 17.1-.1 25.6zM-559.3 1261c-.7 1.2-1.8 1.7-3.2 2.3l-.6-40.3c1.9-.3 3.7-.6 5.6-.8.6-.1.9.1.8.9-.2 1 .1 2.1.2 3.2v7.6c0 1.8.2 3.6.2 5.4 0 2.3-.2 4.5-.2 6.8 0 3.6.2 7.1.2 10.7 0 2-1.1 3.5-3 4.2.4-.4.7-.9 1.2-1.2 1.1-.8 1.4-1.9 1.4-3.3-.2-3.7-.2-7.4-.3-11.2l-.3-20.5c0-.3-.1-.5-.1-.9h-2.3c-1.7 0-1.8 0-1.7 1.7l.3 34.1c-.1 2.2-.1 2.2 1.8 1.3zM-573.4 1266.5v-2.4l-.3-34.8c0-1.4-.2-2.8-.2-4.2 0-.4.5-1.1.8-1.1 1.5-.2 2.9-.2 4.4-.3.2 0 .6.3.6.5.1 1.8.1 3.6.1 5.5l.3 33.8c0 1.3-.4 1.9-1.6 2.1-1.3.3-2.6.6-4.1.9zm1.3-.6c1.2-.4 2.2-.8 3.2-1 .8-.2.9-.6.9-1.2l-.3-3.3-.3-21.8v-10.1c0-1.1-.2-2.2-.3-3.3-.7 0-1.3-.1-1.9 0-1.1.1-1.8.6-1.7 2 .2 2.1 0 4.2 0 6.3l.3 17.4c.1 4.8.1 9.6.1 15zM-641.5 1252.5c-.3-.3-.9-.6-1-1.1-.8-3.4-1.8-6.8-.9-10.3.6-2.5 2.1-4.3 3.9-5.9 1.9-1.6 4-2.9 5.3-5.2 1.2-2.1 3.6-2.8 6.1-3.8-1 2.3-1 4.5-2.6 6.3-.8.9-1 2.3-1.3 3.5-.6 3-2.4 5.2-4.5 7.5 1-.3 2.1-.4 3.1-.8s2-1 3.2-1.6c0 1.8-.5 3.4-1.5 4.6-1.6 1.8-3.4 3.6-5.4 5-1.9 1.4-3.2 4.2-1.6 6.7.5.8.7 1.7 1.1 2.9-.6-.4-1.1-.7-1.3-1-1-2.4-2.8-3.1-5.3-3.1-2.6.1-5.2-.4-7.4-2.2-1-.8-2-1.8-2.7-2.9-1.3-2-3-3.5-5.1-4.5-.3-.1-.5-.3-.7-.6-1.3-2.3-2.1-4.8-1.8-7.9 1.1 1.2 1.8 2.2 2.8 3 .9.7 1.9 1.5 3 1.6 5.2.7 8.6 3.9 11.2 8 1 1.5 2 2.9 3.1 4.3.3.4.9.6 1.4.8.1-.1.2-.2.4-.3-.4-1-.8-2.1-1.2-3.1.3-.7.6-1.3.8-2 .5-2 1.9-3.9 3.2-4.3-2.5 3.2-2.3 3.6-1.8 5.4.4-.7.8-1.2 1.2-1.7.7-1.1 1.4-2.3 2.7-2.8.9-.3 1.7-1 2.4-1.6.8-.7 1-1.5.6-2.6-2.6.5-5 1-7.1 2.8-2.4 2.3-3 4.4-2.3 6.9zm-3.1 1.2c.1-.1.1-.3.2-.4-1.9-2.2-3.7-4.5-5.7-6.5-2-1.9-4.3-3.4-7.2-3.7-.6-.1-1.2-.3-1.6-.6-.8-.7-1.4-1.6-2.1-2.4-.1.3-.3.5-.2.7.7 1.5 1.3 3 2.2 4.4.6.8 1.6 1.3 2.4 2.1 2.1 2 3.6 4.7 6.2 6.2 1.8 1 3.8 1.7 5.7 2.4.2.1.6-.3 1-.5-.2-.2-.4-.4-.7-.6-.9-.6-1.9-1-2.8-1.7-1.7-1.3-3.2-2.8-4.8-4.2l-2.1-1.8c.1-.1.2-.3.3-.4.9.6 1.9 1.2 2.8 1.9 1.8 1.6 3.4 3.2 5.2 4.8.1.1.7.1 1.2.3zm9.7-19.3c.1 1.6-.5 2.9-1.6 4-1.7 1.7-3.5 3.3-4.4 5.5-.5 1.2-1.3 2.4-.9 3.9.7-.8 1.2-1.8 1.8-2.6.8-1.1 1.5-2.2 2.5-3 2.2-1.9 4-4.1 4.5-7 .3-1.6.8-2.9 1.9-4.1.8-.9 1.7-1.9 1.3-3.3-2.5.9-3.4 1.7-4.6 4.1-.5.9-1.1 1.8-1.9 2.3-2.9 1.7-5.4 3.7-6.5 7-.3 1.1-.2 2.3-.2 3.7 2.8-3.7 5.5-7.1 8.1-10.5zM-624 1282.6c.9-.6 1.6-1.1 2.5-1.6-2.3-1.1-4.5-2-7-1.7-1.1.1-1.9-.2-2.3-1 1-.5 2-.9 2.9-1.5 2.2-1.7 4.7-2.2 7.5-2.4-1.1-1.6-2-3.1-3.1-4.7 1.4.5 2.7 1.2 4 1.4 1.4.3 2.9.2 4.4.2 3.6 0 7 .4 9.6 3.5 1.5 1.7 3.2 3.3 5 4.8.7.6 1.8.9 2.6 1.6h-3c-1.9 0-3.5.9-5.2 1.7-2.6 1.1-5.1 2.7-8.1 2.4-1.3-.1-2.6-.6-4-.9s-2.8-.6-4.1-1c-.5-.3-1.1-.6-1.7-.8zm16.7-2.7c-6-3.6-10.5-1-14.9 2.7l1.2.3c.9.1 1.9 0 2.6.4 1.9 1.2 3.9 1.1 5.9.6 2.3-.6 4.5-1.5 6.7-2.3.4-.1.7-.5 1-.8 0-.1-.1-.2-.1-.4-1 .1-2.1.1-3.1.3-1.7.3-3.3.8-4.9 1.1-.8.1-1.7-.2-2.6-.4 2.9-.5 5.4-1 8.2-1.5zm-6.2-5.4c0-.1.1-.2.1-.3 1.6.6 3.3 1.1 4.9 1.8 1.6.7 2.9 2 5.2 2.2-2-2.5-4.4-3.7-6.7-5-3.2-1.9-6.8-.6-10.2-.7.3 1.8 3 3.4 4.7 3.8 1.5.3 3.1.1 4.5.6 2.1.7 4.1 1.9 6.1 2.9 1.1.5 2.1.6 2.7.1-3.8-1.9-7.5-3.6-11.3-5.4zm-14.9 3.7c2 .4 3.9.8 5.8 1.2 1.9.5 3.5.2 5.1-1.2-1.8-.1-3.3-.3-4.9-.4v-.6h4.3c-1-2.5-8.4-2-10.3 1z"/><path d="M-657.2 1233.9c2.7 2.3 5.5 4.6 8.4 7.1-.4-2.1-1.6-3.4-2.7-4.8-2.6-3.2-6.2-4.5-10-5.6-.2-.1-.7.1-.8.3-.1.3-.1.9.1 1.1.7.8 1.5 1.5 2.2 2.3 1 1.2 1.9 2.4 2.7 3.6 1.3 2 3.4 2.6 5.3 3.6 1.7.9 3.3 1.9 4 3.9-1.7-1-3.4-2.1-5.2-3-2.1-1.1-4.1-2.4-5.1-4.6-.8-1.7-1.9-3-3.4-4.2-1.7-1.4-2.1-3.3-1.7-5.7 1.9 2.3 4.5 3 7.2 3.5-3-3.2-3.1-7.4-4.3-11.1 1.7 1.2 3.5 2.4 5.2 3.8 2.1 1.7 4.3 3.2 5.9 5.2 1.8 2.2 2.8 5 3 8 0 .4.1.7.5 1.2.4-.9.8-1.8 1.2-2.6.3-.6.6-1.1.9-1.6.2-.5.4-1 .3-1.4-.6-2-.1-2.9 1.9-3.4 1-.2 2.1-.3 2.6.9s.3 2.6-.7 3.3c-.4.3-1.2.7-1.6.5-1.4-.6-1.9.4-2.3 1.2-1.6 2.5-1.8 5.3-1.3 8.2.3 1.7.3 3.4.5 5.2-.1 0-.2.1-.3.1-.8-1.3-1.4-2.6-2.3-3.8-1.2-1.6-2.4-3.2-3.8-4.5-2.1-2.1-4.5-3.9-6.7-5.9 0-.5.2-.7.3-.8zm11.2 10.8c1.1-7.4-5.8-19-12.9-22 0 .3-.1.6 0 .8.9 2.9 2.4 5.5 4.2 7.8.5.6.9 1.3 1.5 1.8 2.1 1.6 3.8 3.4 4.8 5.9.8 1.8 1.5 3.6 2.4 5.7zm2.7-13.5c.7.7 1.2 1.2 1.6 1.7.4-.4 1.2-.8 1.2-1.2.1-1.1-.8-1.4-1.6-1.4-.3-.1-.6.4-1.2.9zM-646.3 1266.1c3.3.3 6.8.4 10.2.9 2.9.4 5 2.5 7 4.4.8.7 1.5 1.5 2.9 1.2-3.7-3.4-5.7-7.7-7-12.4 2.6 3.1 3.1 7.4 6.3 10.2-.1-.4-.1-.7-.2-1.1-.6-2.6-1.1-5.2-1.9-7.7-.5-1.4-1.4-2.7-2.1-4.1l-2.7-5.7c-1.2.3-2.2 5-1.8 8.3.4 3.2 2 5.6 4.3 7.7-3.2-1.6-6.5-3.2-9.7-4.8.1-.1.1-.2.2-.3l5.7 1.9c-.7-2.9-2.5-5.2-1.8-8.1.7-2.7 1.9-5.1 4-7.1.1 1 .2 2 .5 3 .6 2 1.8 3.5 3.2 5.1 2.2 2.4 2.6 5.5 2.8 8.6.1 2.2.4 4.4 2 6.2.4.4 1 .7 1.7 1.2-.6.1-.9.3-1.3.2-2.1-.2-4 .1-5.9 1.1-1.8.9-3.7.4-5.6.2-1-.1-2-.1-2.9-.5-1.1-.5-2.1-1.3-3.1-2-1.2-.9-2.2-1.9-2.8-3.6-.3-1.1-1.4-2-2-2.8zm15.6 7.7c-2.4-1.1-4.7-2.2-7.1-3.4 2.7.2 4.9 1.9 7.9 2-1.2-2.3-3.4-3-5.1-4.1-2.8-1.7-6-.6-9.1-.9 1.9 4.5 10.6 8.4 13.4 6.4z"/><path d="M-652.3 1213.6c.5.5 1.1 1 1.5 1.5.7 1 1.4 2.1 2.1 3.3.3-.6.5-.9.8-1.4 3.8 2.6 2.5 6.5 3.1 10.1.4-.7.9-1.3 1-2 .8-3.8 3.4-6 6.5-7.7 1.8-1 3.5-1.9 5-3.3.5-.5 1.2-.8 1.9-1.3-1.7 5.1-4.1 9.5-8.5 12.6-1.1.8-2.5 1.4-3.6 2.2-1.6 1.1-2.6 2.5-2.7 4.5 0 .4-.2.8-.5 1.2-.1-.4-.3-.9-.2-1.2.3-2-.9-3.3-2.3-4.5-2.2-1.9-4.3-3.9-5.5-6.5-.7-1.4-.8-3.1-1.3-4.6-.1-.5-.2-1.2-.6-1.6-1.2-1.5-1.2-3.1-1-4.7.9.8 1.9 1.6 2.9 2.5h-1.5c.1.5.1 1.1.3 1.5 1 1.5 1.6 3.2 1.4 5 0 .5.2 1.2.4 1.7 1 2.3 2.6 4.2 4.6 5.7.5.4 1.1.8 1.6 1.2l.4-.4c-2.3-2.7-5.4-5-5.6-8.6 1.1 1.6 2.3 3.4 3.4 5.2.2-.1.5-.2.7-.3-.4-1.1-.6-2.2-1.2-3.1-1.2-2.2-2.2-4.5-3.1-7zm9.8 11c1.8-1.5 3.6-3 5.4-4.6.1.2.3.3.4.5-.9.8-1.9 1.6-2.8 2.5-.9.9-1.6 1.9-2.6 3.1.6 0 .9.1 1 0 1.2-.9 2.6-1.8 3.7-2.9 1.2-1.1 2.1-2.5 3.2-3.8.7-.9 1.9-1.6 1.7-3.4-.9.6-1.6 1-2.3 1.4-2.1 1.1-4.5 1.5-6.1 3.5-.9 1.1-1.8 2-1.6 3.7zm-4.8-5.5c-.1.1-.3.2-.3.3.2 2 .4 4 .7 6 0 .2.6.5.8.4.3-.1.6-.5.6-.7.1-1.3.2-2.6 0-3.8-.3-1-.5-2.1-1.8-2.2z"/><path d="M-644 1221.7c-.2-.3-.3-.5-.4-.7-.6-1.2-.9-2.6-1.7-3.7-2.1-2.6-3-5.4-2.2-8.7.2-.9 0-1.8.3-2.6.5-1.3 1.2-2.4 2-3.9.6 2.5 1.1 4.5 1.5 6.6 1.4-2.7 2.8-5.2 4.1-7.7h.2c.2 2.1.3 4.3.5 6.4.1.1.3.2.4.3 1.9-1.4 3.8-2.9 5.9-4.5-.2 1-.1 2.1-.5 2.8-1.1 1.6-1.3 3.5-1.9 5.3-.5 1.4-1.4 2.5-2.6 3.5-1.6 1.3-3.1 2.9-4.5 4.4-.5.6-.7 1.6-1.1 2.5zm-2.4-17.5c-2.4 1.8-1.5 10.7 1.3 12.2-.6-2.2-1.1-4.1-1.6-6 .2 0 .4-.1.6-.1.7 2.6 1.3 5.3 2 7.9.1 0 .3-.1.4-.1 0-.8.1-1.6 0-2.4-.3-2.1-.2-4.4-1.8-6.1-.3-.3-.3-.8-.3-1.3-.2-1.3-.4-2.6-.6-4.1zm11.2 1.2c-4.3 2.9-6.2 7.2-7.6 11.8 3.3-3.3 7-6.5 7.6-11.8zm-7.3 8.1c2.7-2.8 1.7-6.3 2-9.8-2.6 2.2-3.6 7.4-2 9.8zM-637.1 1262.4c-2-.7-4-1.3-6-2-.1 1.1 0 2-.4 2.6-.8 1.3-2.2 1.2-3.2.6-.9-.5-1.7-1.5-2-2.4-.3-.8 0-2 .5-2.8.9-1.5 3.3-1.3 4.6.4.9 1.2 1.9 1.3 3.1 1.4 1.3.2 2.5.8 3.3 1.9.1.1.1.3.1.4-.1.1-.1.2 0-.1zm-7.5.3c-.2-.6-.5-1.1-.6-1.6-.2-.6-.1-1.3-.4-1.8-.2-.3-1.1-.5-1.3-.3-.5.3-1 1-1 1.5-.3 1.7 1.1 2.6 3.3 2.2zM-592.1 1175.3c2.1.4 3.1-1 4.4-2.4.2 1.4-.4 2-1.2 2.6-1 .6-2.1.5-3.2-.2zM-588.6 1165.3c.9 1.3.5 2.2-.2 3.1-.8 1-2.1 1.1-3.5.4 3.1.9 3-1.6 3.7-3.5zM-591.3 1162.5c2 1.7 2.7 1.8 4.4.6-.4 1-1.6 1.6-2.8 1.5-.9-.1-1.4-.7-1.6-2.1zM-591.2 1160.3c-1.3-1.5-1.9-3.1-1.3-5 .4 1.7.8 3.3 1.3 5zM-586.9 1158.9c-1.6-1.3-1.9-2.2-1.4-4.4.4 1.4.9 2.8 1.4 4.4zM-585.8 1161.1c1.3 1.6 2.4.8 3.7-.1-.4 1.3-.7 1.9-1.8 1.9-.9.1-1.5-.3-1.9-1.8zM-515.6 1231.7c1-.9 2-.1 2.6.5.4.4.4 1.6.2 2.3-.6 2-2.5 2.2-4.2 2.5-.9.2-1.2.5-.7 1.3-1.3.1-.9-1.2-1.5-2 1.3-.4 2.5-.6 3.7-1 .8-.3 1.8-.6 1.7-1.7 0-1.2-.9-1.5-1.8-1.9zM-610.2 1163c-1.6 2.1-3.1 4.3-4.9 6.2-.5.5-1.9.5-2.8.2-1-.3-1.1.2-1.4.8-.8 2-1.7 4-2.7 6-.4.8-1.2 1.3-1.8 2-.2.2-.2.6-.4.9-1.3-.3-2.6-.7-3.9-1 0-.2.1-.3.1-.5.6 0 1.1.1 1.7 0 2.3-.3 3.6-2 4.6-3.9.9-1.8 1.8-3.6 2.7-5.5 2.2 1.1 3.8-.5 5.3-1.8 1.4-1.1 2.4-2.3 3.5-3.4zM-625.9 1164.7c.1-.1.2-.5.4-.8 2.7 1 4.5 0 6.3-2.3.9-1.2 2-2.3 3-3.5.1.1.3.2.4.3-1.6 2-3.2 3.9-4.8 5.9-.4.5-1.4 1.1-.7 1.7.4.4 1.7.4 2.1.1 1.6-1.3 3.1-2.9 4.6-4.4.7-.7 1.4-1.3 2.1-1.8-1.4 1.8-2.7 3.5-4.1 5.3-.3.4-.7.8-1.1 1.2-1.9 1.6-2.4 1.6-4-.3-.2-.3-.7-.3-1.1-.4-.6-.2-1.2-.4-1.9-.6-.3-.2-.7-.2-1.2-.4zM-548.7 1273.6l.9-1.2c.5-.5.1-2.2 1.7-1.5.8-1 1.7-1.9 2.5-3 .3-.4.5-.9 1-1.3.1.5.1.9.2 1.6 2 0 3-1.7 4.7-2.7-.3.6-.5.9-.7 1.2-.3.6-1.7.7-1 1.9-.3.1-.7.3-1 .4-1.5.4-3.1.7-4.2 2 .3.2.6.3 1.3.6-1.9.9-3.6 1.4-5.4 2zM-654.9 1227.5c2.5 2.7 5.1 5 5.9 8.6-1-3.4-5.1-4.8-5.9-8.6z"/></svg>