<svg width="1440" height="530" viewBox="0 0 1440 530" xmlns="http://www.w3.org/2000/svg">
  <!-- Gradient Background -->
  <defs>
    <linearGradient id="backgroundGradient" x1="0%" y1="0%" x2="100%" y2="100%">
      <stop offset="0%" style="stop-color: #073642; stop-opacity: 1" />
      <stop offset="100%" style="stop-color: #0b525b; stop-opacity: 1" />
    </linearGradient>
  </defs>
  <rect width="1440" height="530" fill="url(#backgroundGradient)" />

  <!-- First Layer of Dots -->
  <circle cx="100" cy="150" r="2" fill="#b2e0e6" opacity="0.8" />
  <circle cx="200" cy="100" r="3" fill="#a0d7d5" opacity="0.7" />
  <circle cx="300" cy="200" r="2" fill="#9fd6d5" opacity="0.9" />
  <circle cx="400" cy="300" r="4" fill="#b2e0e6" opacity="0.6" />
  <circle cx="500" cy="100" r="3" fill="#b0e0e6" opacity="0.8" />
  <circle cx="600" cy="350" r="2" fill="#9fd6d5" opacity="0.9" />
  <circle cx="700" cy="250" r="4" fill="#a0d7d5" opacity="0.7" />
  <circle cx="800" cy="400" r="3" fill="#b2e0e6" opacity="0.8" />
  <circle cx="900" cy="150" r="2" fill="#b0e0e6" opacity="0.6" />
  <circle cx="1000" cy="200" r="3" fill="#9fd6d5" opacity="0.9" />
  <circle cx="1100" cy="300" r="4" fill="#a0d7d5" opacity="0.7" />
  <circle cx="1200" cy="450" r="3" fill="#b2e0e6" opacity="0.9" />
  <circle cx="1300" cy="200" r="2" fill="#b0e0e6" opacity="0.8" />
  <circle cx="1400" cy="100" r="3" fill="#9fd6d5" opacity="0.9" />

  <!-- Second Layer of Dots for Depth -->
  <circle cx="150" cy="350" r="5" fill="#ffffff" opacity="0.1" />
  <circle cx="250" cy="450" r="6" fill="#b0e0e6" opacity="0.2" />
  <circle cx="350" cy="150" r="4" fill="#a0d7d5" opacity="0.3" />
  <circle cx="450" cy="250" r="3" fill="#ffffff" opacity="0.15" />
  <circle cx="550" cy="100" r="6" fill="#b2e0e6" opacity="0.2" />
  <circle cx="650" cy="200" r="5" fill="#9fd6d5" opacity="0.25" />
  <circle cx="750" cy="350" r="4" fill="#b2e0e6" opacity="0.3" />
  <circle cx="850" cy="100" r="5" fill="#a0d7d5" opacity="0.2" />
  <circle cx="950" cy="400" r="6" fill="#b0e0e6" opacity="0.3" />
  <circle cx="1050" cy="200" r="5" fill="#9fd6d5" opacity="0.25" />
  <circle cx="1150" cy="250" r="4" fill="#b2e0e6" opacity="0.2" />
  <circle cx="1250" cy="100" r="5" fill="#ffffff" opacity="0.15" />
  <circle cx="1350" cy="300" r="6" fill="#9fd6d5" opacity="0.25" />

  <!-- First Layer of Lines -->
  <line x1="100" y1="150" x2="200" y2="100" stroke="#5f9ea0" stroke-width="0.5" opacity="0.5" />
  <line x1="200" y1="100" x2="300" y2="200" stroke="#5f9ea0" stroke-width="0.5" opacity="0.5" />
  <line x1="300" y1="200" x2="400" y2="300" stroke="#5f9ea0" stroke-width="0.5" opacity="0.5" />
  <line x1="400" y1="300" x2="500" y2="100" stroke="#5f9ea0" stroke-width="0.5" opacity="0.5" />
  <line x1="500" y1="100" x2="600" y2="350" stroke="#5f9ea0" stroke-width="0.5" opacity="0.5" />
  <line x1="600" y1="350" x2="700" y2="250" stroke="#5f9ea0" stroke-width="0.5" opacity="0.5" />
  <line x1="700" y1="250" x2="800" y2="400" stroke="#5f9ea0" stroke-width="0.5" opacity="0.5" />
  <line x1="800" y1="400" x2="900" y2="150" stroke="#5f9ea0" stroke-width="0.5" opacity="0.5" />
  <line x1="900" y1="150" x2="1000" y2="200" stroke="#5f9ea0" stroke-width="0.5" opacity="0.5" />
  <line x1="1000" y1="200" x2="1100" y2="300" stroke="#5f9ea0" stroke-width="0.5" opacity="0.5" />
  <line x1="1100" y1="300" x2="1200" y2="450" stroke="#5f9ea0" stroke-width="0.5" opacity="0.5" />
  <line x1="1200" y1="450" x2="1300" y2="200" stroke="#5f9ea0" stroke-width="0.5" opacity="0.5" />
  <line x1="1300" y1="200" x2="1400" y2="100" stroke="#5f9ea0" stroke-width="0.5" opacity="0.5" />

  <!-- Second Layer of Lines for Additional Complexity -->
  <line x1="150" y1="350" x2="250" y2="450" stroke="#7ea3a2" stroke-width="0.3" opacity="0.4" />
  <line x1="250" y1="450" x2="350" y2="150" stroke="#7ea3a2" stroke-width="0.3" opacity="0.4" />
  <line x1="350" y1="150" x2="450" y2="250" stroke="#7ea3a2" stroke-width="0.3" opacity="0.4" />
  <line x1="450" y1="250" x2="550" y2="100" stroke="#7ea3a2" stroke-width="0.3" opacity="0.4" />
  <line x1="550" y1="100" x2="650" y2="200" stroke="#7ea3a2" stroke-width="0.3" opacity="0.4" />
  <line x1="650" y1="200" x2="750" y2="350" stroke="#7ea3a2" stroke-width="0.3" opacity="0.4" />
  <line x1="750" y1="350" x2="850" y2="100" stroke="#7ea3a2" stroke-width="0.3" opacity="0.4" />
  <line x1="850" y1="100" x2="950" y2="400" stroke="#7ea3a2" stroke-width="0.3" opacity="0.4" />
  <line x1="950" y1="400" x2="1050" y2="200" stroke="#7ea3a2" stroke-width="0.3" opacity="0.4" />
  <line x1="1050" y1="200" x2="1150" y2="250" stroke="#7ea3a2" stroke-width="0.3" opacity="0.4" />
  <line x1="1150" y1="250" x2="1250" y2="100" stroke="#7ea3a2" stroke-width="0.3" opacity="0.4" />
  <line x1="1250" y1="100" x2="1350" y2="300" stroke="#7ea3a2" stroke-width="0.3" opacity="0.4" />
</svg>
