<svg width="1440" height="530" viewBox="0 0 1440 530" xmlns="http://www.w3.org/2000/svg">
  <!-- Gradient Background -->
  <defs>
    <linearGradient id="backgroundGradient" x1="0%" y1="0%" x2="100%" y2="100%">
      <stop offset="0%" style="stop-color: #073642; stop-opacity: 1" />
      <stop offset="100%" style="stop-color: #0b525b; stop-opacity: 1" />
    </linearGradient>
  </defs>
  <rect width="1440" height="530" fill="url(#backgroundGradient)" />

  <!-- Left Cluster of Dots -->
  <circle cx="100" cy="150" r="3" fill="#b2e0e6" opacity="0.8" />
  <circle cx="200" cy="100" r="2" fill="#a0d7d5" opacity="0.7" />
  <circle cx="300" cy="200" r="4" fill="#9fd6d5" opacity="0.9" />
  <circle cx="150" cy="250" r="3" fill="#b0e0e6" opacity="0.6" />
  <circle cx="250" cy="300" r="2" fill="#b2e0e6" opacity="0.8" />
  <circle cx="50" cy="350" r="4" fill="#9fd6d5" opacity="0.9" />
  <circle cx="180" cy="400" r="3" fill="#a0d7d5" opacity="0.7" />
  <circle cx="120" cy="420" r="2" fill="#b0e0e6" opacity="0.8" />
  <circle cx="60" cy="470" r="3" fill="#9fd6d5" opacity="0.5" />
  <circle cx="240" cy="450" r="2" fill="#b2e0e6" opacity="0.6" />

  <!-- Right Cluster of Dots -->
  <circle cx="1300" cy="150" r="3" fill="#b2e0e6" opacity="0.8" />
  <circle cx="1200" cy="100" r="2" fill="#a0d7d5" opacity="0.7" />
  <circle cx="1100" cy="200" r="4" fill="#9fd6d5" opacity="0.9" />
  <circle cx="1250" cy="250" r="3" fill="#b0e0e6" opacity="0.6" />
  <circle cx="1150" cy="300" r="2" fill="#b2e0e6" opacity="0.8" />
  <circle cx="1350" cy="350" r="4" fill="#9fd6d5" opacity="0.9" />
  <circle cx="1220" cy="400" r="3" fill="#a0d7d5" opacity="0.7" />
  <circle cx="1270" cy="420" r="2" fill="#b0e0e6" opacity="0.8" />
  <circle cx="1380" cy="470" r="3" fill="#9fd6d5" opacity="0.5" />
  <circle cx="1150" cy="450" r="2" fill="#b2e0e6" opacity="0.6" />

  <!-- Left Cluster of Lines -->
  <line x1="100" y1="150" x2="200" y2="100" stroke="#5f9ea0" stroke-width="0.5" opacity="0.5" />
  <line x1="200" y1="100" x2="300" y2="200" stroke="#5f9ea0" stroke-width="0.5" opacity="0.5" />
  <line x1="150" y1="250" x2="250" y2="300" stroke="#5f9ea0" stroke-width="0.5" opacity="0.5" />
  <line x1="50" y1="350" x2="180" y2="400" stroke="#5f9ea0" stroke-width="0.5" opacity="0.5" />
  <line x1="100" y1="150" x2="180" y2="400" stroke="#5f9ea0" stroke-width="0.5" opacity="0.5" />
  <line x1="120" y1="420" x2="50" y2="350" stroke="#5f9ea0" stroke-width="0.5" opacity="0.5" />
  <line x1="60" y1="470" x2="240" y2="450" stroke="#5f9ea0" stroke-width="0.5" opacity="0.5" />

  <!-- Right Cluster of Lines -->
  <line x1="1300" y1="150" x2="1200" y2="100" stroke="#5f9ea0" stroke-width="0.5" opacity="0.5" />
  <line x1="1200" y1="100" x2="1100" y2="200" stroke="#5f9ea0" stroke-width="0.5" opacity="0.5" />
  <line x1="1250" y1="250" x2="1150" y2="300" stroke="#5f9ea0" stroke-width="0.5" opacity="0.5" />
  <line x1="1350" y1="350" x2="1220" y2="400" stroke="#5f9ea0" stroke-width="0.5" opacity="0.5" />
  <line x1="1300" y1="150" x2="1220" y2="400" stroke="#5f9ea0" stroke-width="0.5" opacity="0.5" />
  <line x1="1270" y1="420" x2="1350" y2="350" stroke="#5f9ea0" stroke-width="0.5" opacity="0.5" />
  <line x1="1380" y1="470" x2="1150" y2="450" stroke="#5f9ea0" stroke-width="0.5" opacity="0.5" />

  <!-- Additional Bokeh Effect Dots for Depth (Concentrated on Sides) -->
  <circle cx="150" cy="450" r="6" fill="#b2e0e6" opacity="0.2" />
  <circle cx="200" cy="350" r="5" fill="#ffffff" opacity="0.1" />
  <circle cx="1300" cy="450" r="6" fill="#b2e0e6" opacity="0.2" />
  <circle cx="1250" cy="350" r="5" fill="#ffffff" opacity="0.1" />
  <circle cx="180" cy="470" r="6" fill="#b0e0e6" opacity="0.15" />
  <circle cx="1280" cy="470" r="6" fill="#b0e0e6" opacity="0.15" />
</svg>
