<?xml version="1.0" encoding="UTF-8"?><svg id="Layer_1" xmlns="http://www.w3.org/2000/svg" viewBox="0 0 20.75 20.74"><defs><style>.cls-1{fill:none;stroke:#1d4f91;stroke-linecap:round;stroke-linejoin:round;stroke-width:1.5px;}</style></defs><polyline class="cls-1" points="7.39 10.91 9.8 13.43 13.37 8.59"/><path class="cls-1" d="M2.1,15.73c-1.81-2.93-1.75-6.56-.04-9.38h0s-1.21-.81-1.21-.81c-.17-.11-.13-.37.06-.43l2.8-1c.15-.05.31.06.31.23l.14,2.96c0,.19-.21.31-.37.2l-.41-.27"/><path class="cls-1" d="M13.7,19.08c-3.22,1.58-7.07,1.08-9.78-1.23"/><path class="cls-1" d="M18.74,11.32c-.05,1.52-.49,3.02-1.29,4.34h0s1.21.81,1.21.81c.17.11.13.37-.06.43l-2.8,1c-.15.05-.31-.06-.31-.23l-.14-2.96c0-.19.21-.31.37-.2l.41.27"/><path class="cls-1" d="M14.2,3.19c1.07.61,2.04,1.46,2.82,2.52.58.8,1.01,1.66,1.3,2.55"/><path class="cls-1" d="M5.8,2.92c1.92-.94,4.06-1.14,6.05-.66"/><path class="cls-1" d="M14.5,2.33c.24-.59-.05-1.27-.65-1.5s-1.27.05-1.5.65c-.24.59.05,1.27.65,1.5s1.27-.05,1.5-.65"/><path class="cls-1" d="M19.92,10.12c.24-.59-.05-1.27-.65-1.5s-1.27.05-1.5.65c-.24.59.05,1.27.65,1.5s1.27-.05,1.5-.65"/><path class="cls-1" d="M3.92,17.12c.24-.59-.05-1.27-.65-1.5s-1.27.05-1.5.65c-.24.59.05,1.27.65,1.5s1.27-.05,1.5-.65"/></svg>